<svg version="1" xmlns="http://www.w3.org/2000/svg" width="682.667" height="682.667" viewBox="0 0 512.000000 512.000000"><path d="M150 6.3c0 .2 1.3 4.2 2.9 9l3 8.6-5.4 1.7c-4.7 1.5-5.4 2.1-5.8 4.8-.6 3.7-.1 4.6 2.2 4.6 1.2 0 2.2 1.6 3.5 5.7 1.7 5.2 1.7 5.7.1 6.5-1.2.7-1.3 1.3-.5 2.3.6.8 1.7 1.2 2.4.9 1.2-.5 6.6 14.2 7.3 20 .1 1.6.5 3.2.8 3.4.3.3-.1 1.2-.7 2-1 1.1-.9 1.7.5 2.7.9.6 4.3 8.9 7.5 18.4l5.9 17.2-3.3 1.4c-3.3 1.4-3.3 1.4-2 4.7 3.2 7.9 3.7 7.3-7.1 10.8-5.4 1.8-10 3.5-10.3 3.7-.2.2 1.6 6.1 4 13.1l4.4 12.7-10.7 10.7-10.7 10.7-23.9-11.7c-21.4-10.5-23.9-11.9-23.5-13.8.4-1.6-.1-2.4-2.6-3.4-2.6-1.1-3.3-1.1-4 0-.6.9-4 .5-15.9-2-8.4-1.8-15.5-3-15.7-2.7-.3.2 4.9 5.1 11.4 10.7 8.7 7.5 11.8 10.8 11.5 12.1-.4 1.2.4 2.2 2.6 3.3 2.8 1.5 3.1 1.5 4-.3.7-1.3 1.8-1.7 3.1-1.4 2.8.7 3.3 1.9 2 4.3-.8 1.5-1.7 1.9-3.5 1.4-2.7-.7-3.6 1.3-1 2.2.8.4 1.5 1.3 1.5 2.1 0 1.1-.7 1.3-3.2.8-2.6-.6-3-.5-2.5 1 .4.9.7 1.9.7 2.1 0 .2.7.4 1.5.4s1.2.6.9 1.5c-.4 1-1.5 1.2-3.5.8-2.4-.5-2.8-.3-2.3 1.1.3.9 1.3 1.6 2.1 1.6 1 0 1.3.6.9 1.6-.3.9-.6 1.8-.6 2.1 0 .3-.6 0-1.4-.6-.7-.6-2.1-.9-2.9-.5-1.8.7-1.1 3.4.9 3.4.8 0 1.4.7 1.4 1.6 0 1.2-.7 1.4-3 .9-2.3-.5-3-.3-3 .8 0 .8.9 1.7 2 2 1.8.5 1.9.8.9 3.1-1.1 2.4-1.3 2.4-4.1 1-2.2-1.2-2.7-1.8-1.9-3.2.7-1.3.3-1.9-2.1-2.9-2.2-1-3.4-1-4.4-.2-.9.8-5.4.2-16.4-2.1-8.3-1.8-15.3-3-15.6-2.8-.2.3 5 5.1 11.6 10.8 9.2 7.8 11.9 10.7 11.5 12.1-.4 1.3.2 2.2 2.3 3.3 2.8 1.4 3.1 1.4 4.4-.5 1.3-2.1 1.8-1.9 25 9.7 16 8 23.4 12.2 23.1 13.1-.7 1.9-3.4 1.6-9-.8-2.6-1.2-5.9-2.1-7.2-2.1-3.4-.1-8.5-3.3-9.1-5.9-.4-1.7-2.4-2.6-12-5-6.3-1.6-12.1-2.9-12.9-2.9-.8 0-2.2-.7-3.2-1.6-2.2-1.9-6.7-1.2-7.6 1.3-1 2.6 1.9 6.9 4.5 6.5 2.6-.4 3 1.9.7 3.8-2.1 1.8-4.8.5-4-2 .3-1.1.4-2 .2-2-.3 0-3.5 3.6-7.2 8-3.6 4.4-8.4 8.9-10.6 10.2-2.1 1.2-3.9 2.5-3.9 2.9 0 1 4.1 4.9 5 4.9.4 0 1.2-1.9 1.9-4.2.7-2.3 2.9-6.1 4.9-8.5 2.9-3.5 4.3-4.3 6.9-4.3 1.8 0 4.2.6 5.4 1.2 1.8 1.2 2.3.9 4.7-2l2.7-3.3 5.6 2c3.1 1 7.1 2.6 8.9 3.6 2.3 1.2 3.5 1.4 4 .6.5-.9 1.4-.9 3.3-.2 1.5.6 5.5 1.5 8.8 2 3.4.6 8.1 1.8 10.5 2.7 3.8 1.4 4.4 2.1 4.4 4.5 0 1.6.4 2.9.9 2.9s.7.9.4 2c-.6 2.2-4 2.6-8.9 1.1-1.6-.5-4.6-1.2-6.6-1.6-2.7-.4-3.8-1.1-3.8-2.3 0-1.4-1.9-2-10.7-3.3-6-.8-11.5-1.9-12.4-2.3-1-.4-2.3-.1-3.2.9-2.2 2.1-.2 5.5 3.1 5.5 2 0 2.1.3 1.2 2.1-.9 1.5-1.8 1.9-3.8 1.5-2.2-.5-2.9-.2-3.8 1.8-1.1 2.3-1 2.4 1 1.6 1.3-.5 3-.4 4.1.2 1.5.9 2.3.6 4-1.7 2.2-2.6 2.4-2.7 7.1-1.5 2.7.6 8.9 1.3 13.9 1.6 4.9.2 10.6.9 12.6 1.4 3.3.9 3.8 1.5 4.4 5 1.2 7.1 0 9.7-5.3 11.4-2.6.8-23.6 7.4-46.7 14.6-23.1 7.3-42.1 13.3-42.3 13.5-.7.6 1.1 3.4 1.9 2.9 1.8-1.1 3 .8 1.3 2-2 1.5-1.1 3.8 1.1 2.9.9-.3 1.5.1 1.5 1.1 0 .9-.4 1.6-1 1.6-.5 0-1 .7-1 1.5 0 1.3.7 1.5 3.5.9 2.9-.5 3.5-.3 3.5 1.1 0 1.2.6 1.6 2 1.2 2.3-.6 2.8 1.1.6 1.9-1.8.7-.9 3.4 1 3.4 1.6 0 1.9 1.7.3 2.2-.5.2-.7 1.1-.3 2.1.3 1 1.3 1.6 2 1.3 1.7-.6 1.9 1 .3 2-.6.3-.9 1.4-.6 2.4.3 1.3-.3 1.9-2.4 2.4-3.3.6-3.8 2.5-.9 3.3 2 .5 2.8 2.3 1 2.3-.5 0-1 .9-1 2.1 0 1.6.4 1.9 2 1.4 1.4-.5 2-.2 2 .9 0 .9-.7 1.6-1.5 1.6-.9 0-1.2.6-.9 1.5.4.8 1.5 1.5 2.5 1.5s1.9.4 1.9 1c0 .5-.7 1-1.6 1-1.1 0-1.4.5-1 1.6.3.9.6 1.7.6 2 0 .2.7.1 1.5-.2.9-.4 1.5 0 1.5 1 0 .9-.4 1.6-1 1.6-.5 0-1 .7-1 1.5s.9 1.5 2 1.5 2 .4 2 1c0 .5-.4 1-1 1-.5 0-1 .7-1 1.5s.9 1.5 2 1.5c2.3 0 2.6 1.5.5 2.7-2.6 1.5-.2 3.5 2.8 2.4 2.2-.9 2.7-.7 3.2.9.4 1.1 1.2 1.7 2.1 1.3.7-.3 1.4 0 1.4.6s-.4 1.1-1 1.1c-1.9 0-1 3.1 1.2 3.9 1.4.5 1.7 1 1 1.5-1.9 1.2-1.4 3.6.8 3.6 2.3 0 2.7 1.5.5 2.4-.8.3-1.2 1.2-.9 2 .4 1.1-.3 1.9-2 2.6-2.8 1-3.7 4.3-1 3.8 1-.2 1.9.3 2.1.9.3.7-.2 1.3-1.1 1.3-2.5 0-1.9 2 1 3.1 2.6.9 2.6 1 .8 2.4-1.3.9-1.6 1.7-.9 2.4.7.7 15.7-3.6 46.9-13.5 25.2-8 46.4-14.4 47-14.2.6.2 6.2 5.5 12.4 11.9 7.4 7.7 11.2 12.4 11.2 13.8 0 1.8-5.5 11.1-6.5 11.1-.2 0-1.9-.7-3.8-1.5-4.2-1.7-9-1.9-11.6-.5-1.9 1-2.6 2.7-10.8 25.2-5.1 14-5.3 16.8-1.3 16.8 2.3 0 30.7-18.1 33.8-21.6 2.9-3.3 2.8-6.1-.7-11.6l-2.9-4.6 4.7-4.6c2.6-2.5 5.2-4.6 5.9-4.6.6 0 4.5 2.3 8.4 5.2 4 2.9 11.4 7.3 16.3 9.9 5.3 2.7 9.1 5.3 9.3 6.3.2 1-.4 4.6-1.3 8.1l-1.7 6.3-3-1c-3.3-1.2-9.3-.5-11.4 1.3-1.8 1.4-1.8 4.9 0 11.6.8 2.9 1 5.3.5 5.3-2.2 0-2.8 3.8-1.4 9 1.2 4.6 1.2 5.5 0 6.4-1.2.9-1.2 1.9-.3 5.6.6 2.5 1.4 4.9 1.9 5.4s2.7-.6 5.3-2.7c3.3-2.8 4.3-4.2 3.9-5.7-.3-1.1-.1-2 .4-2s2.5-1.5 4.6-3.3c2.5-2.4 3.4-4 3.1-5.4-.4-1.4.6-2.9 4-5.6 2.8-2.3 4.7-3.3 5.1-2.6.4.6 1.3.8 2 .5.7-.2 1.8.1 2.4.7.9.9 1.4.8 2.2-.3.8-1.2.9-1 .4.8-.7 2.6 2.2 4.4 3.5 2.1.6-.9.8-.2.8 1.9-.1 1.8-.5 3.2-1 3.2s-.6-.5-.2-1.2c.5-.8.2-.9-.9-.5-.9.3-2.3 0-3.1-.8-1.9-2-5.6-1.9-5.6 0 0 .8-.4 1.5-.9 1.5s-.7.9-.4 2c.3 1.1 1.2 2 2 2 .9 0 1.3.6 1 1.4-.3.8.5 2.2 1.7 3.1 1.6 1.2 2.1 2.5 1.8 4.1-.3 1.9 0 2.4 1.6 2.4 1.2 0 2.2.9 2.5 2.1.4 1.6 1 2 2.4 1.4 1-.4 3.4-.8 5.3-.9 2.4-.1 3.5-.6 3.5-1.6 0-2.2 1.6-3 3.6-1.9 3.1 1.6 3.5 1 4.8-5.8.9-5.2.9-6.8 0-7.4-1.8-1.1-3.6-.1-4.4 2.4-.4 1.5-.8 1.8-1.2.9-.3-.8 0-1.9.6-2.5.6-.6 1.1-1.9 1.1-2.9 0-1.3.8-1.8 2.5-1.8 3.5 0 3.4-3.7-.1-5-3.7-1.4-5.2-1.2-5.7.7-.4 1.7-.5 1.7-.6.1 0-1 .8-2.2 1.9-2.8 1.1-.6 1.8-1.6 1.4-2.1-.4-.7.1-.7 1.4 0 1.1.6 2.6 1.1 3.2 1.1 1.7 0 .1-4.2-2.2-5.8-1-.7-1.5-1.8-1.2-2.4.4-.5.2-2-.4-3.1-.6-1.2-1.3-3-1.6-4-.9-2.9-2.9-.8-2.2 2.4.3 1.5.2 3.1-.3 3.3-1 .7-2.3-6.7-1.6-8.7.5-1.2 1.6-1.2 7.3 0 3.7.7 12 1.6 18.5 1.9l11.7.7v5.2c0 7.5-1.6 11.5-4.6 11.5-1.3 0-2.4-.5-2.4-1 0-1.1-6.7-1.4-7.2-.3-.1.5-1.6 1.9-3.3 3.3-1.6 1.4-3.1 3.2-3.1 4-.1.8-.5 2.2-.8 3.1-.7 1.7 4.5 7.9 6.6 7.9.6 0 .8.6.5 1.3-.3.8.6 2.2 2 3.2 2 1.6 2.2 2.1 1 3-.7.5-1.9 2-2.6 3.3-1.1 2.1-.8 2.7 2.8 6.4 2.3 2.2 4.1 4.2 4.1 4.5 0 .2.8 1.3 1.8 2.3 1.7 1.9 3 2 10.3.7 4-.7 10.2-6.2 9.4-8.4-.2-.7 0-1.5.5-1.8 2.5-1.6-2-8.5-5.5-8.5-.8 0-1.5-.7-1.5-1.6 0-1.1.7-1.4 3-1 4.4.7 6.3-.1 8.7-3.9 4-6 4-8.4.3-11.6-1.8-1.6-3.6-2.6-4.1-2.3-.5.3-.9 0-.9-.6 0-2.1-2.9-4.1-5.6-3.8-2.2.3-2.8-.2-3.9-3.2-.7-2-1.6-5.5-2-7.8-.7-4.1-.6-4.2 2.2-4.2 2.6 0 3.9-1.8 19.6-28.2 9.2-15.4 16.6-28.2 16.4-28.4-.2-.2-4.8.9-10.3 2.5-29.2 8.4-57.8 6-83.8-7-12.3-6.3-19.4-11.4-29.6-21.9-14.4-14.7-23.4-30.5-29.2-51.7-1.8-6.7-2.2-10.5-2.2-26.8-.1-16.8.2-20 2.2-27.3 10.1-37 37.8-67.1 72.4-78.6 12.7-4.2 22.3-5.7 36.8-5.7 13.8 0 22.3 1.3 38.3 6 3.7 1.1 6.7 1.8 6.7 1.6 0-.3-32.4-54.8-33.5-56.2-.1-.2-2.9-.6-6.2-.9l-6-.7-3.8-11.8c-2-6.6-3.8-11.9-4-11.9-.1 0-4.6 1.6-10 3.5-5.3 1.9-10 3.3-10.4 3-.5-.2-1.4-2.5-2.1-5-.7-2.5-1.6-4.8-2-5-.4-.2-7.7 2-16.2 4.9l-15.5 5.4-5.8-17.1c-3.3-9.4-5.8-18.2-5.7-19.4.1-1.5-.4-2.3-1.3-2.3-.8 0-1.5-.6-1.5-1.4 0-.8-.6-2.1-1.3-2.8-.8-.7-2.8-5.6-4.5-10.8-2.8-8.3-3-9.5-1.6-10.3 1.1-.7 1.2-1.2.4-2.2-.6-.8-1.7-1.2-2.4-.9-.8.3-1.9-1.6-3-5.3-1.3-4-1.5-5.8-.7-6.1 1.7-.6 1.3-3-1-5.3-2-2-2.2-2-7.1-.4-2.7 1-5.3 1.3-5.7.9-.5-.5-2.1-4.4-3.6-8.7-2.3-6.5-3.5-9-3.5-7.4zm14.4 28.3c.3.9.1 2.4-.5 3.5-1.5 2.9-6.3 2.2-6.7-1-.2-1.3.1-2.8.7-3.4.8-.8 1.1-.5 1.1.9 0 1.2.3 2.4.6 2.7 1 .9 4.5-1.3 3.9-2.4-.4-.5-1.1-.7-1.6-.4-.5.4-.9-.1-.9-.9 0-1.9 2.6-1.1 3.4 1zm50.3 404.1c9.1 2.7 9.3 2.9 9.2 5.8-.1 3.8-1.3 7-2.8 7.1-.6.1-1.5.2-1.9.3-.5 0-1.4 1.7-2.2 3.6-1.8 4.7-6.1 5.2-9.3 1-1-1.3-3.3-3.4-5.2-4.5-1.9-1.2-3.5-2.8-3.5-3.6 0-2 4.7-12.4 5.7-12.4.4-.1 5 1.2 10 2.7zm10.6 16.3c-.7 2.8-1.3 2.5-1.3-.6 0-1.4.4-2.3.9-2 .5.3.7 1.5.4 2.6zm-2.3 2.5c0 .8-.4 1.5-1 1.5-.5 0-.7-.7-.4-1.5.4-.8.8-1.5 1-1.5.2 0 .4.7.4 1.5zm45.7 4.9c-.4.9-1.1 1.6-1.7 1.6-1.1 0-1.4-5.3-.3-6.4 1.1-1 2.7 3 2 4.8zM210 462c0 .5-.5 1-1.1 1-.5 0-.7-.5-.4-1 .3-.6.8-1 1.1-1 .2 0 .4.4.4 1zm16.7 4.2c-.3.8-.6.5-.6-.6-.1-1.1.2-1.7.5-1.3.3.3.4 1.2.1 1.9zm-3.7 1.2c0 .3-.4.8-1 1.1-.5.3-1 .1-1-.4 0-.6.5-1.1 1-1.1.6 0 1 .2 1 .4zm3.5 11.3c-.5 1.2-.9 1.4-1.2.5-.3-.6-.9-.9-1.5-.6-.5.4-.5-.4.2-1.6 1.4-2.7 3.7-1.2 2.5 1.7zm-5.5 2.7c0 .3-.4.8-1 1.1-.5.3-1 .1-1-.4 0-.6.5-1.1 1-1.1.6 0 1 .2 1 .4zm50.4 2.2c.9 2.2.8 2.3-1.4 1.7-2.1-.5-2.5-1.5-1.3-2.6 1.1-1.1 2-.8 2.7.9z"/><path d="M308.4 124.1c-4 1.1-6.2 5.9-4.7 9.8.5 1.4 19.8 33.9 42.9 72.1l41.9 69.5v8c0 8.9-1.4 12.2-12 29.4-11.4 18.7-70.6 118.2-72.1 121.5-1.4 2.9-1.5 3.9-.5 6.4.7 1.7 2.5 3.5 4 4.2 2 .8 14.2 1 41.7.8l38.9-.3 5.7-2.9c9.7-4.9 6 .6 58.1-86.1 6.9-11.6 17.2-28.6 22.9-37.8 14.5-23.8 15.2-25 15.6-32.2.3-4.8-.1-7.3-1.9-11.6-3.3-7.8-81.3-137.7-85.2-142-1.9-2-6-4.9-9.3-6.5l-5.9-2.9-38.5-.2c-21.6-.1-39.9.2-41.6.8zM47 272.1c-3.4 2.9-3.4 3.1-1.6 4.5 2.2 1.6 3.6.4 3.6-3.2 0-1.1.5-2.5 1.2-3.2 2.3-2.3.3-1.1-3.2 1.9z"/></svg>