<svg xmlns="http://www.w3.org/2000/svg" viewBox="0 0 187.14 95.94"><defs><style>.cls-1,.cls-24,.cls-3{isolation:isolate;}.cls-2,.cls-38{fill:#989898;}.cls-3{font-size:20px;fill:#212121;font-family:Roboto-Black, Roboto;font-weight:800;}.cls-4,.cls-48{fill:#249a41;}.cls-44,.cls-5{fill:#f6ad01;}.cls-47,.cls-6{fill:#e63125;}.cls-46,.cls-7{fill:#3174f0;}.cls-8{fill:#eee;}.cls-10,.cls-11,.cls-12,.cls-18,.cls-21,.cls-24,.cls-25,.cls-26,.cls-27,.cls-29,.cls-30,.cls-32,.cls-33,.cls-38,.cls-39,.cls-40,.cls-42,.cls-44,.cls-45,.cls-46,.cls-47,.cls-48,.cls-49,.cls-8,.cls-9{fill-rule:evenodd;}.cls-17,.cls-9{fill:#e2e2e2;}.cls-10,.cls-15{fill:#cacaca;}.cls-11,.cls-22{fill:#818181;}.cls-12,.cls-13{fill:#b3b3b3;}.cls-14,.cls-40{fill:#f3f3f3;}.cls-16,.cls-34{fill:none;stroke-linejoin:round;}.cls-16{stroke:#b3b3b3;stroke-linecap:round;}.cls-18,.cls-43{fill:#b0b0b0;}.cls-19,.cls-24,.cls-26{fill:#bcbcbc;}.cls-20{fill:#9b9b9b;}.cls-21{fill:#dbdbdb;}.cls-23,.cls-39{fill:#c6c6c6;}.cls-24{opacity:0.44;}.cls-25{fill:#a0a0a0;}.cls-27,.cls-31{fill:#ddd;}.cls-28{fill:#a4a4a4;}.cls-29{fill:#fff;}.cls-30{fill:#7e7e7e;}.cls-32{fill:#bababa;}.cls-33{fill:#dcdcdc;}.cls-34{stroke:#7e7e7e;}.cls-35{fill:#838383;}.cls-36{fill:#bebebe;}.cls-37{fill:#e9e9e9;}.cls-41,.cls-42{fill:#ededed;}.cls-45{fill:#e39f00;}.cls-49{fill:#1f8238;}</style></defs><title>gdgkids-logo</title><g id="Layer_2" data-name="Layer 2"><g id="Layer_1-2" data-name="Layer 1"><g id="Group_14" data-name="Group 14"><g class="cls-1"><path class="cls-2" d="M115.71,58.25a5.4,5.4,0,0,1-2.31,1.42,10,10,0,0,1-3.34.54,5.94,5.94,0,0,1-4.46-1.71,6.91,6.91,0,0,1-1.79-4.76V52.51a8.51,8.51,0,0,1,.74-3.66,5.59,5.59,0,0,1,2.13-2.42,6,6,0,0,1,3.2-.84A6.29,6.29,0,0,1,114,46.8a5.18,5.18,0,0,1,1.72,3.63H112.4a2.68,2.68,0,0,0-.76-1.7,2.44,2.44,0,0,0-1.66-.5,2.23,2.23,0,0,0-2,1.09,5.76,5.76,0,0,0-.71,3.12v.86a5.76,5.76,0,0,0,.72,3.2,2.59,2.59,0,0,0,2.29,1.07,2.93,2.93,0,0,0,2-.59V54.77H109.9V52.41h5.81Z"/><path class="cls-2" d="M117.71,60V45.79h4.58a6.78,6.78,0,0,1,3.39.86A6,6,0,0,1,128,49.06a7.24,7.24,0,0,1,.86,3.49v.66a7.35,7.35,0,0,1-.83,3.5,6,6,0,0,1-2.32,2.42,6.54,6.54,0,0,1-3.35.88Zm3.42-11.57v8.94h1.2a2.66,2.66,0,0,0,2.26-1.05,5.13,5.13,0,0,0,.79-3.12v-.62a5.11,5.11,0,0,0-.79-3.11,2.72,2.72,0,0,0-2.3-1Z"/><path class="cls-2" d="M142.28,58.25A5.51,5.51,0,0,1,140,59.67a9.92,9.92,0,0,1-3.34.54,5.94,5.94,0,0,1-4.46-1.71,7,7,0,0,1-1.79-4.76V52.51a8.36,8.36,0,0,1,.75-3.66,5.51,5.51,0,0,1,2.12-2.42,6,6,0,0,1,3.2-.84,6.29,6.29,0,0,1,4.12,1.21,5.14,5.14,0,0,1,1.72,3.63H139a2.73,2.73,0,0,0-.76-1.7,2.49,2.49,0,0,0-1.67-.5,2.24,2.24,0,0,0-2,1.09,5.86,5.86,0,0,0-.71,3.12v.86a5.67,5.67,0,0,0,.73,3.2,2.58,2.58,0,0,0,2.29,1.07,2.92,2.92,0,0,0,2-.59V54.77h-2.38V52.41h5.81Z"/></g><text class="cls-3" transform="translate(143.24 60.01)"> </text><g class="cls-1"><path class="cls-4" d="M154.13,54.72l-1.4,1.54V60H149.3V45.79h3.43v6.27l1.19-1.8L157,45.79h4.24l-4.8,6.29,4.8,7.93h-4.06Z"/></g><g class="cls-1"><path class="cls-5" d="M161.82,46.72a1.46,1.46,0,0,1,.51-1.15,1.88,1.88,0,0,1,1.31-.45,1.9,1.9,0,0,1,1.32.45,1.55,1.55,0,0,1,0,2.3,1.9,1.9,0,0,1-1.32.45,1.88,1.88,0,0,1-1.31-.45A1.46,1.46,0,0,1,161.82,46.72ZM165.31,60H162V49.45h3.3Z"/></g><g class="cls-1"><path class="cls-6" d="M166.73,54.65a6.46,6.46,0,0,1,1.08-3.95,3.58,3.58,0,0,1,3-1.45,3,3,0,0,1,2.38,1.11V45h3.31V60h-3l-.17-1.13a3.12,3.12,0,0,1-2.58,1.33,3.57,3.57,0,0,1-3-1.45A6.68,6.68,0,0,1,166.73,54.65Zm3.29.21c0,1.87.55,2.81,1.64,2.81a1.62,1.62,0,0,0,1.56-.92v-4a1.56,1.56,0,0,0-1.54-.94q-1.52,0-1.65,2.46Z"/></g><g class="cls-1"><path class="cls-7" d="M184,57a.76.76,0,0,0-.44-.67,6.64,6.64,0,0,0-1.67-.53,7.35,7.35,0,0,1-2-.72,3.3,3.3,0,0,1-1.22-1.07,2.6,2.6,0,0,1-.42-1.46,2.93,2.93,0,0,1,1.2-2.4,4.93,4.93,0,0,1,3.14-.94,5.49,5.49,0,0,1,3.36,1,3,3,0,0,1,1.27,2.49h-3.3c0-.85-.45-1.27-1.34-1.27a1.31,1.31,0,0,0-.87.29.89.89,0,0,0-.35.71.82.82,0,0,0,.43.72,4.26,4.26,0,0,0,1.37.45,10.28,10.28,0,0,1,1.66.42A3,3,0,0,1,187.12,57a2.78,2.78,0,0,1-1.28,2.35,5.7,5.7,0,0,1-3.33.91,5.84,5.84,0,0,1-2.42-.49,4.11,4.11,0,0,1-1.66-1.33,3,3,0,0,1-.6-1.77h3.08a1.26,1.26,0,0,0,.49,1.07,2,2,0,0,0,1.2.34,1.58,1.58,0,0,0,1-.27A.91.91,0,0,0,184,57Z"/></g><g id="Group_1" data-name="Group 1"><path id="Path_1" data-name="Path 1" class="cls-8" d="M20.77,79.7c-.28.39-1.59,2.24-1.87,2.24s0-.07.12-.15a14.22,14.22,0,0,0,1.41-2,8.52,8.52,0,0,0-1,.2,8,8,0,0,0-1.32.54l0,0a.1.1,0,0,1-.06.05l.06-.05v0a6.2,6.2,0,0,1,1.28-.66c.52-.2,1.06-.24,1.26-.37a30.57,30.57,0,0,0,2.67-2.79,1,1,0,0,1,.11-.38,4.23,4.23,0,0,0-.86.71c-.21.26-.2.18-.2.18l.13-.23,1-.83A11,11,0,0,1,24,75.06s-.78.37-1.2.59c-.15.23-.5.77-.57.84s-.08,0-.08,0a9.22,9.22,0,0,0,.48-.79,4.46,4.46,0,0,0-.78.49c-.34.26-.8.79-1.34,1.3,0,.15,0,.5-.1.59s-.05,0-.05,0a4.65,4.65,0,0,0,.06-.48l0,0c-1.25,1.15-2.69,2.43-2.69,2.43s-.28.16-.17.06c.78-.68,1.46-1.41,2.25-2.15a6.1,6.1,0,0,0,.54-.59l-.62.18c.13-.16.63-.17.82-.43A8.35,8.35,0,0,1,21.69,76c.17-.12,1.72-1,2.65-1.66a8.55,8.55,0,0,0,1.77-2.16l.57.59,0,0c-.4.43-.74.72-1.82,1.83a6.24,6.24,0,0,0-1.37,2.48,8.31,8.31,0,0,0-.29,2.1s0,.23-.11,0a18.38,18.38,0,0,1,.2-2.11c-.23.26-1.65,1.84-2.37,2.5,0,.31,0,1.29-.22,1.45s-.17.12-.08,0h0a.35.35,0,0,0,.1-.11A2.78,2.78,0,0,0,20.77,79.7Z"/><path id="Path_2" data-name="Path 2" class="cls-8" d="M21.61,76.47c0-.08.1-.26.2-.24s.07.17.07.22a.28.28,0,0,1,0,.09.38.38,0,0,0,.05-.08s.13-.16.16-.16,0,.2,0,.21,0,.08,0,.08l.1-.08a1,1,0,0,1,.22-.14c.06,0,.14-.06.18,0a.41.41,0,0,1,0,.29.86.86,0,0,0-.05.15s.05,0,.06-.06.26-.18.3,0-.22.31-.18.43.06,0,.07,0A1.77,1.77,0,0,0,23,77s.08,0,.1,0a.5.5,0,0,1,0,.32,1.55,1.55,0,0,0-.08.23s0-.07.12-.19a1.21,1.21,0,0,1,.2-.26s.08-.09.12-.07a.19.19,0,0,1,.08.25s0,.08,0,.09l.05-.06c.05,0,.19-.15.24-.06a.4.4,0,0,1,0,.24s0,.15,0,.15,0,0,.05-.06.29-.22.32-.07a.4.4,0,0,1-.06.22.3.3,0,0,0,0,.08s.11-.08.12-.09.28-.19.38-.15-.05.23-.09.28a.73.73,0,0,0-.09.11s.11-.06.15-.08a.62.62,0,0,1,.5-.06c.11.06,0,.22-.06.27l-.12.07.1,0,.19,0c.13,0,.34.21.32.37a.48.48,0,0,1-.14.25l-.07.06s0,0,0,0,.1,0,.13,0a.37.37,0,0,1,.22.35.39.39,0,0,1-.2.25l-.11.07,0,0s.12,0,.16,0a.3.3,0,0,1,.13.33.29.29,0,0,1-.14.17s-.1,0-.1,0l.1.06a.3.3,0,0,1,.16.27c0,.16-.21.22-.34.24h-.16l.11.06a.36.36,0,0,1,.18.24c0,.16-.23.12-.29.19l0,0s.07,0,.1.09,0,.26-.11.32a.19.19,0,0,1-.27,0h0s0-.07,0,0a.24.24,0,0,1-.17.28h-.08a.5.5,0,0,1-.36-.22s0,.07-.09.12-.34-.17-.34-.15.08.25,0,.31-.29-.21-.32-.29,0,0,0,0,0,.24-.1.3-.24-.23-.25-.3-.06.09-.11.12-.2,0-.27-.08a2.12,2.12,0,0,1-.11.45c0,.06-.1.15-.17.15s-.16-.32-.23-.34-.1.27-.13.29a.23.23,0,0,1-.29,0l-.1-.11s0,.08,0,.1a.27.27,0,0,1-.26,0,.6.6,0,0,1-.2-.47,1,1,0,0,1,0-.15h-.1a.39.39,0,0,1-.29-.11.24.24,0,0,1-.05-.29l.09-.11a.35.35,0,0,1-.14,0,.3.3,0,0,1-.23-.11.24.24,0,0,1,0-.23.32.32,0,0,1,.1-.1l.07,0a.32.32,0,0,1-.14,0,.67.67,0,0,1-.29-.31.21.21,0,0,1,.14-.25h0s.1,0,.11,0l-.07,0a.64.64,0,0,1-.15-.13.51.51,0,0,1-.09-.53.15.15,0,0,1,.2,0l-.14-.06c-.1-.09-.2-.17-.2-.32s.17-.22.26-.25l.14,0h.09s-.06,0-.07-.05a.64.64,0,0,1-.08-.14.9.9,0,0,1,0-.46.4.4,0,0,1,.27-.29.42.42,0,0,1,.22,0s.05,0,.05,0,0-.15-.05-.2a.67.67,0,0,1,.05-.5c.09-.13.26-.08.36,0l.07,0s0,0,0,0-.07-.14-.08-.16a.61.61,0,0,1,0-.27c0-.1.14,0,.15-.05s.05-.06.05-.1S21.61,76.47,21.61,76.47Z"/><path id="Path_3" data-name="Path 3" class="cls-8" d="M20.58,80c0,.07-.14.23-.23.19s0-.17,0-.22a.22.22,0,0,1,0-.08l-.06.07a.71.71,0,0,1-.18.12c-.06,0,.05-.18.06-.2s0-.07,0-.07-.08,0-.1.06a2.34,2.34,0,0,1-.24.09c-.05,0-.13,0-.16,0a.37.37,0,0,1,.05-.27s.08-.13.06-.13l-.06,0c-.09,0-.27.12-.27,0s.25-.26.23-.38-.06,0-.07,0l-.22.12s-.09,0-.09,0A.52.52,0,0,1,19.4,79a1.28,1.28,0,0,0,.11-.2s-.05.06-.14.15a1.52,1.52,0,0,1-.22.22s-.1.07-.13,0A.2.2,0,0,1,19,79s.05-.07,0-.08l-.06,0s-.2.12-.23,0a.33.33,0,0,1,0-.22s.05-.14,0-.15-.05.05-.06.05-.3.16-.3,0a.3.3,0,0,1,.1-.19s.05-.06,0-.07l-.13.06c-.08,0-.28.13-.37.08s.08-.21.13-.25.11-.08.1-.09-.11,0-.15,0a.56.56,0,0,1-.47,0c-.09-.07,0-.2.11-.24l.12,0a.17.17,0,0,1-.1,0,.85.85,0,0,1-.17-.06c-.12-.06-.28-.26-.23-.4a.39.39,0,0,1,.17-.21.18.18,0,0,1,.07,0h0l-.13,0a.37.37,0,0,1-.13-.37.34.34,0,0,1,.22-.2l.11,0s.05,0,0,0-.11,0-.14-.06a.33.33,0,0,1-.07-.33.22.22,0,0,1,.25-.13.27.27,0,0,0-.08-.07.33.33,0,0,1-.1-.28c.06-.15.24-.17.37-.17l.14,0-.09-.07a.35.35,0,0,1-.13-.26c0-.15.23-.07.3-.13l0,0a.7.7,0,0,1-.08-.1c0-.1.08-.24.16-.28a.18.18,0,0,1,.24.06h0s0,.08,0,.05a.22.22,0,0,1,.2-.23h.07a.45.45,0,0,1,.3.27s0-.06.1-.1.29.22.29.2,0-.24.07-.29.23.25.24.33,0,0,0,0,0-.22.14-.26.18.25.18.33.07-.07.12-.09.18,0,.24.12a2,2,0,0,1,.17-.4c0-.05.12-.12.18-.11s.09.32.16.35.14-.23.16-.25a.22.22,0,0,1,.26.1.58.58,0,0,1,.07.11s0-.07.06-.08a.24.24,0,0,1,.23.07.54.54,0,0,1,.11.47s-.07.14-.06.14a.17.17,0,0,1,.1,0,.41.41,0,0,1,.25.15.26.26,0,0,1,0,.28l-.1.09h.13a.29.29,0,0,1,.19.15.2.2,0,0,1,0,.21.25.25,0,0,1-.1.08l-.07,0a.31.31,0,0,1,.12,0,.55.55,0,0,1,.21.34.2.2,0,0,1-.18.2.4.4,0,0,0-.11,0,.18.18,0,0,0,.07,0,.81.81,0,0,1,.12.14.52.52,0,0,1,0,.51c-.06.07-.13,0-.19,0l.12.09a.4.4,0,0,1,.13.33c0,.1-.2.18-.28.19h-.13s-.08,0-.08,0,0,0,.05,0a.78.78,0,0,1,.05.14.83.83,0,0,1-.05.44.38.38,0,0,1-.3.23.49.49,0,0,1-.19-.07s0,0,0,0,0,.15,0,.2a.63.63,0,0,1-.13.46c-.1.1-.25,0-.34,0L21,79.68s0-.05,0,0,0,.14,0,.17a.44.44,0,0,1,0,.25c0,.09-.13,0-.15,0s-.06,0-.06.08S20.58,80,20.58,80Z"/><path id="Path_4" data-name="Path 4" class="cls-8" d="M16.84,79.09c0-.07.08-.24.19-.22s.08.15.09.21v.08a.56.56,0,0,0,0-.08s.12-.15.16-.15,0,.18,0,.2,0,.07,0,.06.08-.06.1-.07l.22-.13c.06,0,.14-.06.19,0a.32.32,0,0,1,0,.27s-.05.14,0,.14,0-.05.05-.06.25-.17.31,0-.2.3-.14.41.06,0,.07,0l.2-.16s.09,0,.1,0a.51.51,0,0,1,0,.3c0,.08-.05.15-.07.22s0-.06.1-.17a1.14,1.14,0,0,1,.18-.25s.09-.08.13-.07a.23.23,0,0,1,.1.24s0,.08,0,.09l.06-.06s.18-.15.24-.06a.4.4,0,0,1,.06.22s0,.14,0,.14,0,0,.05,0,.28-.21.33-.07a.54.54,0,0,1-.05.21l0,.07.13-.09c.07,0,.26-.17.37-.14s0,.22-.07.27-.09.1-.08.1.12-.07.15-.08a.68.68,0,0,1,.52-.06c.12,0,0,.2,0,.25l-.12.06h.11l.2,0c.14,0,.37.2.36.34a.37.37,0,0,1-.12.24.18.18,0,0,1-.07.05s0,0,0,0,.11,0,.14,0a.41.41,0,0,1,.26.33.3.3,0,0,1-.18.23l-.11.06s-.05,0,0,0,.13,0,.17,0a.33.33,0,0,1,.18.31c0,.06-.08.13-.13.16l-.1,0a.31.31,0,0,0,.1.05c.09,0,.2.16.19.25S21.1,83,21,83H20.8l.12,0a.37.37,0,0,1,.21.23c0,.14-.23.11-.29.17l.05,0s.08,0,.11.09,0,.24-.09.3a.23.23,0,0,1-.28,0s0-.07,0,0a.2.2,0,0,1-.22.27.57.57,0,0,1-.4-.21s0,.07-.08.12-.37-.15-.37-.14.1.24,0,.29-.32-.2-.35-.27,0,0,0,0,0,.22-.08.27-.27-.2-.29-.28-.05.08-.1.11-.2,0-.29-.07a3.07,3.07,0,0,1-.07.42s-.09.14-.16.14-.2-.3-.28-.31-.08.25-.1.27a.29.29,0,0,1-.31,0l-.11-.1s0,.07,0,.09a.32.32,0,0,1-.27,0,.59.59,0,0,1-.25-.44.68.68,0,0,1,0-.14h-.1a.51.51,0,0,1-.32-.1.23.23,0,0,1-.07-.27.39.39,0,0,1,.08-.1.35.35,0,0,1-.14,0,.35.35,0,0,1-.25-.1A.22.22,0,0,1,16,83a.41.41,0,0,1,.09-.1l.07,0a.4.4,0,0,1-.15,0,.65.65,0,0,1-.32-.29.17.17,0,0,1,.12-.23s.1,0,.12,0l-.08,0a.66.66,0,0,1-.17-.12.5.5,0,0,1-.14-.5c.05-.08.13-.06.2,0l-.14,0c-.11-.09-.23-.15-.25-.29s.16-.22.25-.24l.14,0s.1,0,.1,0-.06,0-.08,0a.73.73,0,0,1-.1-.13.7.7,0,0,1-.06-.43.32.32,0,0,1,.25-.27.55.55,0,0,1,.22,0s.06,0,.06,0-.05-.14-.07-.19a.52.52,0,0,1,0-.47c.07-.12.26-.08.37,0l.07,0s0,0,.05,0-.09-.13-.1-.15a.46.46,0,0,1,0-.26c0-.1.15,0,.15-.05s.06,0,.05-.08S16.84,79.09,16.84,79.09Z"/><path id="Path_5" data-name="Path 5" class="cls-8" d="M34.37,80.49c-.56-.07-.6-.27-1.19.43a8,8,0,0,0-1,1.84c.15,1.08-2.23.41-.44-.32a14,14,0,0,0,1.07-2.2c0-.42-.43-.88-.43-.88Z"/><path id="Path_6" data-name="Path 6" class="cls-8" d="M29.65,85.61l-.23-3c-.2-2.65,6,.89,3.65,2.06L30.42,86a.48.48,0,0,1-.68-.12.55.55,0,0,1-.09-.3"/><path id="Path_7" data-name="Path 7" class="cls-8" d="M29.07,86.92l-.15-2c-.13-1.76,4,.59,2.42,1.37l-1.76.89a.32.32,0,0,1-.45-.09.36.36,0,0,1-.06-.2"/><path id="Path_8" data-name="Path 8" class="cls-8" d="M28.66,87.88l-.09-1.18c-.08-1,2.37.35,1.45.82L29,88.05A.19.19,0,0,1,28.7,88a.15.15,0,0,1,0-.11"/><path id="Path_9" data-name="Path 9" class="cls-9" d="M24.65,72.17,6.28,78l-.2-.65.57-.18-.13-.4L6,76.91l-.2-.64.56-.18-.12-.4-.57.18-.2-.64L23.8,69.44Z"/><path id="Path_10" data-name="Path 10" class="cls-9" d="M18.49,52.19,0,58l.2.64.57-.18.12.4-.56.18.2.64.56-.18.13.41-.57.18.2.64,18.49-5.83Z"/><path id="Path_11" data-name="Path 11" class="cls-10" d="M6.6,74.85l-.2-.64L7,74l-.13-.41-.57.18-.2-.64L6.64,73l-.13-.4-.57.18-.2-.64.57-.18-.13-.4-.57.18-.2-.64,17.2-5.42,1.19,3.78Z"/><path id="Path_12" data-name="Path 12" class="cls-10" d="M2,60.38l.2.64.56-.18.13.4-.57.18.2.64.57-.17.13.4-.57.18.2.64.57-.18.13.4L3,63.51l.2.64L20.83,58.6l-1.19-3.78Z"/><path id="Path_13" data-name="Path 13" class="cls-9" d="M4.24,71.45,4,70.81l.57-.18-.13-.4-.56.18-.2-.64.56-.18-.12-.4-.57.18-.2-.64L4,68.55l-.13-.4-.57.18-.2-.65.57-.18-.13-.4-.57.18-.2-.64.57-.18-.13-.4-.56.18-.2-.65L3,65.41,2.84,65l-.57.18-.2-.64,18.35-5.81,2.19,6.93L5.13,71.17Z"/><path id="Path_14" data-name="Path 14" class="cls-10" d="M7.12,64.2a2.42,2.42,0,0,0,1.46,4.62l3-.95-1.45-4.62Z"/><path id="Path_15" data-name="Path 15" class="cls-9" d="M7.25,64.45a2.14,2.14,0,0,0,1.28,4.09h0l3-.93-1.29-4.09Z"/><path id="Path_16" data-name="Path 16" class="cls-10" d="M7.4,64.71a1.85,1.85,0,1,0,1.11,3.53l2.91-.92-1.11-3.53Z"/><path id="Path_17" data-name="Path 17" class="cls-9" d="M7.53,64.94A1.59,1.59,0,0,0,8.42,68l.07,0,2.85-.9-1-3Z"/><path id="Path_18" data-name="Path 18" class="cls-10" d="M7.55,65.21a1.3,1.3,0,1,0,.78,2.48h0l2.92-.91-.79-2.49Z"/><path id="Path_19" data-name="Path 19" class="cls-9" d="M7.62,65.35a1.15,1.15,0,0,0,.69,2.2h0l2.89-.92-.69-2.2Z"/><path id="Path_20" data-name="Path 20" class="cls-10" d="M7.7,65.49a1,1,0,0,0-.65,1.25,1,1,0,0,0,1.25.65l2.85-.9-.6-1.9Z"/><path id="Path_21" data-name="Path 21" class="cls-9" d="M7.77,65.61a.85.85,0,0,0-.56,1.07.87.87,0,0,0,1.08.56l2.82-.89-.51-1.63Z"/><path id="Path_22" data-name="Path 22" class="cls-11" d="M7.84,65.73a.72.72,0,0,0,.43,1.37l2.8-.88-.43-1.37Z"/><path id="Path_23" data-name="Path 23" class="cls-10" d="M14.72,61.8a2.43,2.43,0,0,0,1.4,4.65l.06,0,4.89-1.54-1.46-4.63Z"/><path id="Path_24" data-name="Path 24" class="cls-12" d="M11.49,72.11a.39.39,0,0,0,.22.74h0l1.57-.5-.23-.74Z"/><path id="Path_25" data-name="Path 25" class="cls-12" d="M7.62,59.82a.39.39,0,1,1-.25-.73h0L9,58.58l.24.74Z"/><path id="Path_26" data-name="Path 26" class="cls-12" d="M10.76,69.78a.38.38,0,0,0-.25.48.37.37,0,0,0,.48.25l1.58-.5-.23-.73Z"/><path id="Path_27" data-name="Path 27" class="cls-12" d="M8.35,62.15a.39.39,0,0,1-.25-.73h0l1.58-.5.23.74Z"/><path id="Path_28" data-name="Path 28" class="cls-12" d="M11.09,71.46a.19.19,0,0,0,.11.37L13,71.28l-.11-.37Z"/><path id="Path_29" data-name="Path 29" class="cls-12" d="M7.66,60.58a.19.19,0,0,1-.24-.12.19.19,0,0,1,.12-.25l1.76-.55.12.37Z"/><path id="Path_30" data-name="Path 30" class="cls-12" d="M14,70.26a.19.19,0,0,0-.12.24.2.2,0,0,0,.24.13h0l1.76-.56-.12-.36Z"/><path id="Path_31" data-name="Path 31" class="cls-12" d="M10.7,59.92a.19.19,0,0,1-.25-.12.2.2,0,0,1,.13-.24L12.34,59l.12.37Z"/><path id="Path_32" data-name="Path 32" class="cls-12" d="M10.91,70.89a.19.19,0,0,0-.13.24.18.18,0,0,0,.24.12h0l1.76-.55-.11-.37Z"/><path id="Path_33" data-name="Path 33" class="cls-12" d="M7.84,61.16A.2.2,0,0,1,7.6,61a.19.19,0,0,1,.12-.24l1.76-.55.12.36Z"/><rect id="Rectangle_2" data-name="Rectangle 2" class="cls-13" x="11.19" y="69.35" width="0.05" height="3.95" transform="translate(-20.92 6.67) rotate(-17.49)"/><path id="Path_34" data-name="Path 34" class="cls-12" d="M8.41,62.51,7.22,58.75l0,0L8.46,62.5Z"/><path id="Path_35" data-name="Path 35" class="cls-12" d="M12.36,68.89l1.19,3.77,0,0-1.19-3.76Z"/><path id="Path_36" data-name="Path 36" class="cls-12" d="M10.18,62,9,58.19H9l1.18,3.76Z"/><rect id="Rectangle_3" data-name="Rectangle 3" class="cls-13" x="11.11" y="69.38" width="0.05" height="3.95" transform="translate(-20.93 6.65) rotate(-17.49)"/><rect id="Rectangle_4" data-name="Rectangle 4" class="cls-13" x="7.74" y="58.67" width="0.05" height="3.95" transform="translate(-17.87 5.14) rotate(-17.49)"/><rect id="Rectangle_5" data-name="Rectangle 5" class="cls-13" x="12.88" y="68.82" width="0.05" height="3.95" transform="translate(-20.68 7.15) rotate(-17.49)"/><rect id="Rectangle_6" data-name="Rectangle 6" class="cls-13" x="9.5" y="58.12" width="0.05" height="3.95" transform="translate(-17.62 5.64) rotate(-17.49)"/><rect id="Rectangle_7" data-name="Rectangle 7" class="cls-14" x="10.86" y="61.82" width="0.11" height="7.46" transform="translate(-19.2 6.31) rotate(-17.49)"/><rect id="Rectangle_8" data-name="Rectangle 8" class="cls-14" x="6.82" y="62.91" width="0.09" height="1.47" transform="translate(-18.81 5.01) rotate(-17.49)"/><rect id="Rectangle_9" data-name="Rectangle 9" class="cls-14" x="14.27" y="60.57" width="0.09" height="1.47" transform="translate(-17.76 7.14) rotate(-17.49)"/><rect id="Rectangle_10" data-name="Rectangle 10" class="cls-14" x="8.63" y="68.68" width="0.09" height="1.47" transform="translate(-20.46 5.82) rotate(-17.49)"/><rect id="Rectangle_11" data-name="Rectangle 11" class="cls-14" x="16.08" y="66.33" width="0.09" height="1.47" transform="translate(-19.41 7.95) rotate(-17.49)"/><rect id="Rectangle_12" data-name="Rectangle 12" class="cls-14" x="11.02" y="61.84" width="0.1" height="7.31" transform="translate(-19.18 6.36) rotate(-17.49)"/><rect id="Rectangle_13" data-name="Rectangle 13" class="cls-14" x="6.95" y="62.89" width="0.09" height="1.44" transform="translate(-18.8 5.04) rotate(-17.49)"/><rect id="Rectangle_14" data-name="Rectangle 14" class="cls-14" x="14.41" y="60.54" width="0.09" height="1.44" transform="translate(-17.74 7.18) rotate(-17.49)"/><rect id="Rectangle_15" data-name="Rectangle 15" class="cls-14" x="8.77" y="68.65" width="0.09" height="1.44" transform="translate(-20.44 5.86) rotate(-17.49)"/><rect id="Rectangle_16" data-name="Rectangle 16" class="cls-14" x="16.22" y="66.3" width="0.09" height="1.44" transform="translate(-19.39 7.99) rotate(-17.49)"/><rect id="Rectangle_17" data-name="Rectangle 17" class="cls-15" x="10.96" y="61.79" width="0.06" height="7.46" transform="translate(-19.19 6.34) rotate(-17.49)"/><rect id="Rectangle_18" data-name="Rectangle 18" class="cls-15" x="6.9" y="62.89" width="0.05" height="1.47" transform="translate(-18.81 5.02) rotate(-17.49)"/><rect id="Rectangle_19" data-name="Rectangle 19" class="cls-15" x="14.35" y="60.55" width="0.05" height="1.47" transform="translate(-17.75 7.16) rotate(-17.49)"/><rect id="Rectangle_20" data-name="Rectangle 20" class="cls-15" x="8.72" y="68.66" width="0.05" height="1.47" transform="translate(-20.45 5.84) rotate(-17.49)"/><rect id="Rectangle_21" data-name="Rectangle 21" class="cls-15" x="16.17" y="66.31" width="0.05" height="1.47" transform="translate(-19.4 7.97) rotate(-17.49)"/><rect id="Rectangle_22" data-name="Rectangle 22" class="cls-15" x="11.12" y="61.81" width="0.06" height="7.31" transform="translate(-19.16 6.38) rotate(-17.49)"/><rect id="Rectangle_23" data-name="Rectangle 23" class="cls-15" x="7.04" y="62.86" width="0.05" height="1.44" transform="translate(-18.79 5.06) rotate(-17.49)"/><path id="Path_37" data-name="Path 37" class="cls-10" d="M14.27,60.56l.44,1.37h0l-.43-1.38Z"/><rect id="Rectangle_24" data-name="Rectangle 24" class="cls-15" x="8.86" y="68.63" width="0.05" height="1.44" transform="translate(-20.43 5.88) rotate(-17.49)"/><rect id="Rectangle_25" data-name="Rectangle 25" class="cls-15" x="16.31" y="66.28" width="0.05" height="1.44" transform="translate(-19.38 8.01) rotate(-17.49)"/><path id="Path_38" data-name="Path 38" class="cls-11" d="M11.13,71.54a.11.11,0,0,0-.07.14.12.12,0,0,0,.13.07l1.68-.53L12.8,71Z"/><path id="Path_39" data-name="Path 39" class="cls-11" d="M7.65,60.5a.11.11,0,0,1-.15-.06.12.12,0,0,1,.06-.15h0l1.68-.53.07.21Z"/><path id="Path_40" data-name="Path 40" class="cls-11" d="M14,70.37a.06.06,0,0,0,0,.12h0l1.6-.5,0-.12Z"/><path id="Path_41" data-name="Path 41" class="cls-11" d="M10.69,59.79a.07.07,0,0,1-.07,0,.06.06,0,0,1,0-.08l1.6-.5,0,.12Z"/><path id="Path_42" data-name="Path 42" class="cls-11" d="M10.94,71a.12.12,0,0,0-.06.15.1.1,0,0,0,.13.06l1.68-.52-.07-.22Z"/><path id="Path_43" data-name="Path 43" class="cls-11" d="M7.83,61.08A.12.12,0,0,1,7.68,61a.12.12,0,0,1,.06-.14h0l1.68-.52.06.21Z"/><path id="Path_44" data-name="Path 44" class="cls-10" d="M10.87,61.76l.07.21L10.8,62a.24.24,0,0,0-.15.3.23.23,0,0,0,.29.15l.14,0,.07.21-.14,0a.24.24,0,1,0,.14.45h0l.14,0,.07.21-.14,0a.25.25,0,0,0-.16.29.24.24,0,0,0,.3.16h0l.14,0,.07.21-.14.05a.25.25,0,0,0-.16.29.24.24,0,0,0,.3.16h0l.13,0,.07.21-.14,0a.23.23,0,0,0-.15.29.23.23,0,0,0,.29.16h0l.13,0,.07.21-.14.05a.23.23,0,0,0-.15.29.23.23,0,0,0,.29.16h0l.13,0,.07.21-.13.05a.24.24,0,0,0-.16.3.24.24,0,0,0,.3.15l.14,0,.06.21-.13,0a.24.24,0,0,0-.16.3.25.25,0,0,0,.3.15l.14,0,.06.21-.13,0a.23.23,0,0,0-.16.29.24.24,0,0,0,.3.16h0l.14,0,.07.21-.14,0a.23.23,0,0,0-.16.29.24.24,0,0,0,.3.16h0l.14,0,.07.22-.72.22L10.16,62Z"/><path id="Path_45" data-name="Path 45" class="cls-9" d="M10.81,61.77l.07.22-.14,0a.24.24,0,0,0,.14.45l.14,0,.07.21-.14.05a.23.23,0,0,0-.16.29.24.24,0,0,0,.3.16h0l.14,0,.07.21-.14.05a.23.23,0,0,0-.16.29.24.24,0,0,0,.3.16h0l.14,0,.07.21-.14,0a.23.23,0,0,0-.16.29.24.24,0,0,0,.3.16h0l.14,0,.07.21-.14,0a.24.24,0,0,0-.16.29.24.24,0,0,0,.3.16h0l.14,0,.07.21-.14,0a.24.24,0,0,0-.16.29.24.24,0,0,0,.3.16h0l.13,0,.07.21-.14,0a.24.24,0,0,0,.14.45h0l.13,0,.07.21-.14,0a.24.24,0,0,0,.15.45l.13,0,.07.21-.13.05a.24.24,0,0,0-.16.3.24.24,0,0,0,.3.15l.14,0,.06.21-.13,0a.23.23,0,0,0-.16.29.23.23,0,0,0,.29.16h0l.14,0,.07.22-.72.22L10.09,62Z"/><path id="Path_46" data-name="Path 46" class="cls-9" d="M14.88,62.05a2.14,2.14,0,0,0,1.28,4.09h0l3.3-1L18.17,61Z"/><path id="Path_47" data-name="Path 47" class="cls-10" d="M15,62.31a1.85,1.85,0,0,0,1.11,3.53l3.23-1-1.11-3.53Z"/><path id="Path_48" data-name="Path 48" class="cls-9" d="M15.16,62.54a1.59,1.59,0,0,0,1,3l3.17-1-1-3Z"/><path id="Path_49" data-name="Path 49" class="cls-10" d="M15.18,62.8A1.3,1.3,0,0,0,16,65.29l3.23-1-.78-2.48Z"/><path id="Path_50" data-name="Path 50" class="cls-9" d="M15.25,62.94a1.15,1.15,0,0,0,.69,2.2h0l3.21-1-.69-2.2Z"/><path id="Path_51" data-name="Path 51" class="cls-10" d="M15.33,63.08a1,1,0,1,0,.6,1.9l3.17-1-.6-1.9Z"/><path id="Path_52" data-name="Path 52" class="cls-9" d="M15.4,63.2a.86.86,0,0,0,.52,1.64l3.14-1-.52-1.63Z"/><path id="Path_53" data-name="Path 53" class="cls-11" d="M15.47,63.33a.72.72,0,1,0,.38,1.38l.05,0,3.12-1-.43-1.36Z"/><path id="Path_54" data-name="Path 54" class="cls-12" d="M4.18,36.57,10.76,38l-1.5,3Z"/><path id="Path_55" data-name="Path 55" class="cls-16" d="M4.18,36.57,10.76,38l-1.5,3Z"/><path id="Path_56" data-name="Path 56" class="cls-12" d="M8.76,27.37l6.58,1.39-1.5,3Z"/><path id="Path_57" data-name="Path 57" class="cls-16" d="M8.76,27.37l6.58,1.39-1.5,3Z"/><path id="Path_58" data-name="Path 58" class="cls-12" d="M7.32,44.35l.11.08.12.13c.07.07,0,.25,0,.23a1.06,1.06,0,0,1,.19,0s0,0,.1-.08.44-.07.45-.15,0-.07.14-.13.1,0,.17-.13a3.16,3.16,0,0,0,.16-.43H8.63l0-.14h0a.72.72,0,0,0-.41,0c-.06,0-.23.23-.29.2s0-.13,0-.17,0,0-.08,0ZM5,47.09l-.53,1.55c0,.11-.38-.07-.65-.32s-.46-.51-.38-.56l1.41-.83,1.76-2a.08.08,0,0,1,0,0s0,0,.07,0h0l0,0a.11.11,0,0,1,0-.14l0,0s0,0,0-.1,0-.08.18-.15.11,0,.18-.09a.09.09,0,0,1,.11,0c.27-.3.47-.54.54-.63s0,0,0,0l0-.08-.12,0a2.17,2.17,0,0,1,0-.36s-.06-.1-.11-.1-.17-.06-.2-.31.5-.62.71-.73.59.16.86.25a.26.26,0,0,1,.18.32v0s0,.17.2,0a1,1,0,0,1,.75,0c.23.08,1.25.32,2.09.57s2.15.48,2.15.48v.76l-.41-.06s1.34.58,1.66.77.46-.06.74,0a4,4,0,0,1,1.3.65l.05-.12a4.28,4.28,0,0,0,1.2.37.64.64,0,0,1,.4.2c.05.08-.16.5-.16.5h-.15a.35.35,0,0,0,0,.3c.1.14-.3,1.06-.3,1.06l-.13,0v-.06l-.16,0c-.12,0,0-.16,0-.41a.73.73,0,0,0-.12-.61,5.66,5.66,0,0,0-.9-.32l0-.1-.14,0a6.66,6.66,0,0,0-1.4-.34c-.12.07-.18,0-.55,0s-2-.56-2-.56l-.21.42a10.69,10.69,0,0,1-1.06-.54,7.91,7.91,0,0,0-1.44-.5,5,5,0,0,1-.92-.39l-.1-.06a4.14,4.14,0,0,1-.22.43,2.79,2.79,0,0,1-.68.77c-.28.2-.3.15-.3.15l-.57-.5-.31-.06c-.15,0-.12.09-.23.08H6.8c-.21,0-.2,0-.19-.14s0,0,0-.06,0,0,0-.06C6,45.92,5.32,46.75,5,47.09Z"/><path id="Path_59" data-name="Path 59" class="cls-9" d="M9.62,48.69l.09.05.11.08s0,.19,0,.18S10,49,10,49s0,0,.07-.07.32-.1.32-.16,0-.05.1-.1.07,0,.11-.11a1.47,1.47,0,0,0,.08-.35h-.11v-.1h0a.51.51,0,0,0-.3,0s-.15.2-.2.17,0-.1-.06-.12,0,0-.05,0S9.75,48.47,9.62,48.69ZM8.15,51l-.26,1.21c0,.08-.28,0-.51-.18s-.39-.34-.33-.39l1-.74L9.16,49.2v0s0,0,.05,0h0l0,0a.07.07,0,0,1,0-.1s0,0,0,0,0,0,0-.08,0,0,.12-.12.08,0,.13-.09a.08.08,0,0,1,.08,0l.34-.52h0l0-.06H9.73a1.24,1.24,0,0,1,0-.27s0-.06-.09-.06-.13,0-.17-.22.32-.5.46-.61.45.07.66.11a.2.2,0,0,1,.16.23v0s0,.12.15,0a.69.69,0,0,1,.56-.06c.18,0,1,.13,1.61.24s1.65.16,1.65.16l.06.57h-.31s1.05.31,1.3.43.34-.09.55-.07a2.94,2.94,0,0,1,1,.37l0-.09a3.25,3.25,0,0,0,.92.17.42.42,0,0,1,.32.11c.05,0-.08.39-.08.39H18.4a.29.29,0,0,0,0,.22c.09.09-.13.82-.13.82l-.1,0v0h-.12c-.09,0,0-.12,0-.31a.56.56,0,0,0-.14-.45,5.73,5.73,0,0,0-.69-.16v-.08h-.1a5.59,5.59,0,0,0-1.08-.13c-.08.07-.13,0-.41,0s-1.57-.24-1.57-.24l-.12.34s-.61-.2-.84-.31A6,6,0,0,0,12,48.9a3,3,0,0,1-.72-.21l-.08,0-.13.34a1.88,1.88,0,0,1-.44.64c-.19.18-.21.14-.21.14L10,49.45H9.71c-.11,0-.07.07-.16.08l-.22,0c-.15,0-.16,0-.15-.09a.07.07,0,0,1,0-.05.43.43,0,0,1,0,0C8.79,50,8.35,50.67,8.15,51Z"/><rect id="Rectangle_26" data-name="Rectangle 26" class="cls-17" x="13.81" y="36.81" width="2.96" height="10.43" transform="translate(-29.15 37.02) rotate(-63.59)"/><rect id="Rectangle_27" data-name="Rectangle 27" class="cls-17" x="18.46" y="27.56" width="2.96" height="10.59" transform="translate(-18.36 36.1) rotate(-63.59)"/><path id="Path_60" data-name="Path 60" class="cls-9" d="M10.38,37.08l-.34.7.61.31-.22.44-.61-.31-.35.7.62.31-.22.44-.62-.3-.34.7.61.3-.22.44-.61-.31-.35.7,1,.49.25.13,2-4.12Z"/><path id="Path_61" data-name="Path 61" class="cls-9" d="M15,27.88l-.35.7.62.31-.22.44L14.39,29l-.35.7.62.31-.22.44-.61-.31-.35.7.62.31-.22.44-.62-.31-.35.7,1,.49.26.12,2-4.11Z"/><rect id="Rectangle_28" data-name="Rectangle 28" class="cls-15" x="8.22" y="39.62" width="4.6" height="0.17" transform="translate(-29.73 31.47) rotate(-63.59)"/><rect id="Rectangle_29" data-name="Rectangle 29" class="cls-15" x="12.8" y="30.42" width="4.6" height="0.17" transform="translate(-18.95 30.46) rotate(-63.59)"/><path id="Path_62" data-name="Path 62" class="cls-11" d="M12.93,41a.16.16,0,1,1,.14-.28l2.24,1.11-.14.29Z"/><path id="Path_63" data-name="Path 63" class="cls-11" d="M17.51,31.83a.15.15,0,0,1-.06-.22.16.16,0,0,1,.2-.07l2.24,1.12-.14.29Z"/><path id="Path_64" data-name="Path 64" class="cls-11" d="M16.87,43.07a.23.23,0,0,1-.11-.31.24.24,0,0,1,.32-.11l.7.36-.2.42Z"/><path id="Path_65" data-name="Path 65" class="cls-11" d="M21.44,33.87a.24.24,0,0,1,.21-.42l.71.35-.21.43Z"/><path id="Path_66" data-name="Path 66" class="cls-10" d="M23.69,36.38l-3.26,6.55-8-4,.46-.93-.5-.25.21-.43.5.25.32-.64-.5-.25.21-.42.5.25.32-.65-.5-.24.21-.43.5.25.32-.64-.5-.25.21-.43.5.25.32-.64-.5-.25.21-.42.5.24.47-.93Z"/><path id="Path_67" data-name="Path 67" class="cls-9" d="M13,35.15l.8-.14-.43.86Z"/><path id="Path_68" data-name="Path 68" class="cls-9" d="M11.94,37.28l.8-.14-.43.86Z"/><path id="Path_69" data-name="Path 69" class="cls-9" d="M13.53,34.08l.8-.13-.43.86Z"/><path id="Path_70" data-name="Path 70" class="cls-9" d="M12.47,36.22l.8-.14-.43.86Z"/><path id="Path_71" data-name="Path 71" class="cls-9" d="M14.06,33l.8-.14-.43.86Z"/><path id="Path_72" data-name="Path 72" class="cls-10" d="M18.2,37.71a4.76,4.76,0,0,1,5-.46l0,0L20.89,42l0,0A4.75,4.75,0,0,1,18.2,37.71Z"/><path id="Path_73" data-name="Path 73" class="cls-18" d="M18.44,37.83a4.54,4.54,0,0,1,4.62-.3l.05,0L21,41.72l0,0A4.57,4.57,0,0,1,18.44,37.83Z"/><path id="Path_74" data-name="Path 74" class="cls-11" d="M18.84,38a3.82,3.82,0,0,1,3.8-.2l.26.13L21.24,41.3,21,41.17A3.83,3.83,0,0,1,18.84,38Z"/><rect id="Rectangle_30" data-name="Rectangle 30" class="cls-19" x="16.1" y="39.28" width="0.41" height="0.33" transform="translate(-26.28 36.49) rotate(-63.58)"/><rect id="Rectangle_31" data-name="Rectangle 31" class="cls-19" x="17.16" y="37.14" width="0.41" height="0.33" transform="translate(-23.77 36.27) rotate(-63.59)"/><rect id="Rectangle_32" data-name="Rectangle 32" class="cls-19" x="16.63" y="38.21" width="0.41" height="0.33" transform="translate(-25.03 36.38) rotate(-63.59)"/><rect id="Rectangle_33" data-name="Rectangle 33" class="cls-19" x="17.69" y="36.08" width="0.41" height="0.33" transform="translate(-22.52 36.14) rotate(-63.58)"/><rect id="Rectangle_34" data-name="Rectangle 34" class="cls-19" x="18.22" y="35.02" width="0.41" height="0.33" transform="translate(-21.28 36.03) rotate(-63.59)"/><rect id="Rectangle_35" data-name="Rectangle 35" class="cls-17" x="16" y="39.29" width="0.41" height="0.22" transform="translate(-26.29 36.38) rotate(-63.59)"/><rect id="Rectangle_36" data-name="Rectangle 36" class="cls-17" x="17.06" y="37.15" width="0.41" height="0.22" transform="translate(-23.79 36.15) rotate(-63.59)"/><rect id="Rectangle_37" data-name="Rectangle 37" class="cls-17" x="16.53" y="38.22" width="0.41" height="0.22" transform="translate(-25.04 36.27) rotate(-63.59)"/><rect id="Rectangle_38" data-name="Rectangle 38" class="cls-17" x="17.59" y="36.08" width="0.41" height="0.22" transform="translate(-22.54 36.02) rotate(-63.58)"/><rect id="Rectangle_39" data-name="Rectangle 39" class="cls-17" x="18.12" y="35.02" width="0.41" height="0.22" transform="translate(-21.29 35.92) rotate(-63.59)"/><rect id="Rectangle_40" data-name="Rectangle 40" class="cls-20" x="13.94" y="35.69" width="4.12" height="1.88" transform="translate(-23.93 34.66) rotate(-63.59)"/><path id="Path_75" data-name="Path 75" class="cls-21" d="M16.76,37.06l-1.69-.84A5.32,5.32,0,0,0,14.2,38s1.68.84,1.68.83a6.34,6.34,0,0,1,.88-1.74"/><path id="Path_76" data-name="Path 76" class="cls-21" d="M16.8,37l-1.69-.84A5.29,5.29,0,0,1,16,34.4s1.69.83,1.68.84A5.8,5.8,0,0,0,16.8,37"/><path id="Path_77" data-name="Path 77" class="cls-22" d="M27.25,4.68a.1.1,0,0,1-.11-.1.15.15,0,0,1,0-.09l-.13-.38-.2.07,0,.12a.11.11,0,0,1,.1.07.11.11,0,0,1,0,.11l.12.37.2-.07Zm.18-.36a.11.11,0,0,1-.1-.07.11.11,0,0,1,0-.11l0-.13-.2.07.14.39a.09.09,0,0,1,.09.06.13.13,0,0,1,0,.12l0,.1.2-.07Zm.36.17a.1.1,0,0,1-.09-.07.08.08,0,0,1,0-.11l-.13-.38L27.4,4l0,.12a.1.1,0,0,1,.09.07.11.11,0,0,1,0,.11l.13.37.2-.07ZM28,4.13a.1.1,0,0,1-.09-.07.08.08,0,0,1,0-.11l0-.12-.2.07.13.38a.11.11,0,0,1,.06.19l0,.1.2-.07Zm.36.17a.09.09,0,0,1-.1-.09.08.08,0,0,1,0-.09l-.13-.38-.2.07,0,.11a.1.1,0,0,1,.1.1.09.09,0,0,1,0,.09l.13.37.2-.07Zm.18-.36a.1.1,0,0,1-.1-.06.11.11,0,0,1,0-.12l0-.11-.2.07.13.38a.1.1,0,0,1,.1.1.09.09,0,0,1,0,.08l0,.1.2-.06Zm.37.18a.11.11,0,0,1-.09-.07.09.09,0,0,1,0-.11l-.13-.39-.2.07,0,.12a.1.1,0,0,1,.1.1.12.12,0,0,1,0,.08l.13.37.2-.07Zm.18-.36A.11.11,0,0,1,29,3.69a.09.09,0,0,1,0-.11l0-.12-.2.07.13.38A.11.11,0,0,1,29,4a.11.11,0,0,1,0,.11l0,.1.2-.07Zm.36.17a.1.1,0,0,1-.09-.07.11.11,0,0,1,0-.11l-.13-.38-.2.07,0,.11a.12.12,0,0,1,.1.07.09.09,0,0,1,0,.11l.13.37.2-.06Zm.18-.36a.1.1,0,0,1-.1-.1.09.09,0,0,1,0-.08l0-.12-.2.07.13.38a.1.1,0,0,1,.1.07.11.11,0,0,1,0,.12l0,.1.2-.07Zm.37.17a.1.1,0,0,1-.11-.09.13.13,0,0,1,0-.09l-.13-.38-.2.07,0,.11a.1.1,0,0,1,.1.07.11.11,0,0,1,0,.12l.13.37.2-.07Zm.18-.36A.1.1,0,0,1,30,3.29a.13.13,0,0,1,0-.09l0-.11-.19.07.13.38a.09.09,0,0,1,.09.07.09.09,0,0,1,0,.11l0,.1.2-.07Zm.36.18a.1.1,0,0,1-.09-.07.08.08,0,0,1,0-.11L30.32,3l-.2.07,0,.12a.09.09,0,0,1,.09.07.09.09,0,0,1,0,.11l.13.37.2-.07Zm.18-.36A.11.11,0,0,1,30.63,3l0-.11-.2.07.13.38a.09.09,0,0,1,.1.09.1.1,0,0,1,0,.09l0,.1.2-.07Zm.36.17s-.08,0-.1-.07a.1.1,0,0,1,0-.11l-.13-.38-.2.07,0,.11a.1.1,0,0,1,.1.1.09.09,0,0,1,0,.09l.13.37.2-.07ZM27.51,0a.11.11,0,0,1,.14,0,.1.1,0,0,1,0,.14h0l1.12,3.26,2.18-.74v0l.14.42a.09.09,0,0,1,.1.1.09.09,0,0,1,0,.08l.05.14v0h0L26.8,5h0l0,0,0-.14a.11.11,0,0,1-.1-.07.11.11,0,0,1,0-.11l-.14-.42v0l2.17-.74L27.54.21a.1.1,0,0,1-.09-.07A.1.1,0,0,1,27.51,0Zm-.7,4.93.2-.07-.13-.37a.1.1,0,0,1-.09-.07.11.11,0,0,1,0-.11l0-.12-.2.07.13.38a.12.12,0,0,1,.1.07.1.1,0,0,1,0,.11Z"/><rect id="Rectangle_41" data-name="Rectangle 41" class="cls-23" x="30.69" y="12.59" width="4.91" height="7.66" transform="translate(-3.54 11.66) rotate(-18.96)"/><rect id="Rectangle_42" data-name="Rectangle 42" class="cls-23" x="28.31" y="4.09" width="4.27" height="8.96" transform="translate(-1.13 10.36) rotate(-18.96)"/><path id="Path_78" data-name="Path 78" class="cls-24" d="M29.23,9.64l2.81-1c.23-.08.26-.72.12-1.69l-4,1.4C28.59,9.24,29,9.72,29.23,9.64Z"/><path id="Path_79" data-name="Path 79" class="cls-25" d="M30.2,7.84h0a1.15,1.15,0,0,1,1.46.73l1,2.92-2.18.75-1-2.92A1.17,1.17,0,0,1,30.2,7.84Z"/><path id="Path_80" data-name="Path 80" class="cls-11" d="M30.32,8.2h0a.82.82,0,0,1,1,.51l.87,2.54-1.54.52-.86-2.53a.81.81,0,0,1,.5-1"/><rect id="Rectangle_43" data-name="Rectangle 43" class="cls-23" x="29.34" y="11.47" width="4.67" height="1.37" transform="translate(-2.23 10.95) rotate(-18.96)"/><path id="Path_81" data-name="Path 81" class="cls-26" d="M31.53,17l3.2-1.1c.26-.09.07-1.46-.44-3.6l-4.62,1.59C30.58,15.89,31.27,17.09,31.53,17Z"/><path id="Path_82" data-name="Path 82" class="cls-25" d="M29.65,13.9l4.69-1.61a.3.3,0,0,0,.17-.4.29.29,0,0,0-.37-.18l-4.69,1.61a.3.3,0,0,0-.17.39.31.31,0,0,0,.37.19"/><path id="Path_83" data-name="Path 83" class="cls-27" d="M34.43,11.76a.28.28,0,0,0-.29,0l-4.69,1.61a.3.3,0,0,0-.2.21Z"/><rect id="Rectangle_44" data-name="Rectangle 44" class="cls-28" x="31.32" y="13.4" width="3.9" height="6.83" transform="translate(-3.66 11.72) rotate(-18.96)"/><rect id="Rectangle_45" data-name="Rectangle 45" class="cls-23" x="31.58" y="13.53" width="3.43" height="6.7" transform="translate(-3.68 11.73) rotate(-18.96)"/><path id="Path_84" data-name="Path 84" class="cls-11" d="M32.61,14.88a.81.81,0,0,0,.5-1h0l-1.53.53h0a.8.8,0,0,0,1,.51"/><path id="Path_85" data-name="Path 85" class="cls-25" d="M26.79,5.55l4.68-1.61a.31.31,0,0,0,.18-.4.33.33,0,0,0-.38-.18L26.59,5a.31.31,0,0,0-.18.4.31.31,0,0,0,.38.18"/><path id="Path_86" data-name="Path 86" class="cls-25" d="M28.85,3.92a2,2,0,1,1-1.22,2.55v0a2,2,0,0,1,1.22-2.53h0"/><path id="Path_87" data-name="Path 87" class="cls-27" d="M32,6.42h0A.87.87,0,0,0,30.87,6l-.08,0a1.3,1.3,0,0,1-1.44,1.14,1.34,1.34,0,0,1-.77-.38l-.11,0a.84.84,0,0,0-.55,1Z"/><path id="Path_88" data-name="Path 88" class="cls-26" d="M28.26,6.67l.15,0a1.36,1.36,0,0,0,2.46-.84l.13,0c.21-.07.24-.72.1-1.66l-1.19.41A1.35,1.35,0,0,0,28.37,5l-1.21.42C27.63,6.25,28,6.75,28.26,6.67Z"/><path id="Path_89" data-name="Path 89" class="cls-29" d="M29.16,4.81a1.05,1.05,0,1,1-.65,1.34h0A1.05,1.05,0,0,1,29.16,4.81Z"/><path id="Path_90" data-name="Path 90" class="cls-30" d="M29.48,5h-.41v.11h-.3v.25h0v0h1.48V5.67h-.77Zm0-.41h.87v0h.06V5h0V5h0v0h0v0h0v0h0v0h0v0h0v0h0v0h0v0h0v0h0v0h0v0h0v0h0v0h0v0h0v0h0v0h0v0h0v.28h0v0h0v0h0V6h0V6h0V6h0v0h0v0h0v0h0v0h0v0h0v0h0v0h0v0h0v0h0v0h0v0h0v0h-.08l0,0H28.64v0h-.07v0h0v0h0v0h0v0h0v0l0,.06h0v0h0v0h0v0h0v0h0v0h0v0h0v0h0v0h0v0h0v0h0v0h0V6h0V6h0V6h0v-.3h0v0h0v0h0v0h0v0h0v0h0v0h0v0h0v0h0v0h0v0h0v0h0v0h0v0h0v0h0v0h.05V5h.93Z"/><rect id="Rectangle_46" data-name="Rectangle 46" class="cls-22" x="32.89" y="15.87" width="0.44" height="0.95" transform="translate(-3.51 11.65) rotate(-18.96)"/><rect id="Rectangle_47" data-name="Rectangle 47" class="cls-22" x="34.01" y="19.12" width="0.44" height="0.95" transform="translate(-4.51 12.17) rotate(-18.94)"/><rect id="Rectangle_48" data-name="Rectangle 48" class="cls-22" x="33.45" y="17.49" width="0.44" height="0.95" transform="translate(-4.01 11.91) rotate(-18.96)"/><rect id="Rectangle_49" data-name="Rectangle 49" class="cls-31" x="29.15" y="11.51" width="4.67" height="0.16" transform="translate(-2.06 10.86) rotate(-18.96)"/><rect id="Rectangle_50" data-name="Rectangle 50" class="cls-31" x="30.5" y="13.71" width="3.43" height="0.07" transform="translate(-2.72 11.21) rotate(-18.96)"/><path id="Path_91" data-name="Path 91" class="cls-32" d="M29.21,7.37a.7.7,0,0,1-.7-.19l-.06,0a.46.46,0,0,0-.29.56l1.07-.36Z"/><path id="Path_92" data-name="Path 92" class="cls-32" d="M30.68,6.86a.7.7,0,0,0,.44-.58l.06,0a.45.45,0,0,1,.57.27l-1.06.36Z"/><path id="Path_93" data-name="Path 93" class="cls-25" d="M27.79,8.5l4.68-1.61a.31.31,0,0,0-.2-.59L27.59,7.91a.31.31,0,0,0,.2.59"/><path id="Path_94" data-name="Path 94" class="cls-27" d="M32.56,6.36a.28.28,0,0,0-.29-.05L27.58,7.92a.3.3,0,0,0-.2.22Z"/><path id="Path_95" data-name="Path 95" class="cls-33" d="M31.57,3.41a.33.33,0,0,0-.29-.05l-1.43.49A2,2,0,0,0,28,4.48L26.59,5a.3.3,0,0,0-.2.22l1.73-.59A1.8,1.8,0,0,1,29.84,4Z"/><path id="Path_96" data-name="Path 96" class="cls-30" d="M29.45,5.68a.14.14,0,0,1,.1.26.15.15,0,0,1-.18-.08h0a.13.13,0,0,1,.08-.17"/><path id="Path_97" data-name="Path 97" class="cls-34" d="M29.45,5.68a.14.14,0,0,1,.1.26.15.15,0,0,1-.18-.08h0a.13.13,0,0,1,.08-.17"/><path id="Path_98" data-name="Path 98" class="cls-30" d="M29.23,5h0a.06.06,0,0,1,.07,0h0l.22.64a.07.07,0,0,1,0,.08.06.06,0,0,1-.08,0h0l-.22-.64a.07.07,0,0,1,0-.08"/><path id="Path_99" data-name="Path 99" class="cls-34" d="M29.23,5h0a.06.06,0,0,1,.07,0h0l.22.64a.07.07,0,0,1,0,.08.06.06,0,0,1-.08,0h0l-.22-.64a.07.07,0,0,1,0-.08"/><path id="Path_100" data-name="Path 100" class="cls-30" d="M30,5.63h0a0,0,0,0,1,0,.07h0l-.39.14a.07.07,0,0,1-.08,0h0a.07.07,0,0,1,0-.08h0l.39-.13a.05.05,0,0,1,.07,0"/><path id="Path_101" data-name="Path 101" class="cls-34" d="M30,5.63h0a0,0,0,0,1,0,.07h0l-.39.14a.07.07,0,0,1-.08,0h0a.07.07,0,0,1,0-.08h0l.39-.13a.05.05,0,0,1,.07,0"/><rect id="Rectangle_51" data-name="Rectangle 51" class="cls-20" x="43.68" y="18.59" width="4.19" height="1.76" transform="translate(-3.84 15.93) rotate(-18.96)"/><rect id="Rectangle_52" data-name="Rectangle 52" class="cls-35" x="43.94" y="19.2" width="0.15" height="1.75" transform="translate(-4.13 15.38) rotate(-18.95)"/><rect id="Rectangle_53" data-name="Rectangle 53" class="cls-35" x="44.22" y="19.1" width="0.15" height="1.75" transform="translate(-4.09 15.49) rotate(-18.97)"/><rect id="Rectangle_54" data-name="Rectangle 54" class="cls-35" x="44.5" y="19.01" width="0.15" height="1.75" transform="translate(-4.04 15.53) rotate(-18.92)"/><rect id="Rectangle_55" data-name="Rectangle 55" class="cls-35" x="44.79" y="18.91" width="0.15" height="1.75" transform="translate(-3.99 15.64) rotate(-18.95)"/><rect id="Rectangle_56" data-name="Rectangle 56" class="cls-35" x="45.07" y="18.81" width="0.15" height="1.75" transform="translate(-3.95 15.74) rotate(-18.96)"/><rect id="Rectangle_57" data-name="Rectangle 57" class="cls-35" x="45.35" y="18.71" width="0.15" height="1.75" transform="translate(-3.9 15.83) rotate(-18.97)"/><rect id="Rectangle_58" data-name="Rectangle 58" class="cls-35" x="43.98" y="20.3" width="4.19" height="0.11" transform="translate(-4.11 16.08) rotate(-18.96)"/><rect id="Rectangle_59" data-name="Rectangle 59" class="cls-35" x="45.63" y="18.62" width="0.15" height="1.75" transform="translate(-3.85 15.9) rotate(-18.95)"/><rect id="Rectangle_60" data-name="Rectangle 60" class="cls-35" x="45.92" y="18.52" width="0.15" height="1.75" transform="translate(-3.8 15.96) rotate(-18.92)"/><rect id="Rectangle_61" data-name="Rectangle 61" class="cls-35" x="46.2" y="18.42" width="0.15" height="1.75" transform="translate(-3.76 16.09) rotate(-18.97)"/><rect id="Rectangle_62" data-name="Rectangle 62" class="cls-35" x="46.48" y="18.33" width="0.15" height="1.75" transform="translate(-3.71 16.16) rotate(-18.95)"/><rect id="Rectangle_63" data-name="Rectangle 63" class="cls-35" x="46.76" y="18.23" width="0.15" height="1.75" transform="matrix(0.95, -0.32, 0.32, 0.95, -3.67, 16.25)"/><rect id="Rectangle_64" data-name="Rectangle 64" class="cls-35" x="47.04" y="18.13" width="0.15" height="1.75" transform="translate(-3.62 16.35) rotate(-18.97)"/><rect id="Rectangle_65" data-name="Rectangle 65" class="cls-35" x="47.33" y="18.04" width="0.15" height="1.75" transform="translate(-3.57 16.39) rotate(-18.92)"/><rect id="Rectangle_66" data-name="Rectangle 66" class="cls-35" x="47.61" y="17.94" width="0.15" height="1.75" transform="translate(-3.53 16.51) rotate(-18.96)"/><path id="Path_102" data-name="Path 102" class="cls-10" d="M44.11,21.08l4-1.36,1.32,3.84-4.32.32Z"/><rect id="Rectangle_67" data-name="Rectangle 67" class="cls-20" x="27.79" y="24.05" width="4.19" height="1.76" transform="translate(-6.48 11.06) rotate(-18.96)"/><rect id="Rectangle_68" data-name="Rectangle 68" class="cls-35" x="28.05" y="24.66" width="0.15" height="1.75" transform="translate(-6.77 10.52) rotate(-18.96)"/><rect id="Rectangle_69" data-name="Rectangle 69" class="cls-35" x="28.33" y="24.56" width="0.15" height="1.75" transform="translate(-6.71 10.58) rotate(-18.92)"/><rect id="Rectangle_70" data-name="Rectangle 70" class="cls-35" x="28.61" y="24.46" width="0.15" height="1.75" transform="translate(-6.68 10.7) rotate(-18.97)"/><rect id="Rectangle_71" data-name="Rectangle 71" class="cls-35" x="28.89" y="24.37" width="0.15" height="1.75" transform="translate(-6.62 10.75) rotate(-18.92)"/><rect id="Rectangle_72" data-name="Rectangle 72" class="cls-35" x="29.18" y="24.27" width="0.15" height="1.75" transform="matrix(0.95, -0.32, 0.32, 0.95, -6.58, 10.87)"/><rect id="Rectangle_73" data-name="Rectangle 73" class="cls-35" x="29.46" y="24.17" width="0.15" height="1.75" transform="translate(-6.54 10.96) rotate(-18.97)"/><rect id="Rectangle_74" data-name="Rectangle 74" class="cls-35" x="28.09" y="25.75" width="4.19" height="0.11" transform="translate(-6.75 11.21) rotate(-18.96)"/><rect id="Rectangle_75" data-name="Rectangle 75" class="cls-35" x="29.74" y="24.07" width="0.15" height="1.75" transform="translate(-6.48 11.01) rotate(-18.91)"/><rect id="Rectangle_76" data-name="Rectangle 76" class="cls-35" x="30.02" y="23.98" width="0.15" height="1.75" transform="translate(-6.44 11.13) rotate(-18.96)"/><rect id="Rectangle_77" data-name="Rectangle 77" class="cls-35" x="30.3" y="23.88" width="0.15" height="1.75" transform="translate(-6.39 11.19) rotate(-18.93)"/><rect id="Rectangle_78" data-name="Rectangle 78" class="cls-35" x="30.59" y="23.78" width="0.15" height="1.75" transform="matrix(0.95, -0.32, 0.32, 0.95, -6.35, 11.3)"/><rect id="Rectangle_79" data-name="Rectangle 79" class="cls-35" x="30.87" y="23.69" width="0.15" height="1.75" transform="matrix(0.95, -0.32, 0.32, 0.95, -6.3, 11.39)"/><rect id="Rectangle_80" data-name="Rectangle 80" class="cls-35" x="31.15" y="23.59" width="0.15" height="1.75" transform="translate(-6.25 11.45) rotate(-18.92)"/><rect id="Rectangle_81" data-name="Rectangle 81" class="cls-35" x="31.43" y="23.49" width="0.15" height="1.75" transform="translate(-6.21 11.57) rotate(-18.97)"/><rect id="Rectangle_82" data-name="Rectangle 82" class="cls-15" x="28.68" y="25.76" width="4.19" height="3.51" transform="translate(-7.27 11.49) rotate(-18.96)"/><rect id="Rectangle_83" data-name="Rectangle 83" class="cls-36" x="31.3" y="26.49" width="0.62" height="0.87" transform="translate(-7.03 11.73) rotate(-18.96)"/><rect id="Rectangle_84" data-name="Rectangle 84" class="cls-22" x="31.33" y="26.63" width="0.2" height="0.32" transform="translate(-7 11.65) rotate(-18.94)"/><rect id="Rectangle_85" data-name="Rectangle 85" class="cls-22" x="31.57" y="26.55" width="0.2" height="0.32" transform="translate(-6.96 11.75) rotate(-18.97)"/><rect id="Rectangle_86" data-name="Rectangle 86" class="cls-22" x="31.44" y="26.98" width="0.2" height="0.32" transform="translate(-7.1 11.72) rotate(-18.96)"/><rect id="Rectangle_87" data-name="Rectangle 87" class="cls-22" x="31.69" y="26.89" width="0.2" height="0.32" transform="translate(-7.07 11.8) rotate(-18.97)"/><rect id="Rectangle_88" data-name="Rectangle 88" class="cls-37" x="31.15" y="26.47" width="0.62" height="0.04" transform="translate(-6.9 11.66) rotate(-18.96)"/><rect id="Rectangle_89" data-name="Rectangle 89" class="cls-36" x="29.56" y="27.09" width="0.62" height="0.87" transform="translate(-7.32 11.2) rotate(-18.96)"/><rect id="Rectangle_90" data-name="Rectangle 90" class="cls-22" x="29.59" y="27.23" width="0.2" height="0.32" transform="translate(-7.29 11.14) rotate(-18.97)"/><rect id="Rectangle_91" data-name="Rectangle 91" class="cls-22" x="29.83" y="27.15" width="0.2" height="0.32" transform="translate(-7.24 11.19) rotate(-18.93)"/><rect id="Rectangle_92" data-name="Rectangle 92" class="cls-22" x="29.71" y="27.57" width="0.2" height="0.32" transform="translate(-7.39 11.18) rotate(-18.94)"/><rect id="Rectangle_93" data-name="Rectangle 93" class="cls-22" x="29.95" y="27.49" width="0.2" height="0.32" transform="translate(-7.34 11.24) rotate(-18.93)"/><rect id="Rectangle_94" data-name="Rectangle 94" class="cls-37" x="29.42" y="27.07" width="0.62" height="0.04" transform="translate(-7.19 11.13) rotate(-18.96)"/><rect id="Rectangle_95" data-name="Rectangle 95" class="cls-36" x="46.95" y="20.58" width="0.62" height="0.87" transform="translate(-4.26 16.49) rotate(-18.95)"/><rect id="Rectangle_96" data-name="Rectangle 96" class="cls-22" x="46.99" y="20.73" width="0.2" height="0.32" transform="translate(-4.23 16.43) rotate(-18.96)"/><rect id="Rectangle_97" data-name="Rectangle 97" class="cls-22" x="47.22" y="20.65" width="0.2" height="0.32" transform="translate(-4.19 16.51) rotate(-18.97)"/><rect id="Rectangle_98" data-name="Rectangle 98" class="cls-22" x="47.1" y="21.07" width="0.2" height="0.32" transform="translate(-4.34 16.49) rotate(-18.96)"/><rect id="Rectangle_99" data-name="Rectangle 99" class="cls-22" x="47.34" y="20.99" width="0.2" height="0.32" transform="translate(-4.3 16.54) rotate(-18.94)"/><rect id="Rectangle_100" data-name="Rectangle 100" class="cls-37" x="46.81" y="20.57" width="0.62" height="0.04" transform="translate(-4.13 16.42) rotate(-18.95)"/><rect id="Rectangle_101" data-name="Rectangle 101" class="cls-36" x="45.22" y="21.18" width="0.62" height="0.87" transform="translate(-4.55 15.96) rotate(-18.96)"/><rect id="Rectangle_102" data-name="Rectangle 102" class="cls-22" x="45.25" y="21.33" width="0.2" height="0.32" transform="translate(-4.52 15.88) rotate(-18.94)"/><rect id="Rectangle_103" data-name="Rectangle 103" class="cls-22" x="45.49" y="21.24" width="0.2" height="0.32" transform="translate(-4.48 15.98) rotate(-18.97)"/><rect id="Rectangle_104" data-name="Rectangle 104" class="cls-22" x="45.37" y="21.67" width="0.2" height="0.32" transform="translate(-4.63 15.97) rotate(-18.97)"/><rect id="Rectangle_105" data-name="Rectangle 105" class="cls-22" x="45.6" y="21.59" width="0.2" height="0.32" transform="translate(-4.59 16.04) rotate(-18.97)"/><rect id="Rectangle_106" data-name="Rectangle 106" class="cls-37" x="45.07" y="21.16" width="0.62" height="0.04" transform="translate(-4.42 15.89) rotate(-18.96)"/><path id="Path_103" data-name="Path 103" class="cls-38" d="M38.89,82.24c-.74.05-.84-.2-1.43.84a11.07,11.07,0,0,0-.91,2.63c.46,1.36-2.78,1.08-.64-.3a18.55,18.55,0,0,0,.84-3.11c0-.55-.77-1-.77-1Z"/><path id="Path_104" data-name="Path 104" class="cls-39" d="M34,90,33,86.2c-.9-3.38,7.93-.3,5.21,1.78l-3.09,2.37a.65.65,0,0,1-.91,0A.66.66,0,0,1,34,90"/><path id="Path_105" data-name="Path 105" class="cls-39" d="M33.62,91.82,33,89.3c-.6-2.23,5.25-.2,3.45,1.18l-2,1.57a.43.43,0,0,1-.6,0,.47.47,0,0,1-.13-.24"/><path id="Path_106" data-name="Path 106" class="cls-39" d="M33.32,93.17l-.4-1.51c-.36-1.34,3.15-.12,2.07.71l-1.23.94a.25.25,0,0,1-.36,0,.26.26,0,0,1-.07-.15"/><path id="Path_107" data-name="Path 107" class="cls-38" d="M30.88,78.29c-.66-.32-.95-.33-1.31,0-.89.8-2.2,2.29-2.2,2.29L27,80.21a18.38,18.38,0,0,0,1.85-2.61,1.76,1.76,0,0,0-.36-1.23Z"/><path id="Path_108" data-name="Path 108" class="cls-39" d="M21.64,86.39,24,80c1.26-3.21,7.18,1.55,4.25,3.45l-5.74,3.69a.64.64,0,0,1-.9-.72"/><path id="Path_109" data-name="Path 109" class="cls-8" d="M46.49,83.24a.64.64,0,0,0-.54.62c-.12.89-.25,3-.25,3l-.25-.06s.11-2.61,0-3a1,1,0,0,0-.51-.58Z"/><path id="Path_110" data-name="Path 110" class="cls-8" d="M45.68,85.72l.64.29.07.28c-.25.49-.23.48,0,.06l.17.7-.09-.55.29.13-.3-.2L46.4,86l.83.37-1.49-.84Z"/><path id="Path_111" data-name="Path 111" class="cls-8" d="M45.59,86.07l-.44.23-.06.28c.12.5.11.49,0,0l-.17.69.1-.54-.2.11.21-.18.08-.38-.57.31,1-.73Z"/><path id="Path_112" data-name="Path 112" class="cls-8" d="M44.57,89.19c-1.06,0-1.89-.69-1.85-1.43s.92-1.3,2-1.25,1.89.69,1.86,1.43-.92,1.3-2,1.25"/><path id="Path_113" data-name="Path 113" class="cls-8" d="M46.8,88.1c-.68,0-1.21-.46-1.19-.95s.59-.86,1.27-.83,1.21.46,1.19.94-.59.87-1.27.84"/><path id="Path_114" data-name="Path 114" class="cls-8" d="M46.2,88.68c-.57,0-1-.37-1-.76s.5-.7,1.07-.67,1,.36,1,.76-.5.7-1.07.67"/><path id="Path_115" data-name="Path 115" class="cls-38" d="M40.78,89.26a6.43,6.43,0,0,0-.32,2.09c.23.22,0,0,0-.13a8.19,8.19,0,0,1,.4-1.71,5.73,5.73,0,0,1,.47.63,7.28,7.28,0,0,1,.44,1v0h0a4.08,4.08,0,0,0-.34-1c-.18-.38-.48-.7-.52-.87a17.5,17.5,0,0,1,.2-2.8,2.83,2.83,0,0,0,.32-.45,2.77,2.77,0,0,1,.06.81c0,.24,0,.19,0,.19l.07-.17s-.05-.72-.06-1a4.27,4.27,0,0,0,.27-.63s.1.26.22.6a7.07,7.07,0,0,0-.2.71c0,.09,0,.06,0,.06a4.83,4.83,0,0,1,.22-.64,8.73,8.73,0,0,1,.28,1c0,.31,0,.81,0,1.35-.1.07-.32.24-.32.34s0,0,0,0,.2-.2.28-.26h0c0,1.24,0,2.64,0,2.64s.06.23.06.12c0-.75,0-1.47,0-2.26a3.66,3.66,0,0,1,0-.57l.26.42c0-.15-.27-.43-.21-.65A5.34,5.34,0,0,0,42.73,87c0-.15-.38-1.43-.5-2.27a4.9,4.9,0,0,1,.33-2l-.85-.08v0a11.78,11.78,0,0,0-.09,1.88,3.63,3.63,0,0,1-.77,1.94,2.28,2.28,0,0,1-1.52.6c-.55,0-.14.1.08.06s.28,0,.55,0a2,2,0,0,0,1-.52c0,.25-.2,1.78-.19,2.49-.21.14-.84.6-.8.81s0,.15,0,.07,0,.13,0,0a.31.31,0,0,1,0-.1A2,2,0,0,1,40.78,89.26Z"/><path id="Path_116" data-name="Path 116" class="cls-10" d="M43.84,91.6s0,.22,0,.29a.31.31,0,0,1,0,.54.48.48,0,0,1-.49,0l-.16-.11a.91.91,0,0,0-.17-.09c-.29-.16-.41.23-.8.19s-.29-.2-.41-.19l-.22.07a2.11,2.11,0,0,1-.45.1.57.57,0,0,1-.57-.33c-.09-.22,0-.55.27-.58h.12c.07,0,.16,0,.21,0s0-.39.21-.52.3,0,.4.07.13.05.18,0,.24-.36.45-.44a.59.59,0,0,1,.45,0c.09,0,.21.12.31.07a.27.27,0,0,0,.13-.15.94.94,0,0,0,.06-.15c0-.13,0-.27.09-.41s.38-.24.43-.23a1.34,1.34,0,0,1,.27.07.44.44,0,0,1,.21.27,1.18,1.18,0,0,1,0,.2.47.47,0,0,1,0,.17c-.07.22-.36.37-.25.57C44.39,91.58,43.88,91.46,43.84,91.6Z"/><path id="Path_117" data-name="Path 117" class="cls-10" d="M42.59,88.74s.28.2.24-.54a.19.19,0,0,1,.06-.15,1,1,0,0,1,.25-.16c.15,0,.29.12.39.17s.06.09.1.11.26-.1.37,0a.7.7,0,0,1,.3.43.44.44,0,0,1,0,.23.67.67,0,0,1-.22.25l-.27,0c-.08,0-.18,0-.25,0l-.11,0s-.07,0-.08.05c-.12.2,0,.42-.07.63a.21.21,0,0,1-.11.13s-.1,0-.12,0L43,90s0,.1,0,.14.06.32,0,.43a.73.73,0,0,1-.18.17c-.05,0-.19,0-.25,0s-.16,0-.21-.08-.11-.22-.14-.3a.92.92,0,0,0-.18-.3.46.46,0,0,0-.13-.08s0,.09-.08.1-.14.07-.17,0-.07,0-.1-.07,0-.07-.06-.08,0,0,0,0l-.05,0s0,.06,0,.07,0,.14,0,.2,0,.15,0,.21a.64.64,0,0,1-.1.5c-.07.11-.21.11-.32.16a.43.43,0,0,1-.16,0c-.08,0-.2-.15-.28-.09a.14.14,0,0,0,0,.11,1.34,1.34,0,0,1,.18.28.15.15,0,0,1,0,.11s0,0,0,.06a.18.18,0,0,0,.1.16c.19.12.5,0,.72,0a.44.44,0,0,1,.16,0,1.29,1.29,0,0,1,.53.28c.08.1,0,.29.12.36a.33.33,0,0,0,.13,0s.07,0,.08,0a.75.75,0,0,1,.07.12.4.4,0,0,1-.06.26c-.14.33-.6.3-.9.2-.09,0-.19-.11-.28-.15s-.07,0-.1,0-.11.12-.19.18a.51.51,0,0,1-.44.14.46.46,0,0,1-.36-.34c0-.13.16-.25,0-.34a.36.36,0,0,0-.25,0h-.11a.45.45,0,0,1-.4-.28.38.38,0,0,1,0-.36c0-.08.13-.09.17-.13s0-.11,0-.11-.32-.2-.42-.39a.88.88,0,0,1,0-.15s0-.09,0-.11-.07,0-.09,0-.18,0-.22,0,0-.34.06-.44,0-.14,0-.17-.41.06-.6-.06,0-.2.07-.22a.09.09,0,0,0,0-.08c0-.09-.16-.15-.2-.27a.28.28,0,0,1,0-.13c.08-.12.26-.06.36-.14s0-.11,0-.13a.45.45,0,0,1,0-.34s.08,0,.12,0,.2.17.3.14,0-.28.24-.19c.46.18,0,.47.15.54s.26-.1.35-.14.08,0,.1,0,.08.13.12.18,0,.07,0,.08,0,.16,0,.21.47-.06.63,0a.3.3,0,0,1,.21.12s.09,0,.11.07S41,90,41,90l.08-.07a1.78,1.78,0,0,0,.21-.52c.07-.22-.57-.12-.16-.6s1.41-.08,1.41-.07Z"/><path id="Path_118" data-name="Path 118" class="cls-10" d="M42.44,85.82c.07-.06.24-.19.24-.24s.08,0,.1,0a.14.14,0,0,0,0-.09s0-.11,0-.14a1.6,1.6,0,0,1-.2-.63.31.31,0,0,1,.26-.34.32.32,0,0,1,.21.06.52.52,0,0,1,.18.32c0,.18-.07.39,0,.55s.17.1.26.18a.41.41,0,0,1,.13.19.28.28,0,0,1,0,.13c0,.12-.25.28-.2.41s0,0,.07,0a2.53,2.53,0,0,1,.23.12,1.08,1.08,0,0,1,.48.68c0,.1.09.26,0,.35s-.2,0-.27,0a1.52,1.52,0,0,1-.43-.28c-.08-.07-.16-.19-.28-.15s0,0,0,.06l-.06.08c-.05.11.11.29.14.39s-.08.11-.1.14a.23.23,0,0,1-.12.1.44.44,0,0,1-.3,0s-.14-.13-.2-.11-.11.2-.22.24a.34.34,0,0,1-.24-.06s-.08,0-.09,0,.07.24.1.3a.27.27,0,0,1,0,.31.43.43,0,0,1-.57.09c-.06,0-.18-.19-.24-.14s0,.07,0,.1-.07.18-.13.23-.18.08-.24,0a.35.35,0,0,0-.14-.06s0,0,0,.06l-.11.15a.53.53,0,0,1-.7.14.29.29,0,0,1-.1-.12.89.89,0,0,1-.08-.17s.06-.1.08-.13.18-.15.24-.24,0-.07,0-.09-.12-.12-.16-.17,0,0,0,0a.33.33,0,0,1,0,.14.4.4,0,0,1-.25.26.31.31,0,0,1-.34-.24.43.43,0,0,0,0-.11s0,0,0,0h-.07l-.1,0c-.18.07-.43.08-.52-.16,0-.08.09-.14.12-.2s.14,0,.21-.06.18,0,.24-.14,0-.13-.06-.18-.33-.26-.22-.43.53,0,.66.16l.12.17h0s.06,0,.07,0,0-.07.06-.09,0-.12,0-.14a.23.23,0,0,1,.12-.18c.06,0,.2,0,.23,0a.2.2,0,0,0,.11,0c.1-.08,0-.26,0-.35s0-.09,0-.12a1,1,0,0,1,.15-.2s.14,0,.18-.06,0-.24.06-.33a.36.36,0,0,1,.18-.24l.2,0c.05,0,0-.11.1-.13a.21.21,0,0,1,.08,0l.1.13s0,.13,0,.14,0,.07-.05.11A.69.69,0,0,1,41,86s0,.06,0,.08.07.07.06.14a5.16,5.16,0,0,0-.2.67A.36.36,0,0,0,41,87s.06,0,.06,0a.3.3,0,0,1,.23,0c.06,0,.07.1.1.14l.1-.08s0-.08,0-.11,0-.2.07-.24.18,0,.22,0,0-.28.07-.35.22,0,.3.05.1,0,.12,0,.05-.23.06-.35,0-.12,0-.14S42.41,85.84,42.44,85.82Z"/><path id="Path_119" data-name="Path 119" class="cls-2" d="M60.82,27.8l1-2.51-.92-.37L60,27.47Z"/><path id="Path_120" data-name="Path 120" class="cls-40" d="M18.08,60.74l1.46,4.63.06,0-1.46-4.63Z"/><rect id="Rectangle_107" data-name="Rectangle 107" class="cls-14" x="19.27" y="60.47" width="0.06" height="4.85" transform="translate(-18.02 8.71) rotate(-17.5)"/><rect id="Rectangle_108" data-name="Rectangle 108" class="cls-14" x="19.74" y="60.33" width="0.06" height="4.85" transform="translate(-17.95 8.84) rotate(-17.49)"/><rect id="Rectangle_109" data-name="Rectangle 109" class="cls-14" x="20.2" y="60.19" width="0.06" height="4.85" transform="translate(-17.88 8.98) rotate(-17.49)"/><rect id="Rectangle_110" data-name="Rectangle 110" class="cls-14" x="20.89" y="59.97" width="0.06" height="4.85" transform="translate(-17.79 9.17) rotate(-17.49)"/><rect id="Rectangle_111" data-name="Rectangle 111" class="cls-14" x="19.04" y="60.55" width="0.06" height="4.85" transform="translate(-18.05 8.65) rotate(-17.49)"/><rect id="Rectangle_112" data-name="Rectangle 112" class="cls-14" x="19.51" y="60.4" width="0.06" height="4.85" transform="translate(-17.98 8.78) rotate(-17.49)"/><rect id="Rectangle_113" data-name="Rectangle 113" class="cls-14" x="19.97" y="60.26" width="0.06" height="4.85" transform="translate(-17.92 8.91) rotate(-17.49)"/><rect id="Rectangle_114" data-name="Rectangle 114" class="cls-14" x="20.66" y="60.04" width="0.06" height="4.85" transform="translate(-17.82 9.11) rotate(-17.49)"/><rect id="Rectangle_115" data-name="Rectangle 115" class="cls-14" x="20.43" y="60.11" width="0.06" height="4.85" transform="translate(-17.85 9.04) rotate(-17.49)"/><rect id="Rectangle_116" data-name="Rectangle 116" class="cls-15" x="20.25" y="60.14" width="0.19" height="4.85" transform="translate(-17.87 9.01) rotate(-17.5)"/><rect id="Rectangle_117" data-name="Rectangle 117" class="cls-15" x="20.95" y="59.93" width="0.19" height="4.85" transform="translate(-17.77 9.21) rotate(-17.49)"/><rect id="Rectangle_118" data-name="Rectangle 118" class="cls-15" x="20.02" y="60.22" width="0.19" height="4.85" transform="translate(-17.9 8.94) rotate(-17.49)"/><rect id="Rectangle_119" data-name="Rectangle 119" class="cls-15" x="19.79" y="60.29" width="0.19" height="4.85" transform="translate(-17.93 8.88) rotate(-17.49)"/><rect id="Rectangle_120" data-name="Rectangle 120" class="cls-15" x="19.56" y="60.37" width="0.19" height="4.85" transform="translate(-17.97 8.81) rotate(-17.49)"/><rect id="Rectangle_121" data-name="Rectangle 121" class="cls-15" x="20.71" y="60" width="0.19" height="4.85" transform="translate(-17.8 9.14) rotate(-17.49)"/><rect id="Rectangle_122" data-name="Rectangle 122" class="cls-15" x="20.48" y="60.08" width="0.19" height="4.85" transform="translate(-17.84 9.08) rotate(-17.49)"/><rect id="Rectangle_123" data-name="Rectangle 123" class="cls-35" x="31.72" y="23.39" width="0.15" height="1.75" transform="translate(-6.15 11.62) rotate(-18.92)"/><rect id="Rectangle_124" data-name="Rectangle 124" class="cls-17" x="32.09" y="22.27" width="12.65" height="3.33" transform="translate(-5.69 13.78) rotate(-18.96)"/><rect id="Rectangle_125" data-name="Rectangle 125" class="cls-20" x="31.01" y="19.12" width="12.65" height="3.33" transform="translate(-4.73 13.26) rotate(-18.96)"/><rect id="Rectangle_126" data-name="Rectangle 126" class="cls-35" x="31.6" y="21.05" width="0.27" height="3.31" transform="translate(-5.65 11.52) rotate(-18.93)"/><rect id="Rectangle_127" data-name="Rectangle 127" class="cls-35" x="32.1" y="20.88" width="0.27" height="3.31" transform="translate(-5.57 11.69) rotate(-18.95)"/><rect id="Rectangle_128" data-name="Rectangle 128" class="cls-35" x="32.59" y="20.7" width="0.27" height="3.31" transform="translate(-5.49 11.84) rotate(-18.95)"/><rect id="Rectangle_129" data-name="Rectangle 129" class="cls-35" x="33.09" y="20.53" width="0.27" height="3.31" transform="translate(-5.41 11.99) rotate(-18.95)"/><rect id="Rectangle_130" data-name="Rectangle 130" class="cls-35" x="33.59" y="20.36" width="0.27" height="3.31" transform="translate(-5.32 12.15) rotate(-18.95)"/><rect id="Rectangle_131" data-name="Rectangle 131" class="cls-35" x="34.09" y="20.19" width="0.27" height="3.31" transform="translate(-5.24 12.3) rotate(-18.95)"/><rect id="Rectangle_132" data-name="Rectangle 132" class="cls-35" x="31.57" y="22.34" width="12.65" height="0.2" transform="translate(-5.24 13.53) rotate(-18.96)"/><rect id="Rectangle_133" data-name="Rectangle 133" class="cls-35" x="34.58" y="20.02" width="0.27" height="3.31" transform="translate(-5.16 12.45) rotate(-18.95)"/><rect id="Rectangle_134" data-name="Rectangle 134" class="cls-35" x="35.08" y="19.85" width="0.27" height="3.31" transform="translate(-5.08 12.61) rotate(-18.96)"/><rect id="Rectangle_135" data-name="Rectangle 135" class="cls-35" x="35.58" y="19.68" width="0.27" height="3.31" transform="translate(-4.99 12.74) rotate(-18.93)"/><rect id="Rectangle_136" data-name="Rectangle 136" class="cls-35" x="36.08" y="19.51" width="0.27" height="3.31" transform="translate(-4.91 12.91) rotate(-18.95)"/><rect id="Rectangle_137" data-name="Rectangle 137" class="cls-35" x="36.58" y="19.34" width="0.27" height="3.31" transform="translate(-4.83 13.06) rotate(-18.95)"/><rect id="Rectangle_138" data-name="Rectangle 138" class="cls-35" x="37.07" y="19.17" width="0.27" height="3.31" transform="translate(-4.75 13.21) rotate(-18.95)"/><rect id="Rectangle_139" data-name="Rectangle 139" class="cls-35" x="37.57" y="18.99" width="0.27" height="3.31" transform="translate(-4.66 13.37) rotate(-18.96)"/><rect id="Rectangle_140" data-name="Rectangle 140" class="cls-35" x="38.07" y="18.82" width="0.27" height="3.31" transform="translate(-4.58 13.5) rotate(-18.93)"/><rect id="Rectangle_141" data-name="Rectangle 141" class="cls-35" x="38.57" y="18.65" width="0.27" height="3.31" transform="translate(-4.5 13.67) rotate(-18.95)"/><rect id="Rectangle_142" data-name="Rectangle 142" class="cls-35" x="39.07" y="18.48" width="0.27" height="3.31" transform="translate(-4.42 13.82) rotate(-18.95)"/><rect id="Rectangle_143" data-name="Rectangle 143" class="cls-35" x="39.56" y="18.31" width="0.27" height="3.31" transform="translate(-4.33 13.98) rotate(-18.95)"/><rect id="Rectangle_144" data-name="Rectangle 144" class="cls-35" x="40.06" y="18.14" width="0.27" height="3.31" transform="translate(-4.25 14.13) rotate(-18.95)"/><rect id="Rectangle_145" data-name="Rectangle 145" class="cls-35" x="40.56" y="17.97" width="0.27" height="3.31" transform="translate(-4.17 14.26) rotate(-18.93)"/><rect id="Rectangle_146" data-name="Rectangle 146" class="cls-35" x="41.06" y="17.8" width="0.27" height="3.31" transform="translate(-4.09 14.43) rotate(-18.95)"/><rect id="Rectangle_147" data-name="Rectangle 147" class="cls-35" x="41.55" y="17.63" width="0.27" height="3.31" transform="translate(-4 14.59) rotate(-18.95)"/><rect id="Rectangle_148" data-name="Rectangle 148" class="cls-35" x="42.05" y="17.46" width="0.27" height="3.31" transform="translate(-3.92 14.74) rotate(-18.95)"/><rect id="Rectangle_149" data-name="Rectangle 149" class="cls-35" x="42.55" y="17.29" width="0.27" height="3.31" transform="translate(-3.84 14.89) rotate(-18.95)"/><rect id="Rectangle_150" data-name="Rectangle 150" class="cls-35" x="43.05" y="17.12" width="0.27" height="3.31" transform="translate(-3.75 15.02) rotate(-18.93)"/><rect id="Rectangle_151" data-name="Rectangle 151" class="cls-36" x="36.37" y="24.25" width="0.62" height="0.87" transform="translate(-6.03 13.26) rotate(-18.96)"/><rect id="Rectangle_152" data-name="Rectangle 152" class="cls-22" x="36.4" y="24.4" width="0.2" height="0.32" transform="translate(-6 13.19) rotate(-18.96)"/><rect id="Rectangle_153" data-name="Rectangle 153" class="cls-22" x="36.64" y="24.31" width="0.2" height="0.32" transform="translate(-5.96 13.27) rotate(-18.97)"/><rect id="Rectangle_154" data-name="Rectangle 154" class="cls-22" x="36.52" y="24.74" width="0.2" height="0.32" transform="translate(-6.1 13.25) rotate(-18.96)"/><rect id="Rectangle_155" data-name="Rectangle 155" class="cls-22" x="36.76" y="24.66" width="0.2" height="0.32" transform="translate(-6.06 13.31) rotate(-18.94)"/><rect id="Rectangle_156" data-name="Rectangle 156" class="cls-41" x="36.23" y="24.23" width="0.62" height="0.04" transform="translate(-5.9 13.19) rotate(-18.96)"/><rect id="Rectangle_157" data-name="Rectangle 157" class="cls-36" x="34.43" y="24.92" width="0.62" height="0.87" transform="translate(-6.35 12.66) rotate(-18.96)"/><rect id="Rectangle_158" data-name="Rectangle 158" class="cls-22" x="34.46" y="25.06" width="0.2" height="0.32" transform="translate(-6.32 12.6) rotate(-18.97)"/><rect id="Rectangle_159" data-name="Rectangle 159" class="cls-22" x="34.7" y="24.98" width="0.2" height="0.32" transform="translate(-6.27 12.65) rotate(-18.93)"/><rect id="Rectangle_160" data-name="Rectangle 160" class="cls-22" x="34.58" y="25.41" width="0.2" height="0.32" transform="translate(-6.42 12.64) rotate(-18.94)"/><rect id="Rectangle_161" data-name="Rectangle 161" class="cls-22" x="34.82" y="25.32" width="0.2" height="0.32" transform="translate(-6.38 12.71) rotate(-18.93)"/><path id="Path_121" data-name="Path 121" class="cls-42" d="M34.3,25l.59-.2,0,0-.58.2Z"/><rect id="Rectangle_162" data-name="Rectangle 162" class="cls-36" x="40.26" y="22.91" width="0.62" height="0.87" transform="translate(-5.39 14.45) rotate(-18.96)"/><rect id="Rectangle_163" data-name="Rectangle 163" class="cls-22" x="40.29" y="23.06" width="0.2" height="0.32" transform="translate(-5.35 14.39) rotate(-18.97)"/><rect id="Rectangle_164" data-name="Rectangle 164" class="cls-22" x="40.53" y="22.98" width="0.2" height="0.32" transform="translate(-5.31 14.43) rotate(-18.93)"/><rect id="Rectangle_165" data-name="Rectangle 165" class="cls-22" x="40.41" y="23.4" width="0.2" height="0.32" transform="translate(-5.45 14.42) rotate(-18.94)"/><rect id="Rectangle_166" data-name="Rectangle 166" class="cls-22" x="40.65" y="23.32" width="0.2" height="0.32" transform="translate(-5.41 14.49) rotate(-18.93)"/><rect id="Rectangle_167" data-name="Rectangle 167" class="cls-41" x="40.11" y="22.9" width="0.62" height="0.04" transform="translate(-5.25 14.38) rotate(-18.96)"/><rect id="Rectangle_168" data-name="Rectangle 168" class="cls-36" x="38.32" y="23.58" width="0.62" height="0.87" transform="translate(-5.71 13.85) rotate(-18.96)"/><rect id="Rectangle_169" data-name="Rectangle 169" class="cls-22" x="38.35" y="23.73" width="0.2" height="0.32" transform="translate(-5.67 13.77) rotate(-18.94)"/><rect id="Rectangle_170" data-name="Rectangle 170" class="cls-22" x="38.59" y="23.65" width="0.2" height="0.32" transform="translate(-5.64 13.87) rotate(-18.97)"/><rect id="Rectangle_171" data-name="Rectangle 171" class="cls-22" x="38.47" y="24.07" width="0.2" height="0.32" transform="translate(-5.78 13.83) rotate(-18.94)"/><rect id="Rectangle_172" data-name="Rectangle 172" class="cls-22" x="38.71" y="23.99" width="0.2" height="0.32" transform="translate(-5.74 13.93) rotate(-18.97)"/><rect id="Rectangle_173" data-name="Rectangle 173" class="cls-41" x="38.17" y="23.56" width="0.62" height="0.04" transform="translate(-5.58 13.78) rotate(-18.96)"/><rect id="Rectangle_174" data-name="Rectangle 174" class="cls-36" x="42.21" y="22.25" width="0.62" height="0.87" transform="translate(-5.06 15.04) rotate(-18.96)"/><rect id="Rectangle_175" data-name="Rectangle 175" class="cls-22" x="42.23" y="22.39" width="0.2" height="0.32" transform="translate(-5.03 14.98) rotate(-18.96)"/><rect id="Rectangle_176" data-name="Rectangle 176" class="cls-22" x="42.48" y="22.31" width="0.2" height="0.32" transform="translate(-4.99 15.06) rotate(-18.97)"/><rect id="Rectangle_177" data-name="Rectangle 177" class="cls-22" x="42.35" y="22.74" width="0.2" height="0.32" transform="translate(-5.14 15.04) rotate(-18.96)"/><rect id="Rectangle_178" data-name="Rectangle 178" class="cls-22" x="42.6" y="22.65" width="0.2" height="0.32" transform="translate(-5.09 15.09) rotate(-18.94)"/><rect id="Rectangle_179" data-name="Rectangle 179" class="cls-41" x="42.06" y="22.23" width="0.62" height="0.04" transform="translate(-4.93 14.97) rotate(-18.96)"/><path id="Path_122" data-name="Path 122" class="cls-2" d="M49.11,81.92a28.42,28.42,0,1,1,3.74-56.6l-1.6-2.66c-.71-.05-1.42-.08-2.14-.08a30.92,30.92,0,0,0,0,61.83c.67,0,1.35,0,2-.07l1.59-2.65A28.88,28.88,0,0,1,49.11,81.92Z"/><path id="Path_123" data-name="Path 123" class="cls-2" d="M61.83,81.71l-1-2.51-.72.29L61,82Z"/><path id="Path_124" data-name="Path 124" class="cls-43" d="M20.9,53.5A28.24,28.24,0,0,0,49.11,81.71a31.18,31.18,0,0,0,3.74-.25l.67-1.13a27.19,27.19,0,1,1,.14-53.64L53,25.55A28.24,28.24,0,0,0,21.16,49.66a28.91,28.91,0,0,0-.26,3.84Z"/><path id="Path_125" data-name="Path 125" class="cls-43" d="M20.69,53.5a28.49,28.49,0,0,0,32,28.2l.14-.24a28.21,28.21,0,0,1-7.48-55.92,28.59,28.59,0,0,1,7.62,0l-.14-.23A28.44,28.44,0,0,0,20.93,49.8a28.77,28.77,0,0,0-.24,3.71Z"/><path id="Path_126" data-name="Path 126" class="cls-15" d="M22.82,53.5A26.31,26.31,0,0,0,49.15,79.79a26,26,0,0,0,5-.48l3.49-5.83-2.52.73a21.56,21.56,0,1,1,0-41.43l2.67.77-3.5-5.84a26.32,26.32,0,0,0-31,20.65,26,26,0,0,0-.51,5.14Z"/><path id="Path_127" data-name="Path 127" class="cls-15" d="M21.92,53.5A27.2,27.2,0,0,0,53.53,80.33l.61-1a26.29,26.29,0,1,1,.14-51.59l-.62-1A27.2,27.2,0,0,0,22.3,49a26.58,26.58,0,0,0-.38,4.54Z"/><path id="Path_128" data-name="Path 128" class="cls-38" d="M49.29,90.93a9.28,9.28,0,0,0-.11,2.47c.26.23,0-.07,0-.16a11.6,11.6,0,0,1,.24-2,7.25,7.25,0,0,1,.53.68A7.47,7.47,0,0,1,50.5,93s0,0,0,0a.17.17,0,0,0,0,.07s0,0,0-.07h0a5.35,5.35,0,0,0-.44-1.15c-.22-.41-.56-.75-.61-.94a25.67,25.67,0,0,1-.09-3.28.85.85,0,0,0,.15-.3,3.34,3.34,0,0,1,.14.94c0,.28,0,.22,0,.22l0-.21-.15-1.1c.13-.33.23-.68.33-1,0,0,.28.67.43,1,0,.23-.13.76-.13.85s0,.06,0,.06c0-.26.09-.51.15-.76a3.26,3.26,0,0,1,.23.75c.06.36,0,.94.1,1.57-.09.09-.3.31-.28.43s0,0,0,0,.17-.23.26-.34v0c.13,1.43.32,3.06.32,3.06s.08.26.07.13c-.1-.87-.12-1.71-.2-2.62a3.86,3.86,0,0,1,0-.68l.3.47c0-.18-.31-.47-.28-.74a7.19,7.19,0,0,0-.05-1.39c0-.16-.55-1.58-.76-2.54a7,7,0,0,1,.13-2.37l-.73,0v0c0,.5.05.88.1,2.19a5.12,5.12,0,0,1-.57,2.34A6.81,6.81,0,0,1,48,89.23s-.13.14.09.06c.4-.46.77-.94,1.12-1.43,0,.29,0,2.09.07,2.91-.19.19-.78.8-.71,1s0,.17,0,.07c0,.08,0,.15,0,0a.24.24,0,0,1,0-.12A2.17,2.17,0,0,1,49.29,90.93Z"/><path id="Path_129" data-name="Path 129" class="cls-10" d="M50.66,88.42c0-.07.09-.23,0-.27s-.14.07-.18.1l-.05.06,0-.08a.35.35,0,0,0,0-.2s-.1.13-.11.15,0,.07,0,0,0-.09,0-.11a1.72,1.72,0,0,0-.07-.21s-.06-.12-.12-.1-.13.11-.18.18,0,.12,0,.11,0,0,0-.06-.07-.26-.19-.18-.05.32-.15.37,0,0,0,0,0-.16,0-.23,0-.07-.06-.06-.12.14-.17.22a1.67,1.67,0,0,1-.08.2.8.8,0,0,1,0-.19,1.24,1.24,0,0,0,0-.27s0-.11,0-.12a.2.2,0,0,0-.2.12s0,.06,0,.06v-.06c0-.06,0-.21-.12-.18a.37.37,0,0,0-.17.13s-.07.12-.08.1,0-.06,0-.07-.06-.3-.17-.22a.32.32,0,0,0-.09.17.14.14,0,0,1,0,.07s0-.12,0-.13-.07-.27-.16-.3-.11.17-.11.23a.48.48,0,0,1,0,.12s0-.11,0-.14-.15-.29-.3-.32-.14.13-.12.2a.36.36,0,0,0,0,.11l-.06-.07-.15-.08a.4.4,0,0,0-.43,0,.32.32,0,0,0-.06.23.19.19,0,0,0,0,.08s0,0,0,0-.07-.06-.1-.07a.37.37,0,0,0-.35.1.29.29,0,0,0,0,.27l0,.11s0,0,0,0-.09-.06-.13-.07a.31.31,0,0,0-.28.13.19.19,0,0,0,0,.18s.05.07.05.07l-.1,0a.33.33,0,0,0-.27.08c-.07.12,0,.26.08.36l.11.09-.11,0a.34.34,0,0,0-.26,0c-.1.1.08.2.08.28s0,0,0,0h-.12c-.09,0-.13.19-.12.27a.18.18,0,0,0,.19.14s.07,0,0,0a.17.17,0,0,0-.06.25.1.1,0,0,0,0,.06.51.51,0,0,0,.38.07s0,0,0,.12.32.09.31.1-.2.12-.17.21.31,0,.38,0,0,0,0,0-.14.15-.11.25.29,0,.35-.05,0,.08,0,.13.13.11.22.11a2.37,2.37,0,0,0-.19.35.19.19,0,0,0,0,.18s.3-.11.36-.07-.1.22-.09.25.13.13.21.13h.13s0,.06,0,.09a.26.26,0,0,0,.19.13.52.52,0,0,0,.41-.18.88.88,0,0,0,.07-.12.13.13,0,0,0,.06.07.4.4,0,0,0,.26.1.24.24,0,0,0,.2-.16.49.49,0,0,0,0-.12.36.36,0,0,0,.07.1.27.27,0,0,0,.21.06.21.21,0,0,0,.15-.14.24.24,0,0,0,0-.12l0-.06a.24.24,0,0,0,.11.06.52.52,0,0,0,.37,0,.17.17,0,0,0,.06-.23h0s-.07,0-.07-.08l.07,0a.33.33,0,0,0,.17,0c.14,0,.35-.13.38-.28s-.05-.12-.11-.14l.13,0a.41.41,0,0,0,.32-.08c.07-.07,0-.24,0-.3a.39.39,0,0,0-.08-.1s-.07,0-.06,0,0,0,.07,0l.14,0a.78.78,0,0,0,.29-.28.32.32,0,0,0,0-.33.36.36,0,0,0-.16-.11s0,0,0,0,.12-.07.16-.1a.59.59,0,0,0,.26-.34c0-.13-.12-.2-.22-.22h-.07s0,0,0,0,.13,0,.14-.06a.46.46,0,0,0,.17-.17c0-.08-.08-.09-.07-.12s0-.06,0-.08S50.66,88.42,50.66,88.42Z"/><path id="Path_130" data-name="Path 130" class="cls-10" d="M49.22,91.24c0,.07,0,.22,0,.24s.12-.08.15-.12l0-.06v.08a.41.41,0,0,0,.05.18s.07-.14.08-.16,0-.07,0-.05,0,.08,0,.1a.64.64,0,0,0,.1.18s.07.1.12.08a.35.35,0,0,0,.14-.2s0-.13,0-.12,0,.06,0,.07.1.23.2.13,0-.31.07-.37,0,0,0,0,0,.13.08.2,0,.06.06,0a.43.43,0,0,0,.12-.23,1.42,1.42,0,0,1,0-.2s0,.07,0,.18a1.09,1.09,0,0,0,0,.26s0,.1,0,.1.15-.07.17-.14,0-.07,0-.07,0,.06,0,.06.06.18.14.14a.32.32,0,0,0,.13-.15s0-.12.07-.1,0,0,0,.06.1.27.19.18a.35.35,0,0,0,.05-.18.13.13,0,0,1,0-.06s0,.1.05.11.11.24.2.25.07-.17.06-.23,0-.11,0-.11,0,.1.07.12a.5.5,0,0,0,.33.25c.1,0,.1-.15.07-.21l-.06-.1.07.06.15,0c.11,0,.34,0,.39-.12a.3.3,0,0,0,0-.23.19.19,0,0,0,0-.07h0s.08,0,.1,0a.35.35,0,0,0,.31-.15.28.28,0,0,0,0-.25l0-.09s0,0,0,0,.09,0,.13,0a.27.27,0,0,0,.24-.17.18.18,0,0,0,0-.17s-.06,0,0,0a.14.14,0,0,1,.09,0,.29.29,0,0,0,.23-.12c0-.12-.05-.24-.13-.32l-.12-.06h.1a.34.34,0,0,0,.24-.09c.07-.11-.11-.18-.12-.25s0,0,0,0,.08,0,.11,0a.27.27,0,0,0,.07-.27.17.17,0,0,0-.2-.1h0s-.06,0,0,0a.18.18,0,0,0,0-.25.12.12,0,0,0-.05,0,.45.45,0,0,0-.36,0s0-.05,0-.12-.32,0-.31,0,.16-.14.13-.22-.3,0-.36.06h0c0-.07.1-.17.05-.25s-.26.06-.31.11,0-.08,0-.13-.14-.07-.23-.06a2.06,2.06,0,0,0,.12-.35s0-.14-.05-.17-.25.15-.32.13.06-.22.05-.25a.23.23,0,0,0-.23-.09l-.11,0s0-.07,0-.09a.27.27,0,0,0-.2-.09.49.49,0,0,0-.35.24l0,.12A.15.15,0,0,0,51,87.6a.4.4,0,0,0-.26,0,.23.23,0,0,0-.16.19s0,.07,0,.11a.3.3,0,0,0-.08-.08.26.26,0,0,0-.21,0,.21.21,0,0,0-.11.15.36.36,0,0,0,0,.11l0,0a.2.2,0,0,0-.11,0,.52.52,0,0,0-.34.09.16.16,0,0,0,0,.23h0s.07,0,.08.06h-.07a.51.51,0,0,0-.17,0c-.12,0-.29.18-.29.32s.06.1.12.11h-.12a.39.39,0,0,0-.29.13c0,.07,0,.22.07.28l.09.07s.07,0,.07,0h-.07a.34.34,0,0,0-.12.06.68.68,0,0,0-.22.31.32.32,0,0,0,.05.31.36.36,0,0,0,.17.07s0,0,0,0-.09.08-.13.12a.54.54,0,0,0-.18.36c0,.12.15.16.25.16h.06s.05,0,.05,0-.11.07-.13.08a.35.35,0,0,0-.12.19c0,.08.09.06.08.1s0,.06,0,.08S49.22,91.24,49.22,91.24Z"/><path id="Path_131" data-name="Path 131" class="cls-10" d="M52.24,92.78c0-.06.09-.2,0-.24s-.14,0-.18.07,0,0-.05,0a.41.41,0,0,1,0-.07.37.37,0,0,0,0-.18s-.11.11-.12.12,0,.06,0,0,0-.09,0-.1a1,1,0,0,0-.07-.21s-.06-.11-.13-.1a.27.27,0,0,0-.18.15s-.05.11-.06.1,0,0,0-.06-.06-.25-.19-.18-.05.3-.15.33,0,0,0-.06a1.91,1.91,0,0,0,0-.21s0-.07-.06-.06-.12.12-.17.19-.08.18-.09.17,0-.06,0-.17a1.09,1.09,0,0,0,0-.26s0-.1,0-.11a.21.21,0,0,0-.22.09s0,.07,0,.06v-.06s0-.2-.12-.18a.32.32,0,0,0-.17.1s-.07.1-.09.09,0-.06,0-.07-.06-.29-.17-.22-.08.11-.09.15l0,.07s0-.11,0-.12-.06-.27-.16-.3-.11.14-.11.2,0,.11,0,.11a.58.58,0,0,1-.05-.14.66.66,0,0,0-.31-.33c-.11,0-.14.11-.12.18a1,1,0,0,0,0,.1L49,91.66l-.15-.1c-.11-.06-.37-.08-.45,0a.29.29,0,0,0-.06.22.17.17,0,0,0,0,.07s0,0,0,0-.07-.06-.1-.07a.36.36,0,0,0-.36.06.25.25,0,0,0,0,.25l0,.1s0,0,0,0-.1-.06-.13-.07a.3.3,0,0,0-.3.09.23.23,0,0,0,0,.18s.06.06,0,.07l-.1,0a.3.3,0,0,0-.27.05c-.08.1,0,.24.08.34l.11.09-.11,0a.32.32,0,0,0-.27,0c-.1.08.08.2.08.27h0a.25.25,0,0,0-.12,0c-.09,0-.13.16-.12.24s.1.13.19.14.07,0,.05,0a.17.17,0,0,0-.07.23.16.16,0,0,0,.07.07.56.56,0,0,0,.38.1s0,.05,0,.12.34.11.33.12-.21.09-.19.17.33.06.4,0h0c-.06,0-.14.13-.1.22s.3,0,.35,0,0,.09,0,.13.14.12.23.12a2.39,2.39,0,0,0-.2.31.2.2,0,0,0,0,.18s.3-.08.37,0-.1.2-.1.23.14.14.22.15h.14s0,0,0,.08a.26.26,0,0,0,.19.13.49.49,0,0,0,.42-.12l.08-.1a.19.19,0,0,0,.06.07.47.47,0,0,0,.26.11.22.22,0,0,0,.22-.13s0-.07,0-.11a.23.23,0,0,0,.07.1.35.35,0,0,0,.22.08.17.17,0,0,0,.15-.12.21.21,0,0,0,0-.11l0-.06.12.07a.62.62,0,0,0,.38,0,.14.14,0,0,0,.07-.19,0,0,0,0,0,0,0s-.07-.06-.07-.08l.07,0a.57.57,0,0,0,.18,0c.15,0,.36-.1.39-.24s-.05-.11-.11-.14l.13.05a.42.42,0,0,0,.33,0c.08-.06,0-.23,0-.29a.39.39,0,0,0-.08-.1l-.06,0s0,0,.07,0l.14,0a.69.69,0,0,0,.3-.23.27.27,0,0,0,0-.32.36.36,0,0,0-.16-.11s0,0,0,0,.12-.06.16-.08a.5.5,0,0,0,.27-.3c0-.12-.12-.2-.23-.23h-.07s0,0,0,0a1.55,1.55,0,0,1,.15,0A.35.35,0,0,0,52.5,93c0-.07-.09-.09-.07-.11s0-.07,0-.08S52.24,92.78,52.24,92.78Z"/><path id="Path_132" data-name="Path 132" class="cls-44" d="M85.17,67.67l1-1.58h0c-.14.23-.24.4-.29.46-.22.38-.45.75-.67,1.12m-20,16.68q3.66.15,7.32-.06a5.38,5.38,0,0,0,2.63-1.06,5.29,5.29,0,0,0,1-.86c.83-1,4.38-7.23,5.62-9.23L83,71.25l0,0c.49-2.9,0-3.48-1.22-5.51L79,61.3Z"/><path id="Path_133" data-name="Path 133" class="cls-45" d="M85.17,67.67l1-1.58h0l-.28.46-.68,1.12m-2.62,4.27.43-.69s0,0,0,0c.49-2.9,0-3.48-1.22-5.51L79,61.3l-3.37,5.63,6.83,5Z"/><path id="Path_134" data-name="Path 134" class="cls-46" d="M81.71,65.79c1.22,2,1.71,2.61,1.22,5.51,0,0,0-.06,0,0L84.39,69c.49-.8,1-1.6,1.46-2.42l2.83-4.88-2.91-4.89c-1-1.64-2-3.24-2.94-4.89L65.23,22.62c-2.15,0-4.55-.1-6.66,0-1.11.05-1.74.51-1.62,1.71a9.1,9.1,0,0,0,1.15,2.18Q69.93,46.13,81.71,65.79"/><path id="Path_135" data-name="Path 135" class="cls-46" d="M81.71,65.79c1.22,2,1.71,2.61,1.22,5.51,0,0,0-.06,0,0L84.39,69c.49-.8,1-1.6,1.46-2.42l2.83-4.88-2.91-4.89c-1-1.64-2-3.24-2.94-4.89L65.23,22.62c-2.15,0-4.55-.1-6.66,0-1.11.05-1.74.51-1.62,1.71a9.1,9.1,0,0,0,1.15,2.18Q69.93,46.13,81.71,65.79"/><path id="Path_136" data-name="Path 136" class="cls-47" d="M88.68,61.67l3.4-5.45a5.37,5.37,0,0,0,.68-3.55c-.27-1.59-2.05-4.18-3-5.8-.57-.95-1.1-1.84-1.66-2.75-1.11-1.87-2.22-3.7-3.34-5.57L77.28,26.12a5.72,5.72,0,0,0-2-2.41c-2-1.34-3-1.1-5.56-1.1H65.23l17.6,29.27,2.93,4.9Z"/><path id="Path_137" data-name="Path 137" class="cls-48" d="M65.22,84.35l10.4-17.29L79,61.32l-5.93-9.88a5.93,5.93,0,0,1,.13,3.26c-.36,1.45-3.06,5.62-3.91,7L57.21,82a1.43,1.43,0,0,0,.2,2,1.53,1.53,0,0,0,.59.28c.94.23,5.79.07,7.23.07"/><path id="Path_138" data-name="Path 138" class="cls-48" d="M65.22,84.35l10.4-17.29L79,61.32l-5.93-9.88a5.93,5.93,0,0,1,.13,3.26c-.36,1.45-3.06,5.62-3.91,7L57.21,82a1.43,1.43,0,0,0,.2,2,1.53,1.53,0,0,0,.59.28c.94.23,5.79.07,7.23.07"/><path id="Path_139" data-name="Path 139" class="cls-49" d="M75.68,67,79,61.33q-3-4.95-5.93-9.88a5.92,5.92,0,0,1,.13,3.26c-.37,1.44-3.06,5.61-3.91,7l-.24.4Z"/></g></g></g></g></svg>