<svg xmlns="http://www.w3.org/2000/svg" width="188" height="95.942" viewBox="0 0 188 95.942">
  <g id="Group_14" data-name="Group 14" transform="translate(-50 -50)">
    <text id="GDG_Kids" data-name="GDG Kids" transform="translate(153 110)" fill="#989898" font-size="20" font-family="Roboto-Black, Roboto" font-weight="800"><tspan x="0" y="0">GDG</tspan><tspan y="0" fill="#212121"> </tspan><tspan y="0" fill="#249a41">K</tspan><tspan y="0" fill="#f6ad01">i</tspan><tspan y="0" fill="#e63125">d</tspan><tspan y="0" fill="#3174f0">s</tspan></text>
    <g id="Group_1" data-name="Group 1" transform="translate(50 50.001)">
      <path id="Path_1" data-name="Path 1" d="M162.424,661.788c-.273.387-1.59,2.234-1.867,2.237-.395,0,.034-.071.116-.146a13.837,13.837,0,0,0,1.417-1.949,7.522,7.522,0,0,0-.98.192,9.38,9.38,0,0,0-1.326.545.142.142,0,0,0-.025.017.235.235,0,0,1-.057.055.583.583,0,0,1,.057-.055.032.032,0,0,0,0-.013,6.263,6.263,0,0,1,1.277-.669c.516-.2,1.064-.237,1.258-.366a29.145,29.145,0,0,0,2.67-2.794,1.241,1.241,0,0,1,.111-.376,4.334,4.334,0,0,0-.86.711c-.207.255-.2.175-.2.175l.131-.223s.752-.632,1-.837a12.546,12.546,0,0,1,.538-1.144c.007-.01-.774.37-1.2.589-.15.232-.5.766-.563.843-.085.1-.084.023-.084.023s.354-.518.484-.782a4.054,4.054,0,0,0-.788.49c-.338.26-.791.785-1.331,1.3,0,.142.006.494-.1.587-.137.117-.053-.007-.053-.007s.055-.358.055-.485l-.019.017c-1.243,1.149-2.692,2.43-2.692,2.43s-.275.162-.161.062c.774-.68,1.459-1.412,2.244-2.147a5.405,5.405,0,0,0,.539-.587l-.621.175c.132-.163.633-.173.819-.431a8.668,8.668,0,0,1,1.139-1.172c.163-.118,1.711-.977,2.647-1.657a8.314,8.314,0,0,0,1.764-2.164l.574.594a.3.3,0,0,0-.029.026c-.4.43-.738.725-1.821,1.837a6.273,6.273,0,0,0-1.374,2.48,8.109,8.109,0,0,0-.282,2.1c.032.041,0,.223-.118-.008-.043-.082.123-1.493.2-2.11-.228.259-1.648,1.84-2.364,2.495.009.312.017,1.293-.225,1.447s-.165.121-.075.049c-.079.064-.154.1,0,0a.327.327,0,0,0,.1-.108A2.74,2.74,0,0,0,162.424,661.788Z" transform="translate(-141.657 -582.1)" fill="#eee" fill-rule="evenodd"/>
      <path id="Path_2" data-name="Path 2" d="M182.717,691.536c.037-.08.1-.266.2-.238.072.019.067.163.068.221a.738.738,0,0,1-.007.088s.033-.054.046-.084.13-.161.164-.163c.068,0-.015.2-.02.218,0,.005-.034.075-.007.073s.083-.066.1-.079a1.337,1.337,0,0,1,.229-.136c.052-.021.136-.058.176,0a.374.374,0,0,1,.007.289c-.006.025-.062.149-.045.148s.044-.052.055-.06c.085-.057.259-.179.3-.012.033.146-.218.316-.175.437,0,.013.06-.021.072-.029.073-.049.142-.114.213-.167.018-.013.084-.039.1-.007a.545.545,0,0,1-.035.318,1.419,1.419,0,0,0-.08.235c.018,0,.041-.073.114-.19a1.377,1.377,0,0,1,.2-.265c.022-.024.087-.089.127-.073a.219.219,0,0,1,.077.259c0,.012-.034.078-.022.089l.055-.06c.045-.05.19-.155.239-.064a.407.407,0,0,1,.037.238c0,.019-.034.154,0,.153.013,0,.043-.052.055-.06.061-.041.286-.222.319-.069a.441.441,0,0,1-.067.222.373.373,0,0,0-.039.075c.015.014.116-.081.126-.088.076-.061.273-.189.374-.146.117.05-.044.228-.09.279-.009.01-.1.111-.086.11.036,0,.112-.067.15-.083a.636.636,0,0,1,.5-.057c.11.058.007.22-.066.269a1.235,1.235,0,0,1-.119.064.434.434,0,0,1,.1-.014,1.041,1.041,0,0,1,.193.035c.131.035.338.216.32.372a.448.448,0,0,1-.139.25.282.282,0,0,1-.071.061c-.008,0-.03,0-.024.01s.108,0,.137.015a.4.4,0,0,1,.216.355.363.363,0,0,1-.2.246c-.04.023-.073.05-.11.072-.013.008-.051.017-.04.026s.122.014.161.037a.325.325,0,0,1,.135.327.273.273,0,0,1-.14.17c-.017.01-.1.014-.1.022a.578.578,0,0,0,.1.057.323.323,0,0,1,.158.27c-.029.16-.214.219-.347.248a.626.626,0,0,1-.16-.005l.114.056a.361.361,0,0,1,.181.245c0,.158-.228.118-.292.187,0,.006.04.02.041.021.035.033.073.043.1.089.05.093-.039.261-.114.321a.186.186,0,0,1-.265-.022c-.023-.021-.039-.071-.033-.046a.227.227,0,0,1-.243.281.5.5,0,0,1-.365-.225c-.028-.034-.017.074-.085.126-.137.1-.343-.168-.34-.154.022.078.073.252-.018.314-.132.089-.289-.212-.319-.292,0-.008-.033-.042-.033-.03,0,.1-.008.239-.106.3-.144.083-.236-.226-.247-.3,0-.029-.061.086-.109.12-.111.075-.2-.009-.273-.078a2.559,2.559,0,0,1-.111.449c-.028.054-.1.146-.165.148s-.161-.32-.238-.337c-.054-.012-.1.27-.122.289a.236.236,0,0,1-.289-.045c-.035-.032-.1-.106-.1-.106s-.014.082-.046.1a.268.268,0,0,1-.257-.031.584.584,0,0,1-.2-.467c0-.028.04-.157.036-.155a.3.3,0,0,1-.1.015.427.427,0,0,1-.291-.109.257.257,0,0,1-.046-.294.9.9,0,0,1,.086-.11.434.434,0,0,1-.136.033.293.293,0,0,1-.226-.114.224.224,0,0,1-.013-.232.379.379,0,0,1,.094-.1.46.46,0,0,1,.072-.029.386.386,0,0,1-.137-.031.58.58,0,0,1-.287-.31.2.2,0,0,1,.143-.247c.023-.009.1,0,.116-.019a.654.654,0,0,0-.073-.035.563.563,0,0,1-.154-.126.537.537,0,0,1-.083-.533c.051-.082.131-.066.2-.037a1.407,1.407,0,0,1-.138-.063c-.1-.089-.2-.164-.207-.315-.006-.109.171-.224.259-.25a.752.752,0,0,1,.143-.025c.013,0,.088.014.088,0s-.055-.03-.065-.044a.609.609,0,0,1-.083-.139.847.847,0,0,1-.025-.463.39.39,0,0,1,.266-.291.384.384,0,0,1,.216.025c.014.007.051.006.056-.012.019-.063-.04-.149-.052-.205a.676.676,0,0,1,.054-.5c.084-.128.258-.082.359-.017.025.017.039.03.065.044s.028.052.041.037-.068-.14-.075-.163a.5.5,0,0,1-.006-.272c.032-.1.14-.014.151-.051s.055-.057.054-.092C182.513,691.356,182.717,691.536,182.717,691.536Z" transform="translate(-161.105 -615.078)" fill="#eee" fill-rule="evenodd"/>
      <path id="Path_3" data-name="Path 3" d="M160.868,681.35c-.047.068-.139.229-.227.187-.063-.03-.034-.164-.025-.217,0-.028.021-.082.021-.082s-.04.045-.056.069-.147.128-.179.123c-.064-.008.047-.179.055-.2,0,0,.043-.064.019-.066s-.087.047-.107.056a1.194,1.194,0,0,1-.234.087c-.052.011-.135.032-.161-.034a.361.361,0,0,1,.043-.27c.01-.022.082-.128.066-.13s-.049.042-.061.046c-.088.039-.268.122-.273-.04-.006-.142.255-.258.235-.377,0-.013-.058.009-.071.014-.075.033-.15.082-.224.119-.019.009-.084.022-.089-.011a.525.525,0,0,1,.087-.29,1.549,1.549,0,0,0,.115-.205c-.017,0-.05.061-.137.157a1.373,1.373,0,0,1-.225.213c-.024.019-.095.068-.129.046a.213.213,0,0,1-.026-.256c.006-.011.045-.067.035-.079l-.061.046c-.05.039-.2.112-.23.019a.385.385,0,0,1,.007-.228c.007-.018.057-.139.031-.141s-.049.041-.061.046c-.062.028-.3.157-.3.01a.414.414,0,0,1,.1-.194s.052-.058.047-.063-.12.055-.131.061c-.08.043-.282.129-.367.072s.079-.205.13-.245c.01-.008.109-.086.1-.088-.033,0-.115.043-.152.051a.581.581,0,0,1-.471-.033c-.092-.073.032-.206.107-.239a1.082,1.082,0,0,1,.12-.04.454.454,0,0,1-.1,0,.976.976,0,0,1-.171-.066c-.114-.055-.273-.26-.23-.4a.427.427,0,0,1,.17-.209.275.275,0,0,1,.075-.044c.008,0,.029,0,.023,0s-.1-.019-.122-.037a.381.381,0,0,1-.137-.367.341.341,0,0,1,.221-.2c.041-.014.075-.034.114-.047.014-.005.05-.007.041-.018-.02-.026-.11-.035-.141-.063a.313.313,0,0,1-.068-.329.255.255,0,0,1,.158-.135c.017-.005.09,0,.092,0a.5.5,0,0,0-.079-.071.305.305,0,0,1-.1-.279c.053-.143.234-.168.361-.171a.583.583,0,0,1,.146.032s-.064-.047-.094-.072a.346.346,0,0,1-.125-.259c.023-.147.229-.071.3-.125.006,0-.033-.025-.033-.026-.028-.036-.06-.053-.075-.1-.03-.095.079-.237.159-.279a.172.172,0,0,1,.239.066c.018.024.023.073.022.049a.213.213,0,0,1,.27-.221.469.469,0,0,1,.3.272c.02.037.028-.066.1-.1.142-.072.287.215.284.2-.007-.077-.023-.248.069-.29.137-.061.229.247.243.326,0,.008.023.045.025.033.015-.095.047-.222.148-.258.147-.053.178.25.174.326,0,.028.071-.071.121-.093.115-.051.18.042.238.12a2.52,2.52,0,0,1,.178-.4c.034-.045.112-.119.176-.109s.094.325.161.355c.047.021.136-.236.162-.249a.218.218,0,0,1,.257.091c.026.036.072.116.072.116s.026-.073.06-.085a.247.247,0,0,1,.23.073.56.56,0,0,1,.106.471c0,.025-.063.139-.06.138a.245.245,0,0,1,.1,0,.4.4,0,0,1,.248.151.246.246,0,0,1-.008.282.8.8,0,0,1-.1.088.4.4,0,0,1,.13-.008.271.271,0,0,1,.189.144.218.218,0,0,1-.028.218.346.346,0,0,1-.1.079.509.509,0,0,1-.071.014.356.356,0,0,1,.12.053.544.544,0,0,1,.209.339.193.193,0,0,1-.173.206c-.023,0-.088-.018-.109,0a.452.452,0,0,0,.061.045.51.51,0,0,1,.12.144.52.52,0,0,1-.014.51c-.061.067-.131.04-.19,0a1.179,1.179,0,0,1,.116.083.436.436,0,0,1,.136.33c-.013.1-.2.179-.28.189a.7.7,0,0,1-.136,0c-.012,0-.078-.029-.08-.017s.045.037.052.052a.656.656,0,0,1,.053.143.825.825,0,0,1-.055.437.361.361,0,0,1-.293.225.352.352,0,0,1-.194-.061c-.012-.008-.045-.014-.053,0-.029.055.011.146.013.2a.647.647,0,0,1-.135.458c-.1.1-.25.031-.333-.047-.021-.02-.031-.035-.052-.052s-.017-.053-.031-.042.04.142.042.165a.483.483,0,0,1-.041.255c-.047.092-.131-.011-.147.021s-.061.044-.065.076C161.025,681.552,160.868,681.35,160.868,681.35Z" transform="translate(-140.291 -601.345)" fill="#eee" fill-rule="evenodd"/>
      <path id="Path_4" data-name="Path 4" d="M140.629,715.455c.032-.075.082-.248.19-.224.077.018.085.152.092.205,0,.028,0,.083,0,.083s.029-.051.041-.078.12-.151.157-.154c.071,0,0,.182,0,.2,0,0-.029.069,0,.068s.08-.062.1-.075a1.3,1.3,0,0,1,.226-.129c.053-.02.136-.056.184,0a.322.322,0,0,1,.033.269c0,.023-.051.139-.033.138s.041-.05.052-.056c.084-.054.252-.17.307-.013.047.136-.2.3-.142.409.007.012.061-.02.072-.028.071-.046.137-.107.206-.158.017-.012.084-.036.1-.007.051.1.008.2-.008.3a1.178,1.178,0,0,0-.063.221c.018,0,.035-.067.1-.177a1.106,1.106,0,0,1,.181-.248c.021-.023.083-.084.125-.068a.21.21,0,0,1,.1.241c0,.011-.029.074-.014.084l.052-.056c.043-.046.183-.147.243-.062a.361.361,0,0,1,.061.222c0,.018-.021.144.009.142.014,0,.041-.05.052-.056.058-.039.276-.208.325-.067a.357.357,0,0,1-.05.207c0,.006-.039.066-.033.071s.114-.076.123-.084c.074-.057.267-.177.375-.139.126.046-.024.214-.068.261-.009.01-.093.1-.079.1.037,0,.111-.064.149-.078a.716.716,0,0,1,.518-.058c.12.053.026.205-.044.251a1.111,1.111,0,0,1-.118.061.521.521,0,0,1,.107-.014,1.444,1.444,0,0,1,.2.031c.139.031.373.2.367.344a.368.368,0,0,1-.121.235.263.263,0,0,1-.068.057c-.008,0-.031,0-.024.009s.112,0,.143.013a.416.416,0,0,1,.257.33.307.307,0,0,1-.18.23c-.04.022-.071.047-.108.067-.013.008-.051.015-.039.025.029.022.129.013.171.033a.321.321,0,0,1,.171.305c0,.067-.074.129-.13.16-.017.009-.1.013-.1.022a.691.691,0,0,0,.107.053c.084.037.2.163.189.251-.014.149-.2.207-.338.234a.731.731,0,0,1-.168,0l.123.052a.4.4,0,0,1,.212.227c.018.147-.227.112-.287.177,0,0,.043.019.044.02.041.03.08.04.11.083.061.086-.015.244-.088.3a.213.213,0,0,1-.278-.019c-.026-.02-.046-.066-.039-.043.049.14-.051.27-.226.265a.593.593,0,0,1-.4-.206c-.032-.032-.01.069-.077.118-.132.1-.373-.153-.367-.14.03.073.1.236.011.293-.129.085-.321-.2-.358-.269,0-.008-.039-.039-.036-.028.012.094.014.224-.083.277-.143.078-.267-.208-.284-.282-.007-.026-.055.081-.1.112-.109.071-.206-.007-.292-.071a2.084,2.084,0,0,1-.074.419c-.023.051-.087.136-.158.139s-.2-.3-.279-.313c-.057-.011-.076.254-.1.271a.277.277,0,0,1-.305-.04c-.04-.03-.112-.1-.112-.1s-.008.076-.039.093a.313.313,0,0,1-.27-.026.581.581,0,0,1-.254-.434,1.244,1.244,0,0,1,.024-.144.285.285,0,0,1-.107.014.514.514,0,0,1-.312-.1.232.232,0,0,1-.075-.273.762.762,0,0,1,.079-.1.454.454,0,0,1-.138.032.35.35,0,0,1-.246-.1.2.2,0,0,1-.035-.216.321.321,0,0,1,.088-.1.542.542,0,0,1,.072-.028.472.472,0,0,1-.146-.028.642.642,0,0,1-.326-.287c-.042-.106.017-.19.126-.233.023-.009.1,0,.119-.019a.535.535,0,0,0-.079-.032.656.656,0,0,1-.173-.117c-.11-.115-.221-.352-.136-.5.045-.077.13-.063.2-.036.008,0-.133-.046-.149-.057-.109-.083-.222-.151-.244-.292-.015-.1.157-.211.246-.236a.848.848,0,0,1,.147-.025c.014,0,.094.012.092,0s-.06-.028-.072-.041a.62.62,0,0,1-.1-.129.74.74,0,0,1-.069-.432.336.336,0,0,1,.25-.273.455.455,0,0,1,.228.022c.015.006.053.006.057-.011.014-.058-.055-.138-.074-.191a.562.562,0,0,1,.009-.467c.076-.12.261-.078.373-.018.029.015.043.028.072.041s.033.047.046.034-.085-.129-.094-.152a.419.419,0,0,1-.031-.254c.023-.1.144-.014.152-.049s.052-.054.047-.086C140.4,715.289,140.629,715.455,140.629,715.455Z" transform="translate(-123.791 -636.374)" fill="#eee" fill-rule="evenodd"/>
      <path id="Path_5" data-name="Path 5" d="M284.681,720.769c-.558-.072-.6-.27-1.185.424a8.43,8.43,0,0,0-1.056,1.839c.155,1.083-2.228.413-.439-.319a13.74,13.74,0,0,0,1.069-2.2c.043-.42-.431-.88-.431-.88Z" transform="translate(-250.314 -640.289)" fill="#eee" fill-rule="evenodd"/>
      <path id="Path_6" data-name="Path 6" d="M267.038,744.538l-.227-2.98c-.2-2.653,5.968.891,3.645,2.066l-2.647,1.337a.492.492,0,0,1-.771-.423" transform="translate(-237.389 -658.943)" fill="#eee" fill-rule="evenodd"/>
      <path id="Path_7" data-name="Path 7" d="M262.5,767.1l-.151-1.975c-.135-1.757,3.955.591,2.416,1.369l-1.754.886a.326.326,0,0,1-.51-.281" transform="translate(-233.426 -680.198)" fill="#eee" fill-rule="evenodd"/>
      <path id="Path_8" data-name="Path 8" d="M259.235,784.349l-.09-1.183c-.081-1.053,2.369.354,1.448.82l-1.051.531a.2.2,0,0,1-.307-.169" transform="translate(-230.571 -696.48)" fill="#eee" fill-rule="evenodd"/>
      <path id="Path_9" data-name="Path 9" d="M68.411,632.375l-18.369,5.788-.2-.642.567-.179-.128-.4-.567.179-.2-.642.568-.179-.128-.4-.567.179-.2-.642,18.369-5.789Z" transform="translate(-43.758 -560.221)" fill="#e2e2e2" fill-rule="evenodd"/>
      <path id="Path_10" data-name="Path 10" d="M18.486,473.25,0,479.076l.2.642.567-.179.127.4-.567.179.2.642.567-.179.128.406-.568.179.2.642,18.486-5.826Z" transform="translate(0 -421.074)" fill="#e2e2e2" fill-rule="evenodd"/>
      <path id="Path_11" data-name="Path 11" d="M50.222,604.541l-.2-.642.567-.179-.127-.406-.568.179-.2-.642.567-.179-.128-.4-.567.179-.2-.642.567-.179-.128-.4-.567.179-.2-.642,17.194-5.419,1.192,3.782Z" transform="translate(-43.624 -529.703)" fill="#cacaca" fill-rule="evenodd"/>
      <path id="Path_12" data-name="Path 12" d="M18.47,502.741l.2.642.567-.179.128.4-.568.179.2.642.567-.179.128.406-.567.179.2.642.567-.179.128.4-.567.179.2.642,17.613-5.551-1.192-3.782Z" transform="translate(-16.434 -442.374)" fill="#cacaca" fill-rule="evenodd"/>
      <path id="Path_13" data-name="Path 13" d="M20.811,545.4l-.2-.642.567-.179-.128-.4-.567.179-.2-.643.567-.179-.128-.4-.567.179-.2-.642.567-.179-.128-.4-.567.179-.2-.642.568-.179-.128-.4-.567.179-.2-.643.567-.178-.127-.406-.567.179-.2-.642.567-.179-.127-.4-.568.179-.2-.642L37,532.69l2.182,6.922-17.473,5.507Z" transform="translate(-16.576 -473.96)" fill="#e2e2e2" fill-rule="evenodd"/>
      <path id="Path_14" data-name="Path 14" d="M50.885,574.489a2.426,2.426,0,0,0,1.459,4.627l3.012-.949L53.9,573.54Z" transform="translate(-43.765 -510.306)" fill="#cacaca" fill-rule="evenodd"/>
      <path id="Path_15" data-name="Path 15" d="M53.629,576.926a2.143,2.143,0,0,0,1.288,4.088l2.971-.936L56.6,575.99Z" transform="translate(-46.382 -512.486)" fill="#e2e2e2" fill-rule="evenodd"/>
      <path id="Path_16" data-name="Path 16" d="M56.653,579.427a1.85,1.85,0,0,0,1.112,3.529l2.908-.916-1.112-3.53Z" transform="translate(-49.255 -514.728)" fill="#cacaca" fill-rule="evenodd"/>
      <path id="Path_17" data-name="Path 17" d="M59.321,581.659a1.592,1.592,0,1,0,.957,3.036l2.852-.9-.957-3.036Z" transform="translate(-51.79 -516.73)" fill="#e2e2e2" fill-rule="evenodd"/>
      <path id="Path_18" data-name="Path 18" d="M61.124,583.917a1.3,1.3,0,1,0,.784,2.488l2.911-.917L64.035,583Z" transform="translate(-53.573 -518.723)" fill="#cacaca" fill-rule="evenodd"/>
      <path id="Path_19" data-name="Path 19" d="M62.6,585.221a1.152,1.152,0,1,0,.693,2.2l2.889-.911-.692-2.2Z" transform="translate(-54.979 -519.889)" fill="#e2e2e2" fill-rule="evenodd"/>
      <path id="Path_20" data-name="Path 20" d="M64.225,586.58a.995.995,0,0,0,.6,1.9l2.854-.9-.6-1.9Z" transform="translate(-56.525 -521.108)" fill="#cacaca" fill-rule="evenodd"/>
      <path id="Path_21" data-name="Path 21" d="M65.657,587.77a.856.856,0,0,0,.515,1.633l2.825-.89-.515-1.633Z" transform="translate(-57.885 -522.176)" fill="#e2e2e2" fill-rule="evenodd"/>
      <path id="Path_22" data-name="Path 22" d="M67.068,588.972a.716.716,0,0,0,.43,1.365l2.8-.882-.43-1.365Z" transform="translate(-59.228 -523.252)" fill="#818181" fill-rule="evenodd"/>
      <path id="Path_23" data-name="Path 23" d="M119.845,547.981a2.426,2.426,0,1,0,1.459,4.627l4.89-1.541-1.459-4.627Z" transform="translate(-105.122 -486.194)" fill="#cacaca" fill-rule="evenodd"/>
      <path id="Path_24" data-name="Path 24" d="M102.072,649.925a.386.386,0,1,0,.232.736l1.576-.5-.232-.735Z" transform="translate(-90.578 -577.829)" fill="#b3b3b3" fill-rule="evenodd"/>
      <path id="Path_25" data-name="Path 25" d="M65.069,532.5a.386.386,0,1,1-.232-.736l1.576-.5.232.735Z" transform="translate(-57.449 -472.697)" fill="#b3b3b3" fill-rule="evenodd"/>
      <path id="Path_26" data-name="Path 26" d="M95.412,628.785a.386.386,0,0,0,.232.737l1.576-.5-.232-.735Z" transform="translate(-84.652 -559.02)" fill="#b3b3b3" fill-rule="evenodd"/>
      <path id="Path_27" data-name="Path 27" d="M71.729,553.643a.386.386,0,1,1-.232-.736l1.576-.5.232.735Z" transform="translate(-63.374 -491.506)" fill="#b3b3b3" fill-rule="evenodd"/>
      <path id="Path_28" data-name="Path 28" d="M99.483,643.585a.193.193,0,0,0,.116.367l1.76-.555-.116-.367Z" transform="translate(-88.395 -572.135)" fill="#b3b3b3" fill-rule="evenodd"/>
      <path id="Path_29" data-name="Path 29" d="M67.439,541.922a.192.192,0,1,1-.116-.367l1.76-.555.116.367Z" transform="translate(-59.781 -481.354)" fill="#b3b3b3" fill-rule="evenodd"/>
      <path id="Path_30" data-name="Path 30" d="M125.473,632.675a.192.192,0,1,0,.116.367l1.76-.555-.116-.367Z" transform="translate(-111.52 -562.428)" fill="#b3b3b3" fill-rule="evenodd"/>
      <path id="Path_31" data-name="Path 31" d="M94.989,535.962a.192.192,0,1,1-.116-.367l1.76-.555.116.367Z" transform="translate(-84.293 -476.051)" fill="#b3b3b3" fill-rule="evenodd"/>
      <path id="Path_32" data-name="Path 32" d="M97.833,638.355a.192.192,0,1,0,.116.367l1.76-.555-.116-.367Z" transform="translate(-86.927 -567.482)" fill="#b3b3b3" fill-rule="evenodd"/>
      <path id="Path_33" data-name="Path 33" d="M69.089,547.152a.192.192,0,1,1-.116-.367l1.76-.555.116.367Z" transform="translate(-61.249 -486.007)" fill="#b3b3b3" fill-rule="evenodd"/>
      <rect id="Rectangle_2" data-name="Rectangle 2" width="0.049" height="3.949" transform="translate(10.598 69.439) rotate(-17.493)" fill="#b3b3b3"/>
      <path id="Path_34" data-name="Path 34" d="M66.707,536.362l-1.187-3.767.046-.014,1.187,3.767Z" transform="translate(-58.296 -473.862)" fill="#b3b3b3" fill-rule="evenodd"/>
      <path id="Path_35" data-name="Path 35" d="M112.13,624.625l1.187,3.766.046-.014-1.186-3.767Z" transform="translate(-99.767 -555.746)" fill="#b3b3b3" fill-rule="evenodd"/>
      <path id="Path_36" data-name="Path 36" d="M82.727,531.312l-1.187-3.767.046-.014,1.187,3.767Z" transform="translate(-72.55 -469.369)" fill="#b3b3b3" fill-rule="evenodd"/>
      <rect id="Rectangle_3" data-name="Rectangle 3" width="0.049" height="3.949" transform="translate(10.521 69.464) rotate(-17.493)" fill="#b3b3b3"/>
      <rect id="Rectangle_4" data-name="Rectangle 4" width="0.049" height="3.949" transform="translate(7.147 58.759) rotate(-17.493)" fill="#b3b3b3"/>
      <rect id="Rectangle_5" data-name="Rectangle 5" width="0.049" height="3.949" transform="translate(12.285 68.908) rotate(-17.493)" fill="#b3b3b3"/>
      <rect id="Rectangle_6" data-name="Rectangle 6" width="0.049" height="3.949" transform="translate(8.911 58.204) rotate(-17.493)" fill="#b3b3b3"/>
      <rect id="Rectangle_7" data-name="Rectangle 7" width="0.107" height="7.456" transform="translate(9.743 61.994) rotate(-17.493)" fill="#f3f3f3"/>
      <rect id="Rectangle_8" data-name="Rectangle 8" width="0.089" height="1.467" transform="translate(6.598 62.949) rotate(-17.493)" fill="#f3f3f3"/>
      <rect id="Rectangle_9" data-name="Rectangle 9" width="0.089" height="1.467" transform="translate(14.048 60.6) rotate(-17.493)" fill="#f3f3f3"/>
      <rect id="Rectangle_10" data-name="Rectangle 10" width="0.089" height="1.467" transform="translate(8.413 68.714) rotate(-17.493)" fill="#f3f3f3"/>
      <rect id="Rectangle_11" data-name="Rectangle 11" width="0.089" height="1.467" transform="translate(15.866 66.366) rotate(-17.493)" fill="#f3f3f3"/>
      <rect id="Rectangle_12" data-name="Rectangle 12" width="0.105" height="7.313" transform="translate(9.926 62.012) rotate(-17.493)" fill="#f3f3f3"/>
      <rect id="Rectangle_13" data-name="Rectangle 13" width="0.088" height="1.44" transform="translate(6.738 62.92) rotate(-17.493)" fill="#f3f3f3"/>
      <rect id="Rectangle_14" data-name="Rectangle 14" width="0.088" height="1.439" transform="translate(14.191 60.57) rotate(-17.493)" fill="#f3f3f3"/>
      <rect id="Rectangle_15" data-name="Rectangle 15" width="0.088" height="1.44" transform="translate(8.556 68.684) rotate(-17.493)" fill="#f3f3f3"/>
      <rect id="Rectangle_16" data-name="Rectangle 16" width="0.088" height="1.44" transform="translate(16.008 66.335) rotate(-17.493)" fill="#f3f3f3"/>
      <rect id="Rectangle_17" data-name="Rectangle 17" width="0.063" height="7.456" transform="translate(9.844 61.963) rotate(-17.493)" fill="#cacaca"/>
      <rect id="Rectangle_18" data-name="Rectangle 18" width="0.053" height="1.467" transform="translate(6.681 62.922) rotate(-17.493)" fill="#cacaca"/>
      <rect id="Rectangle_19" data-name="Rectangle 19" width="0.053" height="1.467" transform="translate(14.135 60.574) rotate(-17.493)" fill="#cacaca"/>
      <rect id="Rectangle_20" data-name="Rectangle 20" width="0.053" height="1.467" transform="translate(8.498 68.688) rotate(-17.493)" fill="#cacaca"/>
      <rect id="Rectangle_21" data-name="Rectangle 21" width="0.053" height="1.467" transform="translate(15.952 66.338) rotate(-17.493)" fill="#cacaca"/>
      <rect id="Rectangle_22" data-name="Rectangle 22" width="0.062" height="7.313" transform="translate(10.027 61.979) rotate(-17.493)" fill="#cacaca"/>
      <rect id="Rectangle_23" data-name="Rectangle 23" width="0.052" height="1.44" transform="translate(6.823 62.893) rotate(-17.493)" fill="#cacaca"/>
      <path id="Path_37" data-name="Path 37" d="M129.46,549l.432,1.374.049-.015-.432-1.374Z" transform="translate(-115.187 -488.454)" fill="#cacaca" fill-rule="evenodd"/>
      <rect id="Rectangle_24" data-name="Rectangle 24" width="0.052" height="1.44" transform="translate(8.64 68.657) rotate(-17.493)" fill="#cacaca"/>
      <rect id="Rectangle_25" data-name="Rectangle 25" width="0.052" height="1.44" transform="translate(16.092 66.309) rotate(-17.493)" fill="#cacaca"/>
      <path id="Path_38" data-name="Path 38" d="M100.272,644.467a.113.113,0,0,0,.067.215l1.674-.527-.067-.215Z" transform="translate(-89.146 -572.944)" fill="#818181" fill-rule="evenodd"/>
      <path id="Path_39" data-name="Path 39" d="M68.189,542.642a.113.113,0,1,1-.067-.215L69.8,541.9l.067.215Z" transform="translate(-60.541 -482.155)" fill="#818181" fill-rule="evenodd"/>
      <path id="Path_40" data-name="Path 40" d="M126.947,634.114a.06.06,0,0,0,.035.115l1.6-.5-.036-.115Z" transform="translate(-112.913 -563.753)" fill="#818181" fill-rule="evenodd"/>
      <path id="Path_41" data-name="Path 41" d="M96.4,537.149a.06.06,0,1,1-.035-.115l1.6-.5.036.115Z" transform="translate(-85.705 -477.377)" fill="#818181" fill-rule="evenodd"/>
      <path id="Path_42" data-name="Path 42" d="M98.622,639.237a.113.113,0,0,0,.067.215l1.674-.527-.067-.215Z" transform="translate(-87.678 -568.291)" fill="#818181" fill-rule="evenodd"/>
      <path id="Path_43" data-name="Path 43" d="M69.829,547.872a.113.113,0,1,1-.067-.215l1.674-.527.067.215Z" transform="translate(-62 -486.808)" fill="#818181" fill-rule="evenodd"/>
      <path id="Path_44" data-name="Path 44" d="M92.84,560.01l.069.219-.137.043a.238.238,0,0,0,.143.454l.137-.043.068.216-.137.043a.238.238,0,1,0,.143.454l.137-.043.068.216-.137.043a.238.238,0,1,0,.143.454l.137-.043.068.216-.137.043a.238.238,0,1,0,.143.454l.137-.043.068.216-.137.043a.238.238,0,1,0,.143.454l.137-.043.068.216-.137.043a.238.238,0,1,0,.143.454l.137-.043.068.216-.137.043a.238.238,0,0,0,.143.454l.137-.043.068.216-.137.043a.238.238,0,0,0,.143.454l.137-.043.068.216-.137.043a.238.238,0,1,0,.143.454l.137-.043.068.216-.137.043a.238.238,0,1,0,.143.454l.137-.043.069.219-.716.226L92.13,560.24Z" transform="translate(-81.972 -498.268)" fill="#cacaca" fill-rule="evenodd"/>
      <path id="Path_45" data-name="Path 45" d="M92.28,560.18l.069.219-.137.043a.238.238,0,0,0,.143.454l.137-.043.068.216-.137.043a.238.238,0,1,0,.143.454l.137-.043.068.216-.137.043a.238.238,0,1,0,.143.454l.137-.043.068.216-.137.043a.238.238,0,1,0,.143.454l.137-.043.068.216-.137.043a.238.238,0,1,0,.143.454l.137-.043.068.216-.137.043a.238.238,0,1,0,.143.454l.137-.043.068.216-.137.043a.238.238,0,1,0,.143.454l.137-.043.068.216-.137.043a.238.238,0,0,0,.143.454l.137-.043.068.216-.137.043a.238.238,0,0,0,.143.454l.137-.043.068.216-.137.043a.238.238,0,1,0,.143.454l.137-.043.069.219-.716.225-2.182-6.922Z" transform="translate(-81.474 -498.419)" fill="#e2e2e2" fill-rule="evenodd"/>
      <path id="Path_46" data-name="Path 46" d="M122.829,554.307a2.143,2.143,0,0,0,1.288,4.088l3.291-1.037-1.288-4.088Z" transform="translate(-107.953 -492.271)" fill="#e2e2e2" fill-rule="evenodd"/>
      <path id="Path_47" data-name="Path 47" d="M125.852,556.8a1.85,1.85,0,0,0,1.112,3.529l3.228-1.018-1.112-3.53Z" transform="translate(-110.825 -494.504)" fill="#cacaca" fill-rule="evenodd"/>
      <path id="Path_48" data-name="Path 48" d="M128.521,559.03a1.592,1.592,0,0,0,.957,3.036l3.172-1-.957-3.036Z" transform="translate(-113.361 -496.506)" fill="#e2e2e2" fill-rule="evenodd"/>
      <path id="Path_49" data-name="Path 49" d="M130.324,561.307a1.3,1.3,0,0,0,.783,2.488l3.23-1.018-.784-2.487Z" transform="translate(-115.144 -498.517)" fill="#cacaca" fill-rule="evenodd"/>
      <path id="Path_50" data-name="Path 50" d="M131.8,562.6a1.152,1.152,0,0,0,.692,2.2l3.208-1.011-.692-2.2Z" transform="translate(-116.55 -499.674)" fill="#e2e2e2" fill-rule="evenodd"/>
      <path id="Path_51" data-name="Path 51" d="M133.425,563.96a.995.995,0,0,0,.6,1.9l3.174-1-.6-1.9Z" transform="translate(-118.096 -500.893)" fill="#cacaca" fill-rule="evenodd"/>
      <path id="Path_52" data-name="Path 52" d="M134.858,565.15a.856.856,0,0,0,.515,1.633l3.144-.991L138,564.16Z" transform="translate(-119.457 -501.961)" fill="#e2e2e2" fill-rule="evenodd"/>
      <path id="Path_53" data-name="Path 53" d="M136.268,566.352a.716.716,0,1,0,.43,1.365l3.118-.982-.43-1.365Z" transform="translate(-120.798 -503.037)" fill="#818181" fill-rule="evenodd"/>
      <path id="Path_54" data-name="Path 54" d="M37.95,331.54l6.58,1.391-1.5,3.014Z" transform="translate(-33.766 -294.988)" fill="#b3b3b3" fill-rule="evenodd"/>
      <path id="Path_55" data-name="Path 55" d="M37.95,331.54l6.58,1.391-1.5,3.014Z" transform="translate(-33.766 -294.988)" fill="none" stroke="#b3b3b3" stroke-linecap="round" stroke-linejoin="round" stroke-miterlimit="10" stroke-width="1"/>
      <path id="Path_56" data-name="Path 56" d="M79.47,248.09l6.58,1.391-1.5,3.013Z" transform="translate(-70.708 -220.738)" fill="#b3b3b3" fill-rule="evenodd"/>
      <path id="Path_57" data-name="Path 57" d="M79.47,248.09l6.58,1.391-1.5,3.013Z" transform="translate(-70.708 -220.738)" fill="none" stroke="#b3b3b3" stroke-linecap="round" stroke-linejoin="round" stroke-miterlimit="10" stroke-width="1"/>
      <path id="Path_58" data-name="Path 58" d="M35.11,383.344a1.037,1.037,0,0,1,.112.08s.064.063.127.131.011.248.017.232.19.04.19.04-.037-.05.1-.085.444-.068.447-.149.013-.066.147-.127.093-.019.161-.127a2.792,2.792,0,0,0,.168-.436l-.149-.011.031-.132s.061.017-.04-.019a.837.837,0,0,0-.409-.01c-.052.033-.229.233-.287.2-.119-.079,0-.129-.052-.165s-.052,0-.077,0Zm-2.293,2.743-.534,1.551c-.044.106-.375-.071-.653-.319-.249-.223-.454-.513-.374-.566.012-.009.943-.553,1.408-.826.305-.342,1.084-1.215,1.757-1.978a.279.279,0,0,1,.013-.04c.014-.034.033-.041.071-.055l.01-.011a.121.121,0,0,1-.026-.024.1.1,0,0,1,.062-.161c.049-.01-.026.018-.025-.107,0-.071.032-.074.179-.144s.108.012.185-.094a.094.094,0,0,1,.109-.021c.265-.3.464-.536.535-.627-.015,0-.029,0-.032-.015-.009-.033-.026-.087-.026-.087a.54.54,0,0,1-.12-.022,1.963,1.963,0,0,1,.011-.354s-.06-.1-.109-.1-.17-.065-.2-.314.5-.618.708-.731.588.159.857.253a.261.261,0,0,1,.17.349s.022.169.2.045a.991.991,0,0,1,.756.018c.222.077,1.25.319,2.09.569s2.151.481,2.151.481l0,.763-.418-.069s1.341.581,1.66.778.462-.063.742,0a3.947,3.947,0,0,1,1.306.646l.05-.115a4.448,4.448,0,0,0,1.194.37.624.624,0,0,1,.4.191c.056.085-.161.506-.161.506l-.148-.009a.361.361,0,0,0,.008.3c.1.137-.3,1.058-.3,1.058l-.126-.035,0-.051-.161-.026c-.122-.021-.019-.159.026-.412a.72.72,0,0,0-.122-.609,6,6,0,0,0-.891-.322l.011-.1a.748.748,0,0,1-.137-.035,6.485,6.485,0,0,0-1.4-.338c-.12.066-.174,0-.544-.05s-2.041-.562-2.041-.562l-.211.422s-.784-.356-1.065-.54a8.182,8.182,0,0,0-1.433-.5,5.3,5.3,0,0,1-.926-.388l-.094-.061s-.085.184-.222.431a2.822,2.822,0,0,1-.686.768c-.276.2-.3.148-.3.148l-.57-.5a1.422,1.422,0,0,0-.311-.056c-.146-.009-.112.083-.229.077-.176-.008-.095-.007-.3-.01s-.2-.036-.182-.141c.009-.043.05-.053.049-.062s-.009-.04-.014-.06C33.811,384.915,33.117,385.748,32.817,386.087Z" transform="translate(-27.795 -339.009)" fill="#b3b3b3" fill-rule="evenodd"/>
      <path id="Path_59" data-name="Path 59" d="M66.418,426.807a.81.81,0,0,1,.092.051s.054.042.107.086.03.185.033.172.144.012.144.012-.032-.034.065-.072.325-.091.32-.152,0-.051.1-.108.067-.022.109-.109a2.054,2.054,0,0,0,.086-.342l-.112.006.011-.1s.046.007-.031-.01a.617.617,0,0,0-.305.03c-.036.03-.151.2-.2.172-.1-.049-.014-.1-.053-.119s-.039.008-.058,0C66.664,426.421,66.554,426.593,66.418,426.807Zm-1.466,2.263c-.088.411-.258,1.2-.26,1.211-.023.084-.286-.019-.515-.18-.205-.144-.384-.343-.329-.389l.977-.746c.2-.284.7-1.009,1.134-1.642,0-.01,0-.02.006-.031.008-.028.021-.034.047-.047l.007-.01a.075.075,0,0,1-.022-.017.073.073,0,0,1,.032-.126c.035-.012-.018.015-.028-.078-.006-.053.018-.058.12-.125s.082,0,.13-.087a.071.071,0,0,1,.079-.026c.17-.251.3-.443.343-.518-.012,0-.022,0-.025-.009s-.028-.063-.028-.063a.414.414,0,0,1-.092-.006,1.5,1.5,0,0,1-.023-.266s-.054-.069-.09-.064-.132-.033-.176-.217.318-.508.463-.612.452.065.66.111a.2.2,0,0,1,.158.247s.032.125.149.017a.744.744,0,0,1,.566-.055c.172.037.96.125,1.609.236s1.646.165,1.646.165l.064.572-.318-.013s1.051.313,1.306.432.338-.089.552-.069a2.949,2.949,0,0,1,1.031.365l.026-.09a3.3,3.3,0,0,0,.923.169.465.465,0,0,1,.314.107c.05.058-.075.394-.075.394l-.111.008a.271.271,0,0,0,.032.22c.085.094-.131.82-.131.82l-.1-.015,0-.039-.122-.005c-.093,0-.028-.118-.017-.312a.551.551,0,0,0-.144-.445,4.545,4.545,0,0,0-.692-.161v-.075a.51.51,0,0,1-.1-.014,4.826,4.826,0,0,0-1.076-.126c-.084.061-.129.019-.409.012s-1.57-.236-1.57-.236l-.12.335s-.616-.2-.842-.309a6.114,6.114,0,0,0-1.112-.246,3.96,3.96,0,0,1-.724-.206L68,426.779s-.046.146-.127.344a2.134,2.134,0,0,1-.443.638c-.187.176-.209.138-.209.138l-.47-.324a1.041,1.041,0,0,0-.237-.014c-.109.007-.076.072-.164.078-.132.01-.072,0-.222.019s-.154-.009-.148-.089c0-.033.033-.044.031-.051s-.011-.029-.015-.043C65.589,428.1,65.146,428.788,64.952,429.07Z" transform="translate(-56.8 -378.134)" fill="#e2e2e2" fill-rule="evenodd"/>
      <rect id="Rectangle_26" data-name="Rectangle 26" width="2.961" height="10.428" transform="matrix(0.445, -0.896, 0.896, 0.445, 9.957, 41.015)" fill="#e2e2e2"/>
      <rect id="Rectangle_27" data-name="Rectangle 27" width="2.961" height="10.588" transform="matrix(0.445, -0.896, 0.896, 0.445, 14.536, 31.813)" fill="#e2e2e2"/>
      <path id="Path_60" data-name="Path 60" d="M77.675,336.23l-.347.7.617.307-.219.44-.616-.306-.347.7.616.307-.218.441-.617-.306-.346.7.616.306-.219.441-.616-.308-.347.7.976.484.256.128,2.045-4.114Z" transform="translate(-67.292 -299.161)" fill="#e2e2e2" fill-rule="evenodd"/>
      <path id="Path_61" data-name="Path 61" d="M119.2,252.77l-.347.7.617.307-.219.44-.616-.307-.347.7.616.307-.218.441-.616-.307-.347.7.616.307-.218.44-.617-.307-.346.7.975.485.256.127,2.045-4.114Z" transform="translate(-104.243 -224.902)" fill="#e2e2e2" fill-rule="evenodd"/>
      <rect id="Rectangle_28" data-name="Rectangle 28" width="4.594" height="0.17" transform="matrix(0.445, -0.896, 0.896, 0.445, 9.419, 41.717)" fill="#cacaca"/>
      <rect id="Rectangle_29" data-name="Rectangle 29" width="4.594" height="0.17" transform="matrix(0.445, -0.896, 0.896, 0.445, 13.996, 32.517)" fill="#cacaca"/>
      <path id="Path_62" data-name="Path 62" d="M116.551,369.6a.16.16,0,1,1,.142-.287l2.24,1.114-.142.288Z" transform="translate(-103.622 -328.58)" fill="#818181" fill-rule="evenodd"/>
      <path id="Path_63" data-name="Path 63" d="M158.074,286.146a.161.161,0,0,1,.143-.288l2.241,1.114-.142.288Z" transform="translate(-140.567 -254.328)" fill="#818181" fill-rule="evenodd"/>
      <path id="Path_64" data-name="Path 64" d="M151.939,386.965a.235.235,0,1,1,.209-.421l.709.353-.209.42Z" transform="translate(-135.072 -343.905)" fill="#818181" fill-rule="evenodd"/>
      <path id="Path_65" data-name="Path 65" d="M193.459,303.515a.235.235,0,0,1,.208-.421l.709.353-.209.421Z" transform="translate(-172.014 -269.656)" fill="#818181" fill-rule="evenodd"/>
      <path id="Path_66" data-name="Path 66" d="M123.365,297.569l-3.257,6.55-8.044-4,.463-.932-.5-.247.212-.426.5.247.319-.639-.5-.247.212-.426.5.247.319-.641-.5-.247.211-.426.5.247.319-.641-.5-.247.212-.426.5.247.318-.641-.5-.247.212-.426.5.247.463-.931Z" transform="translate(-99.678 -261.204)" fill="#cacaca" fill-rule="evenodd"/>
      <path id="Path_67" data-name="Path 67" d="M117.88,317.579l.8-.139-.428.86Z" transform="translate(-104.883 -282.442)" fill="#e2e2e2" fill-rule="evenodd"/>
      <path id="Path_68" data-name="Path 68" d="M108.27,336.9l.8-.14-.428.861Z" transform="translate(-96.333 -299.632)" fill="#e2e2e2" fill-rule="evenodd"/>
      <path id="Path_69" data-name="Path 69" d="M122.69,307.909l.8-.139-.427.86Z" transform="translate(-109.163 -273.838)" fill="#e2e2e2" fill-rule="evenodd"/>
      <path id="Path_70" data-name="Path 70" d="M113.08,327.239l.8-.139-.428.86Z" transform="translate(-100.613 -291.037)" fill="#e2e2e2" fill-rule="evenodd"/>
      <path id="Path_71" data-name="Path 71" d="M127.5,298.23l.8-.14-.427.861Z" transform="translate(-113.443 -265.226)" fill="#e2e2e2" fill-rule="evenodd"/>
      <path id="Path_72" data-name="Path 72" d="M164.966,334.193a4.759,4.759,0,0,1,5-.453l.042.021-2.344,4.716-.042-.021A4.763,4.763,0,0,1,164.966,334.193Z" transform="translate(-146.771 -296.501)" fill="#cacaca" fill-rule="evenodd"/>
      <path id="Path_73" data-name="Path 73" d="M167.231,336.656a4.547,4.547,0,0,1,4.617-.3l.045.023-2.072,4.169-.045-.023A4.547,4.547,0,0,1,167.231,336.656Z" transform="translate(-148.788 -298.842)" fill="#b0b0b0" fill-rule="evenodd"/>
      <path id="Path_74" data-name="Path 74" d="M170.833,339.9a3.821,3.821,0,0,1,3.8-.2l.264.131-1.664,3.346-.264-.131A3.818,3.818,0,0,1,170.833,339.9Z" transform="translate(-151.994 -301.892)" fill="#818181" fill-rule="evenodd"/>
      <rect id="Rectangle_30" data-name="Rectangle 30" width="0.406" height="0.331" transform="translate(16.062 39.544) rotate(-63.576)" fill="#bcbcbc"/>
      <rect id="Rectangle_31" data-name="Rectangle 31" width="0.406" height="0.331" transform="matrix(0.445, -0.896, 0.896, 0.445, 17.126, 37.405)" fill="#bcbcbc"/>
      <rect id="Rectangle_32" data-name="Rectangle 32" width="0.406" height="0.331" transform="matrix(0.445, -0.896, 0.896, 0.445, 16.594, 38.473)" fill="#bcbcbc"/>
      <rect id="Rectangle_33" data-name="Rectangle 33" width="0.406" height="0.331" transform="translate(17.656 36.337) rotate(-63.576)" fill="#bcbcbc"/>
      <rect id="Rectangle_34" data-name="Rectangle 34" width="0.406" height="0.331" transform="matrix(0.445, -0.896, 0.896, 0.445, 18.184, 35.278)" fill="#bcbcbc"/>
      <rect id="Rectangle_35" data-name="Rectangle 35" width="0.406" height="0.221" transform="matrix(0.445, -0.896, 0.896, 0.445, 16.014, 39.517)" fill="#e2e2e2"/>
      <rect id="Rectangle_36" data-name="Rectangle 36" width="0.406" height="0.221" transform="matrix(0.445, -0.896, 0.896, 0.445, 17.077, 37.38)" fill="#e2e2e2"/>
      <rect id="Rectangle_37" data-name="Rectangle 37" width="0.406" height="0.221" transform="matrix(0.445, -0.896, 0.896, 0.445, 16.546, 38.449)" fill="#e2e2e2"/>
      <rect id="Rectangle_38" data-name="Rectangle 38" width="0.406" height="0.221" transform="translate(17.607 36.313) rotate(-63.576)" fill="#e2e2e2"/>
      <rect id="Rectangle_39" data-name="Rectangle 39" width="0.406" height="0.221" transform="matrix(0.445, -0.896, 0.896, 0.445, 18.135, 35.253)" fill="#e2e2e2"/>
      <rect id="Rectangle_40" data-name="Rectangle 40" width="4.116" height="1.883" transform="matrix(0.445, -0.896, 0.896, 0.445, 14.235, 38.044)" fill="#9b9b9b"/>
      <path id="Path_75" data-name="Path 75" d="M131.38,329.22l-1.69-.84a5.318,5.318,0,0,0-.87,1.75c0,.014,1.677.847,1.679.835a6.018,6.018,0,0,1,.881-1.744" transform="translate(-114.617 -292.176)" fill="#dbdbdb" fill-rule="evenodd"/>
      <path id="Path_76" data-name="Path 76" d="M138.69,314.529l-1.69-.84a5.331,5.331,0,0,1,.87-1.75c.01-.01,1.687.826,1.679.835a5.994,5.994,0,0,0-.859,1.755" transform="translate(-121.895 -277.548)" fill="#dbdbdb" fill-rule="evenodd"/>
      <path id="Path_77" data-name="Path 77" d="M240.982,4.662a.1.1,0,0,1-.063-.182l-.131-.381-.2.069.04.116a.1.1,0,0,1,.094.069.1.1,0,0,1-.031.112l.128.372.2-.069Zm.18-.359a.1.1,0,0,1-.094-.069.1.1,0,0,1,.032-.112L241.06,4l-.2.069.131.383a.1.1,0,0,1,.093.069.1.1,0,0,1-.03.111l.036.106.2-.069Zm.364.173a.1.1,0,0,1-.095-.069.1.1,0,0,1,.032-.114l-.131-.381-.2.069.04.116a.1.1,0,0,1,.093.069.1.1,0,0,1-.03.111l.128.372.2-.069Zm.18-.359a.1.1,0,0,1-.095-.069.1.1,0,0,1,.032-.114l-.04-.115-.2.069.131.383a.1.1,0,0,1,.062.181l.036.106.2-.069Zm.364.173a.1.1,0,0,1-.063-.183l-.131-.381-.2.069.04.116a.1.1,0,0,1,.062.181l.128.373.2-.069Zm.18-.359a.1.1,0,0,1-.1-.069.1.1,0,0,1,.033-.114l-.04-.115-.2.069.131.383a.1.1,0,0,1,.062.18l.036.106.2-.069Zm.363.171a.1.1,0,0,1-.09-.069.1.1,0,0,1,.029-.11l-.131-.383-.2.069.04.117a.1.1,0,0,1,.062.18l.128.373.2-.069Zm.181-.359a.1.1,0,0,1-.09-.069.1.1,0,0,1,.029-.11l-.04-.117-.2.069.131.38a.1.1,0,0,1,.1.069.1.1,0,0,1-.033.115l.036.1.2-.069Zm.363.173a.1.1,0,0,1-.092-.069.1.1,0,0,1,.029-.111l-.131-.383-.2.069.04.115a.105.105,0,0,1,.1.069.1.1,0,0,1-.033.115l.127.37.2-.069Zm.181-.359a.1.1,0,0,1-.063-.181l-.04-.116-.2.069.131.381a.105.105,0,0,1,.1.069.1.1,0,0,1-.033.114l.036.1.2-.069Zm.363.173a.1.1,0,0,1-.062-.181l-.131-.383-.2.069.04.115a.1.1,0,0,1,.1.069.1.1,0,0,1-.033.114l.127.37.2-.069Zm.181-.359a.1.1,0,0,1-.062-.181l-.04-.116-.2.069.131.381a.1.1,0,0,1,.095.069.1.1,0,0,1-.032.114l.036.1.2-.069Zm.363.173a.1.1,0,0,1-.093-.069.1.1,0,0,1,.031-.112l-.131-.383-.2.069.04.115a.1.1,0,0,1,.095.069.1.1,0,0,1-.032.114l.128.37.2-.069Zm.181-.359a.1.1,0,0,1-.093-.069A.1.1,0,0,1,244.361,3l-.04-.116-.2.069.131.381a.1.1,0,0,1,.063.182l.036.1.2-.069Zm.364.175a.1.1,0,0,1-.1-.069.1.1,0,0,1,.034-.115l-.13-.38-.2.069.04.116a.1.1,0,0,1,.063.182l.128.372.2-.069ZM241.247,0a.1.1,0,0,1,.1.179l1.12,3.261,2.174-.746.012.035.143.418a.1.1,0,0,1,.062.179l.049.141.012.035-.035.012-4.348,1.493-.034.012-.012-.035-.049-.14a.1.1,0,0,1-.094-.069.1.1,0,0,1,.031-.112l-.143-.417-.012-.035,2.174-.746L241.274.2a.1.1,0,0,1-.09-.069A.1.1,0,0,1,241.247,0Zm-.7,4.925.2-.069-.128-.372a.1.1,0,0,1-.094-.069.1.1,0,0,1,.031-.112l-.04-.116-.2.069.131.381a.1.1,0,0,1,.094.069.1.1,0,0,1-.031.112Z" transform="translate(-213.735 0)" fill="#818181"/>
      <rect id="Rectangle_41" data-name="Rectangle 41" width="4.908" height="7.654" transform="matrix(0.946, -0.325, 0.325, 0.946, 29.576, 13.587)" fill="#c6c6c6"/>
      <rect id="Rectangle_42" data-name="Rectangle 42" width="4.273" height="8.957" transform="matrix(0.946, -0.325, 0.325, 0.946, 26.968, 5.011)" fill="#c6c6c6"/>
      <path id="Path_78" data-name="Path 78" d="M256.041,65.979l2.816-.967c.225-.077.256-.717.12-1.682l-4.057,1.394C255.4,65.571,255.814,66.057,256.041,65.979Z" transform="translate(-226.814 -56.349)" fill="#bcbcbc" fill-rule="evenodd" opacity="0.441"/>
      <path id="Path_79" data-name="Path 79" d="M267.623,70.531h0a1.16,1.16,0,0,1,1.466.724l1,2.926-2.179.748-1-2.926A1.16,1.16,0,0,1,267.623,70.531Z" transform="translate(-237.427 -62.7)" fill="#a0a0a0" fill-rule="evenodd"/>
      <path id="Path_80" data-name="Path 80" d="M270.576,73.928h0a.818.818,0,0,1,1.034.51l.87,2.534-1.537.528-.87-2.534a.819.819,0,0,1,.5-1.039" transform="translate(-240.258 -65.739)" fill="#818181" fill-rule="evenodd"/>
      <rect id="Rectangle_43" data-name="Rectangle 43" width="4.669" height="1.366" transform="matrix(0.946, -0.325, 0.325, 0.946, 29.246, 12.256)" fill="#c6c6c6"/>
      <path id="Path_81" data-name="Path 81" d="M271.013,116.169l3.2-1.1c.256-.088.068-1.461-.442-3.6l-4.614,1.584C270.066,115.061,270.756,116.257,271.013,116.169Z" transform="translate(-239.484 -99.181)" fill="#bcbcbc" fill-rule="evenodd"/>
      <path id="Path_82" data-name="Path 82" d="M265.692,108.118l4.688-1.61a.308.308,0,0,0-.2-.582l-4.688,1.61a.308.308,0,0,0,.2.582" transform="translate(-236.039 -94.234)" fill="#a0a0a0" fill-rule="evenodd"/>
      <path id="Path_83" data-name="Path 83" d="M270.543,105.977a.3.3,0,0,0-.289-.051l-4.688,1.61a.3.3,0,0,0-.2.217Z" transform="translate(-236.112 -94.234)" fill="#ddd" fill-rule="evenodd"/>
      <rect id="Rectangle_44" data-name="Rectangle 44" width="3.903" height="6.827" transform="matrix(0.946, -0.325, 0.325, 0.946, 30.321, 14.206)" fill="#a4a4a4"/>
      <rect id="Rectangle_45" data-name="Rectangle 45" width="3.433" height="6.695" transform="matrix(0.946, -0.325, 0.325, 0.946, 30.585, 14.254)" fill="#c6c6c6"/>
      <path id="Path_84" data-name="Path 84" d="M287.445,126.463a.819.819,0,0,0,.5-1.039v0l-1.537.528v0a.817.817,0,0,0,1.034.51" transform="translate(-254.832 -111.593)" fill="#818181" fill-rule="evenodd"/>
      <path id="Path_85" data-name="Path 85" d="M239.7,32.442l4.688-1.61a.308.308,0,0,0-.2-.582l-4.688,1.61a.308.308,0,0,0,.2.582" transform="translate(-212.914 -26.901)" fill="#a0a0a0" fill-rule="evenodd"/>
      <path id="Path_86" data-name="Path 86" d="M250.913,34.616a1.994,1.994,0,1,1-1.224,2.528,1.985,1.985,0,0,1,1.224-2.528" transform="translate(-222.063 -30.705)" fill="#a0a0a0" fill-rule="evenodd"/>
      <path id="Path_87" data-name="Path 87" d="M257,53.961h0a.862.862,0,0,0-1.088-.466l-.086.03a1.294,1.294,0,0,1-2.208.757l-.109.037a.846.846,0,0,0-.551,1.029Z" transform="translate(-225.038 -47.555)" fill="#ddd" fill-rule="evenodd"/>
      <path id="Path_88" data-name="Path 88" d="M247.457,39.42l.153-.053a1.358,1.358,0,0,0,2.454-.843l.13-.044c.218-.075.24-.72.109-1.659l-1.19.408a1.351,1.351,0,0,0-1.549.531l-1.205.413C246.829,39,247.238,39.495,247.457,39.42Z" transform="translate(-219.198 -32.761)" fill="#bcbcbc" fill-rule="evenodd"/>
      <path id="Path_89" data-name="Path 89" d="M258.762,43.094a1.052,1.052,0,1,1-.646,1.334A1.049,1.049,0,0,1,258.762,43.094Z" transform="translate(-229.606 -38.294)" fill="#fff" fill-rule="evenodd"/>
      <path id="Path_90" data-name="Path 90" d="M257.416,41.573H257.3l-.01,0-.01,0-.01,0-.01,0-.01,0-.01,0-.01,0-.01,0-.01,0-.01,0-.01,0-.01,0-.01,0-.01,0-.01,0-.01,0-.01,0-.01,0-.01,0-.01,0-.01,0-.01,0-.01,0-.01,0-.009,0-.01,0-.009,0-.009.006-.009.006-.009.006L257,41.7l-.009.006-.009.006-.009.006-.009.006-.009.006-.009.006-.009.006-.008.007-.008.007-.008.007-.008.007-.008.007-.008.007-.008.007-.008.007-.008.007-.008.007-.008.007-.008.008-.008.008-.007.008-.011.006-.007.008-.007.008-.007.008-.007.008-.007.008-.007.008-.007.008-.007.008-.005.008-.006.008-.005.008-.006.009-.006.009-.005.009-.006.009-.005.009-.006.009-.006.009-.005.009L256.7,42l0,.009,0,.009,0,.009,0,.009,0,.009,0,.009,0,.009,0,.009,0,.009,0,.01,0,.009,0,.01,0,.01,0,.01,0,.01,0,.01,0,.01,0,.01,0,.01,0,.01,0,.01,0,.01,0,.01,0,.01,0,.01,0,.01,0,.01,0,.01,0,.01,0,.01v.25l0,.011,0,.01,0,.01,0,.011,0,.01,0,.011,0,.01,0,.011,0,.01,0,.01,0,.011,0,.01,0,.01,0,.011,0,.01,0,.01,0,.01,0,.01,0,.01,0,.01,0,.01,0,.01,0,.01,0,.01,0,.01,0,.01,0,.009.006.009.005.009.006.009.005.009.006.009.006.009.005.009.006.009.006.009.005.009.006.009.007.009.007.008.007.008.007.008.007.008.007.008.007.008.007.008.007.008.007.008.007.008.008.008.007.007.008.008.008.008.008.007.008.007.008.007.008.007.008.007.008.007.008.007.008.007.008.007.008.007.008.006.009.006.009.006.009.006.009.006.009.006.009.006.009.006.009.006.009.006.009,0,.009,0,.009,0,.009,0,.009,0,.009,0,.009,0,.009,0,.009,0,.01,0,.009,0,.01,0,.009,0,.01,0,.01,0,.01,0,.01,0,.01,0,.01,0,.01,0,.01,0,.01,0,.01,0,.01,0,.01,0,.01,0,.01,0,.01,0,.01,0,.01,0h.248l.01,0,.01,0,.01,0,.01,0,.01,0,.01,0,.01,0,.01,0,.01,0,.01,0,.01,0,.01,0,.01,0,.01,0,.01,0,.01,0,.01,0,.01,0,.01,0,.01,0,.01,0,.01,0,.01,0,.01,0,.009,0,.01,0,.009,0,.009-.006.009-.006.009-.006.009-.006.009-.006.009-.006.009-.006.009-.006.009-.006.009-.006.008-.006.009-.006.008-.007.008-.007.008-.007.008-.007.008-.007.008-.007.008-.007.008-.007.008-.007.008-.007.008-.007.007-.008.007-.008.007-.008.007-.008.007-.008.007-.008.007-.008.007-.008.007-.008.007-.008.007-.008.005-.008.006-.008.005-.008.006-.009.006-.009.005-.009.006-.009.005-.009.006-.009.005-.009.006-.009.006-.009,0-.009,0-.009,0-.009,0-.009,0-.009,0-.009,0-.009,0-.009,0-.009,0-.01,0-.009,0-.01,0-.01,0-.01,0-.01,0-.01,0-.01,0-.01,0-.01,0-.01,0-.01,0-.01,0-.01,0-.01,0-.01,0-.01,0-.01,0-.01,0-.01v-.26l0-.01,0-.011,0-.01,0-.011,0-.01,0-.011,0-.01,0-.011,0-.01,0-.01,0-.011,0-.01,0-.01,0-.011,0-.01,0-.01,0-.01,0-.01,0-.01,0-.01,0-.01,0-.01,0-.01,0-.01,0-.01,0-.009,0-.01-.005-.009L258.146,42l-.006-.009-.005-.009-.006-.009-.005-.009-.006-.009-.006-.009-.005-.009-.006-.009-.005-.009-.007-.009-.007-.009-.007-.008-.007-.008-.007-.008-.007-.008-.007-.008-.007-.008-.007-.008-.007-.008,0-.01-.007-.008-.008-.008-.008-.007L258,41.8,258,41.8l-.008-.007-.008-.007-.008-.007-.008-.007-.008-.007-.008-.007-.008-.007-.008-.007-.008-.006-.009-.006-.009-.006-.009-.006-.009-.006-.009-.006-.009-.006-.009-.006-.009-.006-.009-.006-.009-.006-.009,0-.009,0-.009,0-.009,0-.009,0-.009,0-.009,0-.009,0-.009,0-.009,0-.01,0-.009,0-.009,0-.01,0-.01,0-.01,0-.01,0-.01,0-.01,0-.01,0-.01,0-.01,0-.01,0-.01,0-.01,0-.01,0-.01,0-.01,0-.01,0-.007,0h-.142Zm.024-.413h.124l.015,0,.015,0,.015,0,.015,0,.015,0,.014,0,.015,0,.014,0,.014,0,.014,0,.014,0,.014,0,.014,0,.014,0,.014,0,.014,0,.014,0,.014,0,.014,0,.014.006.014.006.014.006.014.006.014.006.013.006.013.006.013.007.013.007.013.007.013.007.013.007.013.007.013.008.013.008.013.008.013.008.013.008.012.008.012.008.012.009.012.009.012.009.012.009.012.009.012.009.012.009.012.009.012.01.012.01.011.01.011.01.011.01.011.01.011.01.011.01.011.011.011.011.011.011.011.011.01.011.01.011.01.011.01.012.01.012.01.012.01.012.01.012.009.012.009.012.009.012.009.012.009.013.009.013.009.013.009.013.008.013.008.013.008.013.008.013.008.013.008.014.008.014.007.014.007.014.007.014.007.014.007.014.007.014.007.014.005.015.006.015.005.015.006.015.006.015,0,.015,0,.015,0,.015,0,.015,0,.015,0,.015,0,.015,0,.015,0,.015,0,.015,0,.015,0,.015,0,.015,0,.015,0,.015,0,.015,0,.015v.262l0,.015,0,.015,0,.015,0,.015,0,.015,0,.015,0,.015,0,.015,0,.015,0,.014,0,.014,0,.014,0,.014,0,.014,0,.014,0,.014,0,.014,0,.014,0,.014,0,.014-.006.014-.006.014-.005.014-.006.014-.005.014-.006.013-.007.013-.007.013-.007.013-.007.013-.007.013-.007.013-.007.013-.008.013-.008.013-.008.013-.008.013-.008.013-.008.013-.008.012-.009.012-.009.012-.009.012-.009.012-.009.012-.009.012-.009.012-.009.012-.01.012-.01.013-.01.011-.01.011-.01.011-.01.011-.01.011-.011.011-.011.011-.011.011-.011.011-.011.01-.011.01-.011.01-.011.01-.012.01-.012.01-.012.01-.012.01-.012.01-.012.009-.012.009-.012.009-.013.009-.013.009-.013.009-.013.009-.013.009-.013.008-.013.008-.013.008-.013.008-.014.008-.014.008-.014.007-.014.007-.014.007-.015.006-.014.007-.014.007-.014.006-.014.006-.015.006-.015.006-.015.006-.015.006-.015.006-.015,0-.015,0-.015,0-.015,0-.015,0-.015,0-.015,0-.015,0-.015,0-.015,0-.015,0-.015,0-.015,0-.015,0-.015,0H257.3l-.015,0-.015,0-.015,0-.015,0-.015,0-.014,0-.014,0-.015,0-.014,0-.014,0-.014,0-.014,0-.014,0-.014,0-.014,0-.014,0-.014,0-.014,0-.014,0-.014-.006-.014-.006-.014-.006-.014-.006-.014-.006-.013-.006-.013-.006-.013-.007-.013-.007-.013-.007-.013-.007-.013-.007-.013-.007-.013-.008-.013-.008-.013-.008-.013-.008-.013-.008-.013-.008-.012-.008-.012-.009-.012-.009-.012-.009-.012-.009-.012-.009-.012-.009-.012-.009-.012-.009-.012-.01-.012-.01-.012-.01-.011-.01-.011-.01-.011-.01-.011-.011-.011-.01-.011-.011-.011-.011-.011-.011-.011-.011-.01-.011-.01-.011-.01-.011-.01-.012-.01-.012-.01-.012-.01-.012-.01-.012-.01-.012-.009-.012-.009-.012-.009-.012-.009-.013-.009-.013-.008-.014-.009-.013-.008-.013-.008-.013-.008-.013-.008-.013-.008-.013L256.326,43l-.008-.014-.007-.014-.007-.014-.007-.014-.007-.014-.007-.014-.007-.014-.007-.015-.006-.015-.006-.015-.005-.015-.006-.015-.005-.015,0-.015,0-.015,0-.015,0-.015,0-.015,0-.015,0-.015,0-.015,0-.015,0-.015,0-.015,0-.015,0-.015,0-.015,0-.015,0-.015,0-.015v-.278l0-.015,0-.015,0-.015,0-.015,0-.015,0-.015,0-.015,0-.015,0-.014,0-.014,0-.014,0-.014,0-.014,0-.014,0-.014,0-.014,0-.014,0-.014.006-.014.005-.014.006-.014.007-.012.005-.014.006-.014.007-.013.007-.013.007-.013.007-.013.007-.013.007-.013.007-.013.008-.013.008-.013.008-.013.008-.013.008-.013.008-.013.008-.012.008-.012.009-.012.009-.012.009-.012.009-.012.009-.012.009-.012.009-.012.009-.012.01-.012.01-.011.01-.011.01-.011.01-.011.01-.011.011-.011.011-.011.011-.011.011-.011.011-.011.011-.01.011-.01.011-.01.011-.01.012-.01.012-.01.012-.01.012-.01.012-.009.012-.009.012-.009.012-.009.013-.009.013-.009.013-.009.013-.009.013-.008.013-.008.013-.008.013-.008.013-.008.014-.008.014-.008.014-.007.014-.007.014-.007.014-.007.014-.007.014-.007.015-.006.014-.006.015-.006.015-.006.015-.006.015-.006.015,0,.015,0,.015,0,.015,0,.015,0,.015,0,.015,0,.015,0,.015,0,.015,0,.015,0,.015,0,.015,0,.015,0,.015,0,.015,0h.152Z" transform="translate(-227.935 -36.623)" fill="#7e7e7e" fill-rule="evenodd"/>
      <rect id="Rectangle_46" data-name="Rectangle 46" width="0.441" height="0.951" transform="matrix(0.946, -0.325, 0.325, 0.946, 32.75, 15.95)" fill="#818181"/>
      <rect id="Rectangle_47" data-name="Rectangle 47" width="0.442" height="0.951" transform="translate(33.868 19.201) rotate(-18.94)" fill="#818181"/>
      <rect id="Rectangle_48" data-name="Rectangle 48" width="0.442" height="0.951" transform="matrix(0.946, -0.325, 0.325, 0.946, 33.306, 17.575)" fill="#818181"/>
      <rect id="Rectangle_49" data-name="Rectangle 49" width="4.669" height="0.16" transform="matrix(0.946, -0.325, 0.325, 0.946, 29.246, 12.256)" fill="#ddd"/>
      <rect id="Rectangle_50" data-name="Rectangle 50" width="3.433" height="0.067" transform="matrix(0.946, -0.325, 0.325, 0.946, 30.585, 14.254)" fill="#ddd"/>
      <path id="Path_91" data-name="Path 91" d="M256.293,65.213a.693.693,0,0,1-.7-.183l-.058.02a.456.456,0,0,0-.29.559l1.062-.365Z" transform="translate(-227.082 -57.861)" fill="#bababa" fill-rule="evenodd"/>
      <path id="Path_92" data-name="Path 92" d="M278.26,57.113a.694.694,0,0,0,.442-.577l.058-.02a.456.456,0,0,1,.572.262l-1.062.365Z" transform="translate(-247.581 -50.265)" fill="#bababa" fill-rule="evenodd"/>
      <path id="Path_93" data-name="Path 93" d="M248.762,59.132l4.688-1.61a.308.308,0,0,0-.2-.582l-4.688,1.61a.308.308,0,0,0,.2.582" transform="translate(-220.975 -50.649)" fill="#a0a0a0" fill-rule="evenodd"/>
      <path id="Path_94" data-name="Path 94" d="M253.6,57a.3.3,0,0,0-.289-.051l-4.688,1.61a.307.307,0,0,0-.2.217Z" transform="translate(-221.04 -50.654)" fill="#ddd" fill-rule="evenodd"/>
      <path id="Path_95" data-name="Path 95" d="M244.563,30.307a.3.3,0,0,0-.289-.051l-1.423.488a1.968,1.968,0,0,0-1.841.633l-1.423.488a.3.3,0,0,0-.2.217l1.728-.593a1.813,1.813,0,0,1,1.718-.589Z" transform="translate(-212.997 -26.907)" fill="#dcdcdc" fill-rule="evenodd"/>
      <path id="Path_96" data-name="Path 96" d="M266.4,51.341a.138.138,0,1,1-.084.174.137.137,0,0,1,.084-.174" transform="translate(-236.947 -45.675)" fill="#7e7e7e" fill-rule="evenodd"/>
      <path id="Path_97" data-name="Path 97" d="M266.4,51.341a.138.138,0,1,1-.084.174.137.137,0,0,1,.084-.174" transform="translate(-236.947 -45.675)" fill="none" stroke="#7e7e7e" stroke-linejoin="round" stroke-miterlimit="10" stroke-width="1"/>
      <path id="Path_98" data-name="Path 98" d="M264.755,45.583h0a.061.061,0,0,1,.077.039l.219.639a.061.061,0,1,1-.116.04l-.219-.639a.063.063,0,0,1,.039-.078" transform="translate(-235.528 -40.556)" fill="#7e7e7e" fill-rule="evenodd"/>
      <path id="Path_99" data-name="Path 99" d="M264.755,45.583h0a.061.061,0,0,1,.077.039l.219.639a.061.061,0,1,1-.116.04l-.219-.639a.063.063,0,0,1,.039-.078" transform="translate(-235.528 -40.556)" fill="none" stroke="#7e7e7e" stroke-linejoin="round" stroke-miterlimit="10" stroke-width="1"/>
      <path id="Path_100" data-name="Path 100" d="M268.127,50.572h0a.061.061,0,0,1-.037.078l-.389.133a.062.062,0,0,1-.078-.039h0a.061.061,0,0,1,.037-.078l.389-.133a.062.062,0,0,1,.078.039" transform="translate(-238.113 -44.96)" fill="#7e7e7e" fill-rule="evenodd"/>
      <path id="Path_101" data-name="Path 101" d="M268.127,50.572h0a.061.061,0,0,1-.037.078l-.389.133a.062.062,0,0,1-.078-.039h0a.061.061,0,0,1,.037-.078l.389-.133a.062.062,0,0,1,.078.039" transform="translate(-238.113 -44.96)" fill="none" stroke="#7e7e7e" stroke-linejoin="round" stroke-miterlimit="10" stroke-width="1"/>
      <rect id="Rectangle_51" data-name="Rectangle 51" width="4.19" height="1.761" transform="matrix(0.946, -0.325, 0.325, 0.946, 43.509, 19.31)" fill="#9b9b9b"/>
      <rect id="Rectangle_52" data-name="Rectangle 52" width="0.153" height="1.752" transform="translate(43.657 19.26) rotate(-18.953)" fill="#838383"/>
      <rect id="Rectangle_53" data-name="Rectangle 53" width="0.152" height="1.752" transform="translate(43.939 19.161) rotate(-18.971)" fill="#838383"/>
      <rect id="Rectangle_54" data-name="Rectangle 54" width="0.152" height="1.752" transform="translate(44.223 19.064) rotate(-18.917)" fill="#838383"/>
      <rect id="Rectangle_55" data-name="Rectangle 55" width="0.152" height="1.752" transform="translate(44.505 18.969) rotate(-18.953)" fill="#838383"/>
      <rect id="Rectangle_56" data-name="Rectangle 56" width="0.152" height="1.752" transform="translate(44.789 18.871) rotate(-18.959)" fill="#838383"/>
      <rect id="Rectangle_57" data-name="Rectangle 57" width="0.152" height="1.752" transform="translate(45.07 18.774) rotate(-18.971)" fill="#838383"/>
      <rect id="Rectangle_58" data-name="Rectangle 58" width="4.19" height="0.107" transform="matrix(0.946, -0.325, 0.325, 0.946, 44.079, 20.967)" fill="#838383"/>
      <rect id="Rectangle_59" data-name="Rectangle 59" width="0.152" height="1.752" transform="translate(45.352 18.679) rotate(-18.953)" fill="#838383"/>
      <rect id="Rectangle_60" data-name="Rectangle 60" width="0.152" height="1.752" transform="translate(45.636 18.578) rotate(-18.922)" fill="#838383"/>
      <rect id="Rectangle_61" data-name="Rectangle 61" width="0.152" height="1.752" transform="translate(45.917 18.483) rotate(-18.971)" fill="#838383"/>
      <rect id="Rectangle_62" data-name="Rectangle 62" width="0.153" height="1.752" transform="translate(46.199 18.388) rotate(-18.953)" fill="#838383"/>
      <rect id="Rectangle_63" data-name="Rectangle 63" width="0.153" height="1.752" transform="translate(46.483 18.289) rotate(-18.959)" fill="#838383"/>
      <rect id="Rectangle_64" data-name="Rectangle 64" width="0.152" height="1.752" transform="translate(46.764 18.193) rotate(-18.971)" fill="#838383"/>
      <rect id="Rectangle_65" data-name="Rectangle 65" width="0.152" height="1.752" transform="translate(47.047 18.095) rotate(-18.917)" fill="#838383"/>
      <rect id="Rectangle_66" data-name="Rectangle 66" width="0.152" height="1.752" transform="translate(47.33 17.998) rotate(-18.959)" fill="#838383"/>
      <path id="Path_102" data-name="Path 102" d="M400.11,180.1l3.962-1.361,1.318,3.837-4.318.326Z" transform="translate(-355.997 -159.034)" fill="#cacaca" fill-rule="evenodd"/>
      <rect id="Rectangle_67" data-name="Rectangle 67" width="4.19" height="1.761" transform="matrix(0.946, -0.325, 0.325, 0.946, 27.617, 24.764)" fill="#9b9b9b"/>
      <rect id="Rectangle_68" data-name="Rectangle 68" width="0.152" height="1.752" transform="translate(27.766 24.715) rotate(-18.959)" fill="#838383"/>
      <rect id="Rectangle_69" data-name="Rectangle 69" width="0.152" height="1.752" transform="translate(28.047 24.618) rotate(-18.917)" fill="#838383"/>
      <rect id="Rectangle_70" data-name="Rectangle 70" width="0.152" height="1.752" transform="translate(28.329 24.521) rotate(-18.971)" fill="#838383"/>
      <rect id="Rectangle_71" data-name="Rectangle 71" width="0.152" height="1.752" transform="translate(28.612 24.426) rotate(-18.917)" fill="#838383"/>
      <rect id="Rectangle_72" data-name="Rectangle 72" width="0.153" height="1.752" transform="translate(28.896 24.328) rotate(-18.959)" fill="#838383"/>
      <rect id="Rectangle_73" data-name="Rectangle 73" width="0.152" height="1.752" transform="translate(29.176 24.231) rotate(-18.971)" fill="#838383"/>
      <rect id="Rectangle_74" data-name="Rectangle 74" width="4.19" height="0.107" transform="matrix(0.946, -0.325, 0.325, 0.946, 28.185, 26.423)" fill="#838383"/>
      <rect id="Rectangle_75" data-name="Rectangle 75" width="0.152" height="1.752" transform="matrix(0.946, -0.324, 0.324, 0.946, 29.46, 24.132)" fill="#838383"/>
      <rect id="Rectangle_76" data-name="Rectangle 76" width="0.152" height="1.752" transform="translate(29.743 24.037) rotate(-18.959)" fill="#838383"/>
      <rect id="Rectangle_77" data-name="Rectangle 77" width="0.152" height="1.752" transform="translate(30.023 23.94) rotate(-18.93)" fill="#838383"/>
      <rect id="Rectangle_78" data-name="Rectangle 78" width="0.153" height="1.752" transform="translate(30.308 23.843) rotate(-18.959)" fill="#838383"/>
      <rect id="Rectangle_79" data-name="Rectangle 79" width="0.153" height="1.752" transform="translate(30.59 23.746) rotate(-18.959)" fill="#838383"/>
      <rect id="Rectangle_80" data-name="Rectangle 80" width="0.152" height="1.752" transform="translate(30.871 23.649) rotate(-18.917)" fill="#838383"/>
      <rect id="Rectangle_81" data-name="Rectangle 81" width="0.152" height="1.752" transform="translate(31.153 23.552) rotate(-18.971)" fill="#838383"/>
      <rect id="Rectangle_82" data-name="Rectangle 82" width="4.19" height="3.506" transform="matrix(0.946, -0.325, 0.325, 0.946, 28.22, 26.524)" fill="#cacaca"/>
      <rect id="Rectangle_83" data-name="Rectangle 83" width="0.615" height="0.869" transform="matrix(0.946, -0.325, 0.325, 0.946, 31.172, 26.599)" fill="#bebebe"/>
      <rect id="Rectangle_84" data-name="Rectangle 84" width="0.197" height="0.318" transform="translate(31.283 26.662) rotate(-18.94)" fill="#818181"/>
      <rect id="Rectangle_85" data-name="Rectangle 85" width="0.197" height="0.318" transform="translate(31.521 26.579) rotate(-18.971)" fill="#818181"/>
      <rect id="Rectangle_86" data-name="Rectangle 86" width="0.197" height="0.318" transform="translate(31.398 27.003) rotate(-18.96)" fill="#818181"/>
      <rect id="Rectangle_87" data-name="Rectangle 87" width="0.197" height="0.318" transform="translate(31.64 26.92) rotate(-18.971)" fill="#818181"/>
      <rect id="Rectangle_88" data-name="Rectangle 88" width="0.615" height="0.043" transform="matrix(0.946, -0.325, 0.325, 0.946, 31.158, 26.558)" fill="#e9e9e9"/>
      <rect id="Rectangle_89" data-name="Rectangle 89" width="0.615" height="0.869" transform="translate(29.439 27.196) rotate(-18.959)" fill="#bebebe"/>
      <rect id="Rectangle_90" data-name="Rectangle 90" width="0.197" height="0.318" transform="translate(29.545 27.257) rotate(-18.971)" fill="#818181"/>
      <rect id="Rectangle_91" data-name="Rectangle 91" width="0.197" height="0.318" transform="translate(29.783 27.175) rotate(-18.93)" fill="#818181"/>
      <rect id="Rectangle_92" data-name="Rectangle 92" width="0.197" height="0.318" transform="translate(29.665 27.6) rotate(-18.94)" fill="#818181"/>
      <rect id="Rectangle_93" data-name="Rectangle 93" width="0.197" height="0.318" transform="translate(29.901 27.518) rotate(-18.93)" fill="#818181"/>
      <rect id="Rectangle_94" data-name="Rectangle 94" width="0.615" height="0.043" transform="translate(29.425 27.154) rotate(-18.959)" fill="#e9e9e9"/>
      <rect id="Rectangle_95" data-name="Rectangle 95" width="0.615" height="0.869" transform="translate(46.829 20.693) rotate(-18.953)" fill="#bebebe"/>
      <rect id="Rectangle_96" data-name="Rectangle 96" width="0.197" height="0.318" transform="translate(46.939 20.757) rotate(-18.959)" fill="#818181"/>
      <rect id="Rectangle_97" data-name="Rectangle 97" width="0.197" height="0.318" transform="translate(47.176 20.675) rotate(-18.971)" fill="#818181"/>
      <rect id="Rectangle_98" data-name="Rectangle 98" width="0.197" height="0.318" transform="translate(47.052 21.1) rotate(-18.96)" fill="#818181"/>
      <rect id="Rectangle_99" data-name="Rectangle 99" width="0.197" height="0.318" transform="translate(47.295 21.017) rotate(-18.94)" fill="#818181"/>
      <rect id="Rectangle_100" data-name="Rectangle 100" width="0.615" height="0.043" transform="translate(46.815 20.653) rotate(-18.953)" fill="#e9e9e9"/>
      <rect id="Rectangle_101" data-name="Rectangle 101" width="0.615" height="0.869" transform="matrix(0.946, -0.325, 0.325, 0.946, 45.091, 21.291)" fill="#bebebe"/>
      <rect id="Rectangle_102" data-name="Rectangle 102" width="0.197" height="0.318" transform="translate(45.202 21.353) rotate(-18.94)" fill="#818181"/>
      <rect id="Rectangle_103" data-name="Rectangle 103" width="0.197" height="0.318" transform="translate(45.44 21.271) rotate(-18.971)" fill="#818181"/>
      <rect id="Rectangle_104" data-name="Rectangle 104" width="0.197" height="0.318" transform="translate(45.319 21.695) rotate(-18.971)" fill="#818181"/>
      <rect id="Rectangle_105" data-name="Rectangle 105" width="0.197" height="0.318" transform="translate(45.558 21.614) rotate(-18.971)" fill="#818181"/>
      <rect id="Rectangle_106" data-name="Rectangle 106" width="0.615" height="0.043" transform="matrix(0.946, -0.325, 0.325, 0.946, 45.077, 21.25)" fill="#e9e9e9"/>
      <path id="Path_103" data-name="Path 103" d="M322.7,737.955c-.739.044-.842-.2-1.428.837a11.044,11.044,0,0,0-.915,2.631c.464,1.359-2.776,1.076-.644-.3a17.991,17.991,0,0,0,.843-3.106c-.046-.552-.771-1.032-.771-1.032Z" transform="translate(-283.807 -655.727)" fill="#989898" fill-rule="evenodd"/>
      <path id="Path_104" data-name="Path 104" d="M300,773.4l-1.019-3.793c-.907-3.375,7.923-.3,5.208,1.779l-3.092,2.372a.646.646,0,0,1-1.1-.358" transform="translate(-265.957 -683.423)" fill="#c6c6c6" fill-rule="evenodd"/>
      <path id="Path_105" data-name="Path 105" d="M299.165,804.342l-.676-2.513c-.6-2.237,5.249-.2,3.451,1.18l-2.048,1.571a.427.427,0,0,1-.727-.238" transform="translate(-265.541 -712.54)" fill="#c6c6c6" fill-rule="evenodd"/>
      <path id="Path_106" data-name="Path 106" d="M298.764,827.968l-.4-1.506c-.361-1.341,3.146-.12,2.068.707l-1.227.942a.257.257,0,0,1-.437-.142" transform="translate(-265.441 -734.811)" fill="#c6c6c6" fill-rule="evenodd"/>
      <path id="Path_107" data-name="Path 107" d="M248.863,694.54c-.665-.319-.955-.325-1.319,0-.88.8-2.2,2.291-2.2,2.291l-.355-.367a17.939,17.939,0,0,0,1.853-2.611,1.793,1.793,0,0,0-.366-1.227Z" transform="translate(-217.979 -616.266)" fill="#989898" fill-rule="evenodd"/>
      <path id="Path_108" data-name="Path 108" d="M196.275,722.884l2.4-6.428c1.256-3.207,7.177,1.552,4.252,3.449l-5.749,3.691a.642.642,0,0,1-.9-.712" transform="translate(-174.632 -636.502)" fill="#c6c6c6" fill-rule="evenodd"/>
      <path id="Path_109" data-name="Path 109" d="M409.284,754.43a.623.623,0,0,0-.537.613c-.126.892-.25,2.966-.25,2.966l-.252-.06s.111-2.609.015-3a.978.978,0,0,0-.509-.579Z" transform="translate(-362.794 -671.199)" fill="#eee" fill-rule="evenodd"/>
      <path id="Path_110" data-name="Path 110" d="M414.32,776.164l.637.283.069.284c-.241.488-.222.479.013.055l.173.7-.091-.548.294.129-.307-.2-.064-.384.827.368-1.494-.846Z" transform="translate(-368.64 -690.453)" fill="#eee" fill-rule="evenodd"/>
      <path id="Path_111" data-name="Path 111" d="M404.926,779.229l-.438.235-.067.278c.121.5.109.494-.013.054l-.165.689.1-.54-.2.106.215-.179.071-.377-.568.305,1.04-.73Z" transform="translate(-359.333 -693.176)" fill="#eee" fill-rule="evenodd"/>
      <path id="Path_112" data-name="Path 112" d="M389.305,787.2c-1.057-.047-1.888-.686-1.853-1.424s.917-1.3,1.975-1.25,1.888.686,1.853,1.424-.917,1.3-1.975,1.25" transform="translate(-344.733 -698.028)" fill="#eee" fill-rule="evenodd"/>
      <path id="Path_113" data-name="Path 113" d="M414.862,784.607c-.678-.031-1.209-.452-1.187-.942s.59-.861,1.268-.83,1.209.452,1.187.942-.59.861-1.268.83" transform="translate(-368.065 -696.525)" fill="#eee" fill-rule="evenodd"/>
      <path id="Path_114" data-name="Path 114" d="M410.938,792.6c-.572-.025-1.021-.369-1-.766s.5-.7,1.067-.673,1.021.369,1,.766-.5.7-1.067.673" transform="translate(-364.738 -703.929)" fill="#eee" fill-rule="evenodd"/>
      <path id="Path_115" data-name="Path 115" d="M355.947,756.348a6.829,6.829,0,0,0-.319,2.094c.235.219.025-.052.024-.132a8.3,8.3,0,0,1,.4-1.709,5.662,5.662,0,0,1,.465.631,6.352,6.352,0,0,1,.445.99.1.1,0,0,1,0,.021.146.146,0,0,0,0,.058.373.373,0,0,0,0-.058.024.024,0,0,1,.005-.009,4.087,4.087,0,0,0-.335-1.022c-.182-.378-.486-.7-.519-.867a17.43,17.43,0,0,1,.2-2.8,3.076,3.076,0,0,0,.318-.451,2.646,2.646,0,0,1,.058.811c-.04.236.006.192.006.192l.064-.179s-.044-.714-.06-.948a4.49,4.49,0,0,0,.271-.631c0-.009.1.263.217.6-.06.193-.194.639-.2.712-.012.094.035.057.035.057a5.831,5.831,0,0,1,.213-.638,7.362,7.362,0,0,1,.281,1.006c.035.311-.03.809-.038,1.352-.094.065-.321.233-.315.336.007.131.035.025.035.025s.2-.2.279-.261v.018c.006,1.232.052,2.64.052,2.64s.061.228.056.118c-.026-.751.033-1.476.034-2.258a3.165,3.165,0,0,1,.054-.577l.26.426c.025-.151-.269-.43-.214-.656a4.746,4.746,0,0,0,.179-1.119c-.022-.147-.38-1.428-.5-2.267a5.006,5.006,0,0,1,.333-2l-.851-.079a.15.15,0,0,1,0,.029,10.605,10.605,0,0,0-.088,1.878,3.612,3.612,0,0,1-.771,1.938,2.323,2.323,0,0,1-1.518.606c-.553-.046-.144.1.076.061.078-.015.282,0,.547-.045a1.907,1.907,0,0,0,1.03-.52c-.03.249-.2,1.784-.186,2.49-.206.143-.841.607-.8.814s.021.149.014.065c.007.074.028.132,0,0a.2.2,0,0,1,.011-.1A2.056,2.056,0,0,1,355.947,756.348Z" transform="translate(-315.17 -667.106)" fill="#989898" fill-rule="evenodd"/>
      <path id="Path_116" data-name="Path 116" d="M370.82,815.651c-.006.022-.041.225.028.294.281.286.04.5-.051.534a.462.462,0,0,1-.487-.008c-.046-.036-.111-.073-.157-.109a1.03,1.03,0,0,0-.169-.088c-.291-.165-.413.226-.806.184-.28-.03-.29-.2-.41-.183a1.6,1.6,0,0,0-.217.068,1.909,1.909,0,0,1-.448.1.584.584,0,0,1-.573-.332c-.086-.222,0-.551.271-.579.04,0,.079-.006.118-.011.069-.011.165.039.208-.03.09-.146-.041-.392.216-.518.3-.147.3.04.4.066.05.013.129.051.181.023.19-.1.233-.357.447-.44a.6.6,0,0,1,.451.043c.093.041.209.122.31.068a.27.27,0,0,0,.126-.149c.019-.052.049-.1.064-.149.041-.137.048-.275.089-.413.055-.186.383-.236.428-.232a1.429,1.429,0,0,1,.27.076c.11.033.171.168.208.264a.715.715,0,0,1,.042.2.467.467,0,0,1-.039.174c-.066.22-.357.367-.249.567C371.374,815.629,370.855,815.517,370.82,815.651Z" transform="translate(-326.98 -724.066)" fill="#cacaca" fill-rule="evenodd"/>
      <path id="Path_117" data-name="Path 117" d="M351.385,797.848c.005-.016.276.194.239-.547a.2.2,0,0,1,.064-.151.879.879,0,0,1,.25-.153c.141-.054.284.119.387.164.047.021.058.094.1.117.1.064.254-.1.367-.034a.651.651,0,0,1,.3.432.4.4,0,0,1,.018.228.5.5,0,0,1-.221.245,1.822,1.822,0,0,1-.269.043c-.071.017-.176-.05-.244-.023-.036.014-.075.024-.111.039s-.067.018-.083.041c-.123.2.02.429-.071.632a.217.217,0,0,1-.111.137c-.024.009-.1-.015-.118,0s-.062.033-.084.051-.029.1-.033.144c-.012.126.06.318-.011.431a.714.714,0,0,1-.183.169c-.048.04-.189.012-.249.035-.078.03-.157-.056-.207-.088-.077-.047-.106-.214-.139-.3a1.18,1.18,0,0,0-.177-.3c-.013-.017-.12-.08-.131-.072-.034.028-.043.083-.088.1-.014.005-.132.067-.161.034s-.077-.039-.1-.068-.045-.066-.061-.085-.028-.022-.039-.013-.036.021-.052.034,0,.06,0,.069c.022.057,0,.144.03.209s-.014.143,0,.206a.663.663,0,0,1-.107.5c-.069.112-.206.112-.32.157a.24.24,0,0,1-.158,0c-.079-.05-.2-.149-.277-.085a.135.135,0,0,0-.01.107,1.207,1.207,0,0,1,.18.282.183.183,0,0,1-.02.106c-.007.005,0,.05-.006.058a.18.18,0,0,0,.1.166c.187.117.5.028.713.049a.633.633,0,0,1,.165.015,1.365,1.365,0,0,1,.524.286c.079.1.013.287.123.356a.261.261,0,0,0,.133.042c.015,0,.065-.019.079,0a.382.382,0,0,1,.067.125.458.458,0,0,1-.054.26c-.146.327-.609.3-.9.2-.095-.033-.191-.115-.28-.154-.024-.011-.072-.043-.106-.03-.085.033-.111.119-.184.179a.526.526,0,0,1-.447.144.483.483,0,0,1-.361-.348c-.029-.126.159-.241.012-.333a.376.376,0,0,0-.246,0,.389.389,0,0,1-.117-.011.451.451,0,0,1-.4-.283.407.407,0,0,1,.006-.363c.035-.079.127-.087.169-.121.017-.013.007-.112,0-.118-.095-.115-.319-.2-.416-.384a.559.559,0,0,1-.054-.152c-.007-.029.018-.088,0-.108s-.076.034-.093.041c-.045.018-.176.036-.215-.011-.084-.1-.007-.344.052-.438.021-.034.053-.142.026-.174-.129-.157-.416.061-.6-.057-.106-.066.013-.2.071-.219a.1.1,0,0,0,.037-.085c-.035-.092-.155-.148-.2-.265-.01-.026-.043-.1-.026-.13.078-.126.262-.064.357-.143.033-.028-.01-.11-.018-.129a.462.462,0,0,1-.007-.345c.024-.04.09-.021.129-.018.1.009.194.173.292.136.063-.024.008-.272.244-.183.463.176.039.463.155.536s.257-.1.347-.134c.018-.007.08-.044.1-.02.034.042.078.127.12.179.008.009-.007.065-.008.078-.005.062-.029.16.01.207s.466-.054.623-.039a.364.364,0,0,1,.215.119c.031.036.089.043.111.069,0,.005.09.033.106.02l.085-.071a1.73,1.73,0,0,0,.207-.521c.073-.216-.568-.115-.16-.6.423-.5,1.407-.074,1.411-.069Z" transform="translate(-308.794 -709.117)" fill="#cacaca" fill-rule="evenodd"/>
      <path id="Path_118" data-name="Path 118" d="M352.563,766.233c.067-.055.238-.191.243-.243s.074-.024.1-.049a.215.215,0,0,0,0-.088c-.026-.031-.017-.106-.046-.142a1.719,1.719,0,0,1-.2-.628.3.3,0,0,1,.476-.279.559.559,0,0,1,.18.322c.028.175-.078.383-.012.549.048.123.164.1.262.182a.372.372,0,0,1,.122.189.248.248,0,0,1-.022.126c-.042.116-.251.28-.2.413.01.024.046.037.066.045.075.032.15.086.228.12a1.106,1.106,0,0,1,.484.685c.036.093.091.256.018.346-.056.068-.2.018-.269-.005a1.539,1.539,0,0,1-.432-.287c-.078-.063-.161-.187-.277-.144-.02.008-.035.04-.045.054a.691.691,0,0,0-.057.083c-.052.115.106.293.143.387.017.042-.082.112-.1.148a.292.292,0,0,1-.119.1.4.4,0,0,1-.3-.029c-.041-.025-.144-.129-.2-.107-.124.046-.111.2-.223.244a.362.362,0,0,1-.244-.063c-.01-.007-.075-.047-.086-.037-.076.062.068.234.1.294a.268.268,0,0,1-.02.313.439.439,0,0,1-.569.094c-.061-.026-.181-.194-.247-.141-.022.018,0,.071-.019.1-.044.069-.065.179-.121.224-.031.025-.181.085-.244.045a.61.61,0,0,0-.144-.063c-.012.01-.014.056-.026.066a1.256,1.256,0,0,0-.114.147.536.536,0,0,1-.7.14.393.393,0,0,1-.1-.118,1.558,1.558,0,0,1-.074-.174c-.019-.046.057-.1.073-.131.052-.115.185-.152.243-.243.015-.024-.014-.062-.022-.081-.022-.057-.116-.127-.153-.172-.01-.012,0,.039,0,.049a.509.509,0,0,1-.013.137.4.4,0,0,1-.255.26.311.311,0,0,1-.337-.238.488.488,0,0,0-.02-.11c-.008-.009-.041.016-.042.016s-.055,0-.071,0c-.037.014-.061.028-.094.04-.184.069-.431.079-.525-.158-.033-.083.095-.141.128-.194.049-.076.139-.043.206-.068.106-.04.177-.032.243-.135.039-.06-.044-.136-.063-.183-.052-.132-.333-.255-.218-.433.161-.254.528,0,.655.161.043.053.094.133.124.169a.121.121,0,0,0,.04,0c.018-.014.054-.008.072-.023s.034-.073.058-.093.011-.115.013-.137a.231.231,0,0,1,.118-.185c.053-.02.193-.02.228.022a.2.2,0,0,0,.11,0c.1-.084,0-.259-.036-.347-.01-.024-.036-.092-.019-.12a.742.742,0,0,1,.159-.2c.039-.032.131-.025.176-.062.065-.053.053-.245.062-.329a.367.367,0,0,1,.173-.239c.065-.024.141-.03.2-.051s.049-.108.1-.128c.011,0,.068-.017.08,0l.108.128c.01.011.034.125.017.139s-.024.072-.051.114a.854.854,0,0,1-.157.172c-.014.011,0,.068,0,.079.024.062.064.071.056.143a6.346,6.346,0,0,0-.2.669.391.391,0,0,0,.187.136c.011,0,.062.013.069.007a.29.29,0,0,1,.222-.019c.066.041.074.1.107.138l.1-.079c.024-.019.008-.079.01-.107.008-.085.009-.2.063-.239s.179-.01.225-.047c.09-.074-.017-.275.073-.347s.218,0,.3.047c.029.018.092.052.117.031.077-.063.052-.23.063-.348,0-.032,0-.116.023-.136S352.535,766.255,352.563,766.233Z" transform="translate(-310.122 -680.426)" fill="#cacaca" fill-rule="evenodd"/>
      <path id="Path_119" data-name="Path 119" d="M545.138,228.751l1-2.51-.926-.37-.886,2.558Z" transform="translate(-484.316 -200.968)" fill="#989898"/>
      <path id="Path_120" data-name="Path 120" d="M164.01,550.678l1.459,4.627.054-.017-1.459-4.628Z" transform="translate(-145.927 -489.949)" fill="#f3f3f3" fill-rule="evenodd"/>
      <rect id="Rectangle_107" data-name="Rectangle 107" width="0.056" height="4.852" transform="translate(18.544 60.58) rotate(-17.495)" fill="#f3f3f3"/>
      <rect id="Rectangle_108" data-name="Rectangle 108" width="0.056" height="4.852" transform="translate(19.011 60.439) rotate(-17.493)" fill="#f3f3f3"/>
      <rect id="Rectangle_109" data-name="Rectangle 109" width="0.056" height="4.852" transform="translate(19.474 60.293) rotate(-17.493)" fill="#f3f3f3"/>
      <rect id="Rectangle_110" data-name="Rectangle 110" width="0.056" height="4.852" transform="translate(20.167 60.074) rotate(-17.493)" fill="#f3f3f3"/>
      <rect id="Rectangle_111" data-name="Rectangle 111" width="0.056" height="4.852" transform="translate(18.316 60.657) rotate(-17.493)" fill="#f3f3f3"/>
      <rect id="Rectangle_112" data-name="Rectangle 112" width="0.056" height="4.852" transform="translate(18.779 60.512) rotate(-17.493)" fill="#f3f3f3"/>
      <rect id="Rectangle_113" data-name="Rectangle 113" width="0.056" height="4.852" transform="translate(19.241 60.367) rotate(-17.493)" fill="#f3f3f3"/>
      <rect id="Rectangle_114" data-name="Rectangle 114" width="0.056" height="4.852" transform="translate(19.936 60.147) rotate(-17.493)" fill="#f3f3f3"/>
      <rect id="Rectangle_115" data-name="Rectangle 115" width="0.056" height="4.852" transform="translate(19.705 60.22) rotate(-17.493)" fill="#f3f3f3"/>
      <rect id="Rectangle_116" data-name="Rectangle 116" width="0.186" height="4.852" transform="translate(19.524 60.271) rotate(-17.495)" fill="#cacaca"/>
      <rect id="Rectangle_117" data-name="Rectangle 117" width="0.186" height="4.852" transform="translate(20.222 60.057) rotate(-17.493)" fill="#cacaca"/>
      <rect id="Rectangle_118" data-name="Rectangle 118" width="0.186" height="4.852" transform="translate(19.296 60.349) rotate(-17.493)" fill="#cacaca"/>
      <rect id="Rectangle_119" data-name="Rectangle 119" width="0.186" height="4.852" transform="translate(19.065 60.421) rotate(-17.493)" fill="#cacaca"/>
      <rect id="Rectangle_120" data-name="Rectangle 120" width="0.186" height="4.852" transform="translate(18.832 60.496) rotate(-17.493)" fill="#cacaca"/>
      <rect id="Rectangle_121" data-name="Rectangle 121" width="0.186" height="4.852" transform="translate(19.989 60.131) rotate(-17.493)" fill="#cacaca"/>
      <rect id="Rectangle_122" data-name="Rectangle 122" width="0.186" height="4.852" transform="translate(19.759 60.203) rotate(-17.493)" fill="#cacaca"/>
      <rect id="Rectangle_123" data-name="Rectangle 123" width="0.152" height="1.752" transform="translate(31.439 23.453) rotate(-18.922)" fill="#838383"/>
      <rect id="Rectangle_124" data-name="Rectangle 124" width="12.649" height="3.325" transform="matrix(0.946, -0.325, 0.325, 0.946, 31.889, 24.404)" fill="#e2e2e2"/>
      <rect id="Rectangle_125" data-name="Rectangle 125" width="12.649" height="3.33" transform="matrix(0.946, -0.325, 0.325, 0.946, 30.808, 21.255)" fill="#9b9b9b"/>
      <rect id="Rectangle_126" data-name="Rectangle 126" width="0.269" height="3.313" transform="translate(31.066 21.167) rotate(-18.93)" fill="#838383"/>
      <rect id="Rectangle_127" data-name="Rectangle 127" width="0.269" height="3.313" transform="translate(31.565 20.996) rotate(-18.953)" fill="#838383"/>
      <rect id="Rectangle_128" data-name="Rectangle 128" width="0.269" height="3.313" transform="translate(32.063 20.825) rotate(-18.953)" fill="#838383"/>
      <rect id="Rectangle_129" data-name="Rectangle 129" width="0.269" height="3.313" transform="translate(32.561 20.653) rotate(-18.953)" fill="#838383"/>
      <rect id="Rectangle_130" data-name="Rectangle 130" width="0.269" height="3.313" transform="translate(33.058 20.483) rotate(-18.953)" fill="#838383"/>
      <rect id="Rectangle_131" data-name="Rectangle 131" width="0.269" height="3.313" transform="translate(33.557 20.312) rotate(-18.953)" fill="#838383"/>
      <rect id="Rectangle_132" data-name="Rectangle 132" width="12.649" height="0.202" transform="matrix(0.946, -0.325, 0.325, 0.946, 31.883, 24.389)" fill="#838383"/>
      <rect id="Rectangle_133" data-name="Rectangle 133" width="0.269" height="3.313" transform="translate(34.054 20.141) rotate(-18.953)" fill="#838383"/>
      <rect id="Rectangle_134" data-name="Rectangle 134" width="0.269" height="3.313" transform="matrix(0.946, -0.325, 0.325, 0.946, 34.552, 19.968)" fill="#838383"/>
      <rect id="Rectangle_135" data-name="Rectangle 135" width="0.269" height="3.313" transform="translate(35.049 19.8) rotate(-18.93)" fill="#838383"/>
      <rect id="Rectangle_136" data-name="Rectangle 136" width="0.269" height="3.313" transform="translate(35.548 19.628) rotate(-18.953)" fill="#838383"/>
      <rect id="Rectangle_137" data-name="Rectangle 137" width="0.269" height="3.313" transform="translate(36.046 19.457) rotate(-18.953)" fill="#838383"/>
      <rect id="Rectangle_138" data-name="Rectangle 138" width="0.269" height="3.313" transform="translate(36.544 19.286) rotate(-18.953)" fill="#838383"/>
      <rect id="Rectangle_139" data-name="Rectangle 139" width="0.269" height="3.313" transform="matrix(0.946, -0.325, 0.325, 0.946, 37.041, 19.113)" fill="#838383"/>
      <rect id="Rectangle_140" data-name="Rectangle 140" width="0.269" height="3.313" transform="translate(37.538 18.945) rotate(-18.93)" fill="#838383"/>
      <rect id="Rectangle_141" data-name="Rectangle 141" width="0.269" height="3.313" transform="translate(38.038 18.773) rotate(-18.953)" fill="#838383"/>
      <rect id="Rectangle_142" data-name="Rectangle 142" width="0.269" height="3.313" transform="translate(38.535 18.603) rotate(-18.953)" fill="#838383"/>
      <rect id="Rectangle_143" data-name="Rectangle 143" width="0.269" height="3.313" transform="translate(39.033 18.433) rotate(-18.953)" fill="#838383"/>
      <rect id="Rectangle_144" data-name="Rectangle 144" width="0.269" height="3.313" transform="translate(39.532 18.261) rotate(-18.953)" fill="#838383"/>
      <rect id="Rectangle_145" data-name="Rectangle 145" width="0.269" height="3.313" transform="translate(40.027 18.09) rotate(-18.93)" fill="#838383"/>
      <rect id="Rectangle_146" data-name="Rectangle 146" width="0.269" height="3.313" transform="translate(40.527 17.919) rotate(-18.953)" fill="#838383"/>
      <rect id="Rectangle_147" data-name="Rectangle 147" width="0.269" height="3.313" transform="translate(41.024 17.748) rotate(-18.953)" fill="#838383"/>
      <rect id="Rectangle_148" data-name="Rectangle 148" width="0.269" height="3.313" transform="translate(41.522 17.577) rotate(-18.953)" fill="#838383"/>
      <rect id="Rectangle_149" data-name="Rectangle 149" width="0.269" height="3.313" transform="translate(42.02 17.407) rotate(-18.953)" fill="#838383"/>
      <rect id="Rectangle_150" data-name="Rectangle 150" width="0.269" height="3.313" transform="translate(42.517 17.236) rotate(-18.93)" fill="#838383"/>
      <rect id="Rectangle_151" data-name="Rectangle 151" width="0.615" height="0.869" transform="matrix(0.946, -0.325, 0.325, 0.946, 36.248, 24.361)" fill="#bebebe"/>
      <rect id="Rectangle_152" data-name="Rectangle 152" width="0.197" height="0.318" transform="translate(36.355 24.423) rotate(-18.96)" fill="#818181"/>
      <rect id="Rectangle_153" data-name="Rectangle 153" width="0.197" height="0.318" transform="translate(36.597 24.341) rotate(-18.971)" fill="#818181"/>
      <rect id="Rectangle_154" data-name="Rectangle 154" width="0.197" height="0.318" transform="translate(36.477 24.767) rotate(-18.959)" fill="#818181"/>
      <rect id="Rectangle_155" data-name="Rectangle 155" width="0.197" height="0.318" transform="translate(36.717 24.683) rotate(-18.94)" fill="#818181"/>
      <rect id="Rectangle_156" data-name="Rectangle 156" width="0.615" height="0.043" transform="matrix(0.946, -0.325, 0.325, 0.946, 36.235, 24.32)" fill="#ededed"/>
      <rect id="Rectangle_157" data-name="Rectangle 157" width="0.615" height="0.869" transform="translate(34.307 25.029) rotate(-18.959)" fill="#bebebe"/>
      <rect id="Rectangle_158" data-name="Rectangle 158" width="0.197" height="0.318" transform="translate(34.414 25.09) rotate(-18.971)" fill="#818181"/>
      <rect id="Rectangle_159" data-name="Rectangle 159" width="0.197" height="0.318" transform="translate(34.652 25.009) rotate(-18.93)" fill="#818181"/>
      <rect id="Rectangle_160" data-name="Rectangle 160" width="0.197" height="0.318" transform="translate(34.533 25.433) rotate(-18.94)" fill="#818181"/>
      <rect id="Rectangle_161" data-name="Rectangle 161" width="0.197" height="0.318" transform="translate(34.77 25.352) rotate(-18.93)" fill="#818181"/>
      <path id="Path_121" data-name="Path 121" d="M311.034,225.08l.582-.2-.014-.041-.582.2Z" transform="translate(-276.729 -200.052)" fill="#ededed" fill-rule="evenodd"/>
      <rect id="Rectangle_162" data-name="Rectangle 162" width="0.615" height="0.869" transform="matrix(0.946, -0.325, 0.325, 0.946, 40.137, 23.025)" fill="#bebebe"/>
      <rect id="Rectangle_163" data-name="Rectangle 163" width="0.197" height="0.318" transform="translate(40.247 23.088) rotate(-18.971)" fill="#818181"/>
      <rect id="Rectangle_164" data-name="Rectangle 164" width="0.197" height="0.318" transform="translate(40.484 23.006) rotate(-18.93)" fill="#818181"/>
      <rect id="Rectangle_165" data-name="Rectangle 165" width="0.197" height="0.318" transform="translate(40.366 23.43) rotate(-18.94)" fill="#818181"/>
      <rect id="Rectangle_166" data-name="Rectangle 166" width="0.197" height="0.318" transform="translate(40.602 23.351) rotate(-18.93)" fill="#818181"/>
      <rect id="Rectangle_167" data-name="Rectangle 167" width="0.615" height="0.043" transform="matrix(0.946, -0.325, 0.325, 0.946, 40.123, 22.985)" fill="#ededed"/>
      <rect id="Rectangle_168" data-name="Rectangle 168" width="0.615" height="0.869" transform="matrix(0.946, -0.325, 0.325, 0.946, 38.192, 23.694)" fill="#bebebe"/>
      <rect id="Rectangle_169" data-name="Rectangle 169" width="0.197" height="0.318" transform="translate(38.304 23.756) rotate(-18.94)" fill="#818181"/>
      <rect id="Rectangle_170" data-name="Rectangle 170" width="0.197" height="0.318" transform="translate(38.542 23.673) rotate(-18.971)" fill="#818181"/>
      <rect id="Rectangle_171" data-name="Rectangle 171" width="0.197" height="0.318" transform="translate(38.422 24.098) rotate(-18.94)" fill="#818181"/>
      <rect id="Rectangle_172" data-name="Rectangle 172" width="0.197" height="0.318" transform="translate(38.659 24.017) rotate(-18.971)" fill="#818181"/>
      <rect id="Rectangle_173" data-name="Rectangle 173" width="0.615" height="0.043" transform="matrix(0.946, -0.325, 0.325, 0.946, 38.178, 23.653)" fill="#ededed"/>
      <rect id="Rectangle_174" data-name="Rectangle 174" width="0.615" height="0.869" transform="matrix(0.946, -0.325, 0.325, 0.946, 42.081, 22.359)" fill="#bebebe"/>
      <rect id="Rectangle_175" data-name="Rectangle 175" width="0.197" height="0.318" transform="translate(42.188 22.42) rotate(-18.96)" fill="#818181"/>
      <rect id="Rectangle_176" data-name="Rectangle 176" width="0.197" height="0.318" transform="translate(42.431 22.338) rotate(-18.971)" fill="#818181"/>
      <rect id="Rectangle_177" data-name="Rectangle 177" width="0.197" height="0.318" transform="translate(42.307 22.763) rotate(-18.96)" fill="#818181"/>
      <rect id="Rectangle_178" data-name="Rectangle 178" width="0.197" height="0.318" transform="translate(42.549 22.68) rotate(-18.94)" fill="#818181"/>
      <rect id="Rectangle_179" data-name="Rectangle 179" width="0.615" height="0.043" transform="matrix(0.946, -0.325, 0.325, 0.946, 42.067, 22.317)" fill="#ededed"/>
      <path id="Path_122" data-name="Path 122" d="M195.943,264.065a28.422,28.422,0,1,1,3.738-56.6l-1.593-2.662q-1.067-.073-2.144-.074a30.913,30.913,0,1,0,0,61.826q1.012,0,2.015-.066l1.588-2.652A28.6,28.6,0,0,1,195.943,264.065Z" transform="translate(-146.835 -182.159)" fill="#989898"/>
      <path id="Path_123" data-name="Path 123" d="M546.881,720.73l-1-2.51-.717.287.9,2.553Z" transform="translate(-485.054 -639.035)" fill="#989898"/>
      <path id="Path_124" data-name="Path 124" d="M189.55,257.468a28.24,28.24,0,0,0,28.208,28.208,28.533,28.533,0,0,0,3.743-.247l.675-1.128a27.193,27.193,0,1,1,.138-53.644l-.678-1.133a28.23,28.23,0,0,0-32.086,27.944Z" transform="translate(-168.652 -203.984)" fill="#b0b0b0"/>
      <path id="Path_125" data-name="Path 125" d="M187.62,255.742a28.438,28.438,0,0,0,32.025,28.2l.14-.234a28.208,28.208,0,1,1,.135-55.9l-.14-.234a28.437,28.437,0,0,0-32.16,28.177Z" transform="translate(-166.934 -202.258)" fill="#b0b0b0"/>
      <path id="Path_126" data-name="Path 126" d="M206.94,272.923a26.315,26.315,0,0,0,31.322,25.811l3.488-5.827-2.518.729a21.561,21.561,0,1,1,0-41.429l2.668.773-3.5-5.841a26.311,26.311,0,0,0-31.463,25.784Z" transform="translate(-184.124 -219.439)" fill="#cacaca"/>
      <path id="Path_127" data-name="Path 127" d="M198.77,265.663A27.2,27.2,0,0,0,230.381,292.5l.612-1.022a26.293,26.293,0,1,1,.141-51.594l-.615-1.028a27.2,27.2,0,0,0-31.748,26.81Z" transform="translate(-176.855 -212.179)" fill="#cacaca"/>
      <path id="Path_128" data-name="Path 128" d="M436.34,761.787a9.238,9.238,0,0,0-.106,2.469c.258.227.02-.064.011-.157a11.169,11.169,0,0,1,.232-2.032,6.4,6.4,0,0,1,.53.678,7.791,7.791,0,0,1,.548,1.1.08.08,0,0,1,.007.024.187.187,0,0,0,.005.067.442.442,0,0,0-.005-.067.033.033,0,0,1,0-.011,5.165,5.165,0,0,0-.44-1.147c-.222-.418-.559-.754-.609-.946a23.53,23.53,0,0,1-.09-3.276,1.045,1.045,0,0,0,.151-.3,3.5,3.5,0,0,1,.141.936c-.015.278.025.222.025.222l.046-.214-.157-1.094a10.529,10.529,0,0,0,.329-1.025c0-.01.288.673.437,1.051-.04.232-.13.765-.132.85,0,.109.041.063.041.063a7.642,7.642,0,0,1,.148-.766,3.363,3.363,0,0,1,.227.756c.067.356.052.944.1,1.574-.088.086-.3.308-.282.428.02.151.039.025.039.025a4.116,4.116,0,0,1,.254-.336.135.135,0,0,0,0,.021c.131,1.429.322,3.06.322,3.06s.084.258.068.131c-.1-.869-.118-1.718-.2-2.626a4.319,4.319,0,0,1,0-.675l.3.464c.01-.178-.313-.469-.282-.737a7.011,7.011,0,0,0-.05-1.385c-.038-.168-.544-1.588-.753-2.548a6.723,6.723,0,0,1,.13-2.364l-.732.046a.21.21,0,0,1,0,.033c.005.5.052.875.1,2.191a5.109,5.109,0,0,1-.574,2.34,6.943,6.943,0,0,1-1.065,1.479c-.045.008-.135.138.083.062a18.27,18.27,0,0,0,1.128-1.439c0,.292-.013,2.094.067,2.913-.192.191-.782.8-.714,1.037s.036.17.021.074c.014.085.041.151,0,0a.25.25,0,0,1,0-.122A2.2,2.2,0,0,1,436.34,761.787Z" transform="translate(-387.051 -670.87)" fill="#989898" fill-rule="evenodd"/>
      <path id="Path_129" data-name="Path 129" d="M416.388,792.831c.023-.072.091-.225.009-.266-.058-.029-.142.065-.176.1-.018.019-.048.06-.048.06s.011-.053.019-.078a.4.4,0,0,0-.011-.2c-.043-.042-.106.131-.117.148s-.022.066-.039.05-.015-.088-.02-.108a1.123,1.123,0,0,0-.069-.216c-.022-.043-.054-.114-.119-.1-.088.023-.133.107-.175.177-.011.019-.049.128-.058.118s0-.058,0-.068c-.022-.085-.063-.26-.187-.175-.108.073-.045.323-.146.374-.011.005-.026-.047-.03-.058-.019-.072-.025-.152-.041-.226,0-.019-.032-.073-.06-.058-.092.046-.118.139-.167.221a1.245,1.245,0,0,1-.087.194c-.011-.011.017-.068.037-.184a1.165,1.165,0,0,0,.029-.278c0-.028,0-.106-.04-.118a.2.2,0,0,0-.206.119c0,.01-.024.068-.039.068v-.068c0-.056-.032-.206-.119-.176a.36.36,0,0,0-.166.129c-.009.014-.069.117-.088.1s0-.057,0-.068c-.015-.06-.056-.3-.169-.225a.364.364,0,0,0-.087.177.293.293,0,0,1-.019.068c-.019,0-.029-.117-.03-.128-.014-.082-.067-.273-.159-.3-.107-.035-.107.169-.107.227a.5.5,0,0,1-.009.118c-.022-.022-.034-.106-.05-.138-.063-.123-.149-.287-.3-.323-.107-.026-.136.135-.117.207a1.144,1.144,0,0,0,.04.108.387.387,0,0,0-.06-.068.956.956,0,0,0-.148-.088.418.418,0,0,0-.432.052.362.362,0,0,0-.057.236.262.262,0,0,0,.01.078c0,.007.018.02.01.02s-.072-.062-.1-.068a.363.363,0,0,0-.353.1.3.3,0,0,0-.019.266c.012.037.018.073.03.108,0,.013.023.04.01.04-.031,0-.089-.061-.128-.068a.294.294,0,0,0-.284.129.221.221,0,0,0-.009.186c.006.015.055.063.05.068a.689.689,0,0,1-.1-.019.292.292,0,0,0-.265.081c-.076.116.01.26.08.354a.561.561,0,0,0,.108.088l-.108-.029a.336.336,0,0,0-.265.051c-.1.1.079.2.08.284,0,.006-.037-.01-.04-.01a.3.3,0,0,0-.118,0c-.088.03-.13.185-.117.266.018.1.093.137.187.137.028,0,.067-.023.05-.01a.187.187,0,0,0-.008.314.46.46,0,0,0,.374.066c.039-.006-.034.056-.019.128.029.141.325.09.315.1-.061.037-.2.118-.175.207.033.131.316.032.383,0,.007,0,.046-.008.04,0-.062.063-.138.154-.107.246.045.134.29-.008.344-.051.02-.017-.012.088,0,.138.029.11.134.107.226.107a2.182,2.182,0,0,0-.194.345c-.014.05-.023.146.021.186s.3-.109.358-.076c.043.023-.1.226-.091.251.02.1.132.137.217.137.043,0,.128-.011.128-.011s-.039.06-.029.088a.238.238,0,0,0,.187.127.528.528,0,0,0,.411-.18c.017-.017.067-.121.068-.118a.233.233,0,0,0,.06.068.388.388,0,0,0,.256.1.223.223,0,0,0,.205-.159.626.626,0,0,0,.009-.118.379.379,0,0,0,.069.1.268.268,0,0,0,.216.057.2.2,0,0,0,.147-.139.3.3,0,0,0,0-.118.376.376,0,0,0-.03-.058.366.366,0,0,0,.108.058.535.535,0,0,0,.374-.032.167.167,0,0,0,.053-.237c-.01-.019-.065-.054-.065-.077a.458.458,0,0,1,.068.019.526.526,0,0,0,.176.009c.137-.023.343-.137.372-.287.015-.081-.046-.117-.109-.137a1.277,1.277,0,0,0,.128.039.423.423,0,0,0,.324-.08c.069-.066.021-.238-.021-.3a.633.633,0,0,0-.079-.1c-.008-.009-.066-.041-.06-.049s.054.012.068.009a.563.563,0,0,0,.138-.04.746.746,0,0,0,.293-.277.315.315,0,0,0,0-.334.345.345,0,0,0-.158-.107c-.013,0-.036-.025-.03-.039.024-.051.115-.071.157-.1a.577.577,0,0,0,.264-.345c.021-.128-.121-.2-.227-.215-.026,0-.043,0-.068-.01s-.048.017-.05,0,.129-.049.147-.06a.427.427,0,0,0,.167-.168c.042-.084-.084-.088-.069-.118s0-.067.019-.088C416.629,792.835,416.388,792.831,416.388,792.831Z" transform="translate(-365.729 -704.426)" fill="#cacaca" fill-rule="evenodd"/>
      <path id="Path_130" data-name="Path 130" d="M443.426,795.653c-.01.071-.046.223.038.247.06.017.12-.084.146-.121.013-.02.035-.063.035-.063s0,.051,0,.076a.371.371,0,0,0,.044.18c.046.032.076-.14.083-.157s.009-.065.028-.052.03.079.038.1a.99.99,0,0,0,.1.187c.028.036.069.1.127.071a.3.3,0,0,0,.132-.194c.007-.02.022-.127.034-.119s.008.054.012.064c.034.075.1.229.2.13s-.013-.307.071-.37c.01-.008.033.039.038.05.03.064.05.137.076.2.007.017.042.062.065.044.076-.058.085-.149.116-.232a1.192,1.192,0,0,1,.047-.194c.012.008,0,.066,0,.176a1.007,1.007,0,0,0,.022.262c0,.025.022.1.057.1.074.01.151-.072.17-.146,0-.01.011-.067.024-.071s.011.061.012.064c.01.052.065.185.14.142a.338.338,0,0,0,.132-.148c.007-.014.045-.119.064-.106s.008.054.012.064c.024.053.1.269.194.18a.347.347,0,0,0,.051-.179.321.321,0,0,1,.006-.067c.018,0,.046.1.05.112.026.073.109.241.2.254.1.014.071-.174.06-.228,0-.011-.021-.117-.012-.11.024.017.05.093.069.118.078.1.186.239.33.247.1.005.1-.148.073-.212a1,1,0,0,0-.055-.093.353.353,0,0,0,.066.053,1,1,0,0,0,.152.056c.108.03.335-.008.39-.121a.345.345,0,0,0,.013-.228.222.222,0,0,0-.023-.071c0-.005-.019-.015-.012-.017s.076.045.1.046a.346.346,0,0,0,.31-.153.275.275,0,0,0-.029-.248c-.018-.032-.029-.064-.046-.095-.007-.011-.029-.032-.017-.034.029-.005.093.041.13.041a.276.276,0,0,0,.24-.168.207.207,0,0,0-.023-.174c-.008-.013-.062-.05-.057-.055a.448.448,0,0,1,.094,0,.279.279,0,0,0,.232-.119c.051-.12-.053-.238-.134-.313a.5.5,0,0,0-.116-.063s.069.007.1.008a.313.313,0,0,0,.236-.091c.072-.106-.108-.175-.122-.249,0-.005.036,0,.037,0,.04-.008.071,0,.109-.021.076-.043.088-.194.062-.266a.152.152,0,0,0-.2-.094c-.025,0-.058.032-.044.018a.177.177,0,0,0-.046-.292.434.434,0,0,0-.357,0c-.035.012.022-.057,0-.121-.051-.126-.316-.028-.308-.035.05-.045.163-.142.127-.222-.054-.116-.3.024-.354.067-.005,0-.042.015-.036.007.046-.068.1-.167.056-.246-.065-.117-.267.056-.309.106-.015.018,0-.084-.024-.127-.045-.1-.143-.076-.228-.061a2.089,2.089,0,0,0,.121-.352c0-.047,0-.139-.051-.169s-.256.151-.318.131c-.043-.013.051-.225.042-.248a.2.2,0,0,0-.224-.089c-.04.008-.116.032-.116.032s.025-.062.011-.087a.221.221,0,0,0-.2-.085.494.494,0,0,0-.35.236,1.23,1.23,0,0,0-.043.121.206.206,0,0,0-.066-.053.363.363,0,0,0-.254-.045.211.211,0,0,0-.163.182.613.613,0,0,0,.012.11.357.357,0,0,0-.081-.078.253.253,0,0,0-.209-.017.185.185,0,0,0-.112.153.31.31,0,0,0,.021.109.44.44,0,0,0,.038.05.332.332,0,0,0-.11-.035.5.5,0,0,0-.34.093.159.159,0,0,0-.009.228c.012.017.069.04.074.061a.378.378,0,0,1-.067-.006.5.5,0,0,0-.165.022c-.122.045-.293.185-.294.329,0,.077.063.1.123.108.006,0-.109-.017-.125-.014a.394.394,0,0,0-.286.13c-.053.073.021.224.072.278a.586.586,0,0,0,.09.077c.009.007.068.026.063.035s-.052,0-.065,0a.492.492,0,0,0-.12.061.7.7,0,0,0-.224.307.3.3,0,0,0,.058.309.31.31,0,0,0,.164.072c.013,0,.039.017.034.031-.014.051-.094.085-.128.118a.538.538,0,0,0-.184.364c0,.122.147.162.247.16.025,0,.041,0,.065,0s.043-.024.045-.009-.11.066-.126.081a.4.4,0,0,0-.125.184c-.024.085.093.067.084.1s.013.062,0,.085C443.2,795.69,443.426,795.653,443.426,795.653Z" transform="translate(-394.202 -704.429)" fill="#cacaca" fill-rule="evenodd"/>
      <path id="Path_131" data-name="Path 131" d="M429.19,830.632c.024-.065.095-.2.009-.248-.061-.033-.147.047-.182.076a.689.689,0,0,0-.051.051s.011-.049.02-.072a.349.349,0,0,0-.011-.185c-.044-.044-.11.114-.121.128s-.023.06-.041.043-.015-.085-.021-.1a1.046,1.046,0,0,0-.072-.21c-.022-.043-.055-.112-.122-.1a.281.281,0,0,0-.182.15c-.012.017-.05.116-.061.106s0-.054,0-.065c-.022-.082-.065-.25-.194-.183-.112.058-.047.3-.151.337-.012,0-.028-.047-.031-.058-.019-.069-.026-.146-.042-.216,0-.018-.033-.072-.062-.061-.095.035-.122.119-.172.191-.008.01-.079.185-.09.174s.018-.063.04-.169a.958.958,0,0,0,.03-.259c0-.026,0-.1-.041-.115a.189.189,0,0,0-.213.093c0,.009-.025.063-.041.061v-.065c0-.053-.033-.2-.122-.176a.32.32,0,0,0-.172.1c-.01.012-.073.1-.09.085s0-.054,0-.065c-.015-.057-.057-.288-.174-.227-.045.023-.078.115-.09.159,0,0-.014.064-.02.063s-.029-.112-.031-.122c-.014-.078-.069-.263-.164-.3-.11-.043-.111.149-.111.2,0,.011,0,.118-.01.11-.023-.023-.035-.1-.052-.133a.613.613,0,0,0-.306-.332c-.11-.035-.14.114-.121.183a1,1,0,0,0,.041.1.457.457,0,0,0-.062-.071,1.088,1.088,0,0,0-.153-.1c-.11-.06-.364-.087-.447.008a.3.3,0,0,0-.06.216.217.217,0,0,0,.011.075c0,.007.018.02.01.02s-.074-.065-.1-.074a.382.382,0,0,0-.365.061.251.251,0,0,0-.019.248c.013.036.019.069.031.1,0,.012.024.039.01.037-.032,0-.093-.065-.132-.076a.293.293,0,0,0-.294.095.187.187,0,0,0-.009.174c.006.015.056.065.051.069a.557.557,0,0,1-.1-.028.309.309,0,0,0-.273.05c-.079.1.01.245.083.34a.625.625,0,0,0,.112.093l-.111-.037a.365.365,0,0,0-.275.022c-.1.082.082.2.083.275,0,.006-.039-.012-.041-.012a.349.349,0,0,0-.122-.011c-.091.02-.134.162-.12.239.018.1.1.138.194.147.029,0,.069-.014.051,0a.167.167,0,0,0-.009.294.547.547,0,0,0,.386.1c.04,0-.035.05-.02.118.03.136.336.116.325.12-.063.029-.205.091-.182.177.034.127.326.06.4.034.007,0,.048,0,.041,0-.064.053-.142.132-.11.222.047.13.3.021.355-.015.021-.013-.012.082,0,.129.029.107.139.114.234.122.019,0-.158.166-.2.305a.19.19,0,0,0,.021.178c.044.041.307-.074.37-.038.044.025-.1.2-.095.228.02.091.137.141.224.149.044,0,.132,0,.132,0s-.041.052-.03.081a.277.277,0,0,0,.193.137.53.53,0,0,0,.426-.129,1.166,1.166,0,0,0,.071-.1.244.244,0,0,0,.062.07.466.466,0,0,0,.265.116.207.207,0,0,0,.213-.129.574.574,0,0,0,.01-.11.4.4,0,0,0,.072.1.317.317,0,0,0,.224.075.175.175,0,0,0,.152-.116.271.271,0,0,0,0-.111.563.563,0,0,0-.031-.058.432.432,0,0,0,.112.065.6.6,0,0,0,.386.005.142.142,0,0,0,.055-.217c-.01-.019-.067-.057-.067-.079,0,0,.068.024.072.024a.644.644,0,0,0,.183.025c.141-.009.354-.1.385-.234.017-.074-.049-.114-.112-.139a1.239,1.239,0,0,0,.132.049.439.439,0,0,0,.335-.045c.072-.055.022-.222-.022-.288a.727.727,0,0,0-.082-.1c-.009-.009-.068-.045-.061-.052s.055.017.072.015a.618.618,0,0,0,.142-.024.653.653,0,0,0,.3-.232.273.273,0,0,0,0-.314.4.4,0,0,0-.163-.116c-.013-.005-.037-.026-.031-.04.025-.045.118-.055.162-.078a.484.484,0,0,0,.272-.3c.021-.118-.126-.2-.235-.224-.028-.007-.045-.008-.072-.015s-.051.011-.051,0,.133-.033.152-.042a.369.369,0,0,0,.172-.142c.043-.075-.086-.091-.072-.117s0-.064.02-.082C429.439,830.658,429.19,830.632,429.19,830.632Z" transform="translate(-376.955 -737.861)" fill="#cacaca" fill-rule="evenodd"/>
      <path id="Path_132" data-name="Path 132" d="M611.521,562.264l.966-1.576-.008-.005c-.142.232-.246.4-.287.466q-.341.562-.671,1.115M591.57,578.947a70.834,70.834,0,0,0,7.316-.062,5.387,5.387,0,0,0,2.636-1.053,5.792,5.792,0,0,0,1.028-.862c.827-1.024,4.381-7.228,5.614-9.233l1.158-1.889c-.009,0-.03.037-.044.051.487-2.9,0-3.478-1.222-5.509l-2.7-4.491Z" transform="translate(-526.348 -494.611)" fill="#f6ad01" fill-rule="evenodd"/>
      <path id="Path_133" data-name="Path 133" d="M695.629,562.264l.966-1.576-.008-.005c-.142.232-.246.4-.287.466q-.341.562-.671,1.115m-2.62,4.272.421-.687c-.009,0-.03.037-.044.051.487-2.9,0-3.478-1.222-5.509l-2.7-4.491-3.368,5.631,6.831,5Z" transform="translate(-610.455 -494.611)" fill="#e39f00" fill-rule="evenodd"/>
      <path id="Path_134" data-name="Path 134" d="M541.128,247.878c1.226,2.031,1.709,2.611,1.222,5.509.017-.015.041-.063.047-.049l1.416-2.287c.481-.8.956-1.6,1.452-2.418l2.838-4.875-2.916-4.889c-1-1.647-1.946-3.243-2.939-4.891l-17.6-29.272c-2.151,0-4.544-.1-6.664,0-1.107.052-1.734.509-1.62,1.71a9.227,9.227,0,0,0,1.154,2.178q11.843,19.619,23.612,39.284" transform="translate(-459.419 -182.099)" fill="#3174f0" fill-rule="evenodd"/>
      <path id="Path_135" data-name="Path 135" d="M541.128,247.878c1.226,2.031,1.709,2.611,1.222,5.509.017-.015.041-.063.047-.049l1.416-2.287c.481-.8.956-1.6,1.452-2.418l2.838-4.875-2.916-4.889c-1-1.647-1.946-3.243-2.939-4.891l-17.6-29.272c-2.151,0-4.544-.1-6.664,0-1.107.052-1.734.509-1.62,1.71a9.227,9.227,0,0,0,1.154,2.178q11.843,19.619,23.612,39.284" transform="translate(-459.419 -182.099)" fill="#3174f0" fill-rule="evenodd"/>
      <path id="Path_136" data-name="Path 136" d="M615.057,243.97l3.394-5.449a5.372,5.372,0,0,0,.681-3.552c-.272-1.589-2.053-4.183-3.022-5.8-.571-.949-1.1-1.838-1.654-2.755-1.116-1.864-2.223-3.7-3.34-5.569l-7.459-12.428a5.7,5.7,0,0,0-2-2.408c-1.971-1.342-2.967-1.1-5.562-1.1H591.6l17.6,29.272c.992,1.648,1.943,3.244,2.939,4.891Z" transform="translate(-526.374 -182.31)" fill="#e63125" fill-rule="evenodd"/>
      <path id="Path_137" data-name="Path 137" d="M524.534,499.386l10.4-17.288,3.4-5.74q-2.965-4.938-5.929-9.879a6.022,6.022,0,0,1,.13,3.262c-.369,1.443-3.069,5.612-3.914,7.008l-12.1,20.289a1.419,1.419,0,0,0,.792,2.281c.934.232,5.789.066,7.224.066" transform="translate(-459.311 -415.05)" fill="#249a41" fill-rule="evenodd"/>
      <path id="Path_138" data-name="Path 138" d="M524.534,499.386l10.4-17.288,3.4-5.74q-2.965-4.938-5.929-9.879a6.022,6.022,0,0,1,.13,3.262c-.369,1.443-3.069,5.612-3.914,7.008l-12.1,20.289a1.419,1.419,0,0,0,.792,2.281c.934.232,5.789.066,7.224.066" transform="translate(-459.311 -415.05)" fill="#249a41" fill-rule="evenodd"/>
      <path id="Path_139" data-name="Path 139" d="M633.053,482l3.343-5.637q-2.965-4.938-5.929-9.879a6.022,6.022,0,0,1,.13,3.262c-.369,1.443-3.069,5.612-3.914,7.008l-.243.406Z" transform="translate(-557.373 -415.05)" fill="#1f8238" fill-rule="evenodd"/>
    </g>
  </g>
</svg>
